<svg version="1.2" xmlns="http://www.w3.org/2000/svg" viewBox="0 0 1000 1000" width="1000" height="1000">
	<title>10527411-ai</title>
	<style>
		.s0 { fill: #ffffff } 
		.s1 { fill: #dfdfdf } 
		.s2 { fill: #e0e0e0 } 
		.s3 { opacity: .1;fill: #000000 } 
		.s4 { fill: #b4befe } 
		.s5 { opacity: .4;fill: #ffffff } 
		.s6 { opacity: .2;fill: #b4befe } 
		.s7 { opacity: .6;fill: #ffffff } 
		.s8 { fill: #1e1e2e } 
		.s9 { opacity: .9;fill: #263238 } 
		.s10 { fill: #ba68c8 } 
		.s11 { fill: #11111b } 
		.s12 { fill: #263238 } 
		.s13 { fill: #f5f5f5 } 
		.s14 { fill: #000000 } 
		.s15 { fill: #fafafa } 
		.s16 { fill: #f4f4f4 } 
		.s17 { opacity: .7;fill: #ffffff } 
		.s18 { fill: #ffa8a7 } 
		.s19 { fill: #45475a } 
		.s20 { fill: #37474f } 
		.s21 { fill: #ffc4c3 } 
		.s22 { fill: #151521 } 
		.s23 { fill: #cdd6f4 } 
		.s24 { fill: #fab387 } 
		.s25 { fill: #f0997a } 
		.s26 { fill: #b16668 } 
		.s27 { fill: #f28f8f } 
		.s28 { fill: #455a64 } 
		.s29 { opacity: .2;fill: #ffffff } 
		.s30 { opacity: .3;fill: #ffffff } 
		.s31 { opacity: .2;fill: #000000 } 
		.s32 { opacity: .1;fill: #ffffff } 
		.s33 { opacity: .3;fill: #000000 } 
		.s34 { fill: #f0f0f0 } 
		.s35 { fill: none;stroke: #37474f;stroke-linecap: round;stroke-linejoin: round;stroke-width: 1.7 } 
		.s36 { opacity: .6;fill: #b4befe } 
		.s37 { opacity: .5;fill: #ffffff } 
		.s38 { opacity: .2;fill: #ced5ff } 
		.s39 { fill: #9ca9fd } 
		.s40 { fill: #9aa7ff } 
		.s41 { opacity: .2;fill: #9ca9fd } 
		.s42 { opacity: .1;fill: #9ca9fd } 
		.s43 { fill: #8394ff } 
	</style>
	<g id="Floor">
		<path id="Floor 00000117674027844305143670000000781129499673692076 " class="s0" d="m162.2 437.2c-186.7 111-186.7 291 0 402 186.6 111.1 489.2 111.1 675.8 0 186.7-111 186.7-291 0-402-186.6-111-489.2-111-675.8 0z"/>
	</g>
	<g id="Shadows">
		<path id="Shadow 00000102512555103208153260000007155741070783409835 " class="s1" d="m624.9 750l-163.7 94.5c-6.9 4-18.9 3.5-26.8-1.1l-53.9-31.1c-8-4.6-8.8-11.6-1.9-15.5l163.6-94.5c6.9-4 18.9-3.5 26.9 1.1l53.9 31.1c7.9 4.6 8.8 11.5 1.9 15.5z"/>
		<path id="Shadow 00000033344849058618929740000009764497056154653068 " class="s2" d="m222.6 697.6l-90.5-52.2c-1.5-0.9-3.1-1.1-4.2-1.1-1 0-2.6 0.2-4.1 1.1l-54.2 31.3c-1.7 1-2.7 2.6-2.7 4.4 0 1.8 1 3.4 2.7 4.4l90.5 52.2c1.5 0.9 3.1 1.1 4.2 1.1 1 0 2.6-0.2 4.1-1l54.2-31.3c1.8-1 2.8-2.6 2.8-4.4 0-1.8-1-3.4-2.8-4.5zm29.2-58.7l-23.1-13.3c-1.3-0.8-2.9-1.2-4.5-1.2-1.7 0-3.2 0.4-4.5 1.2l-7.5 4.3c-1.8 1-2.8 2.7-2.8 4.6 0 1.8 1 3.5 2.8 4.6l8.6 4.9-45.4 26.2 14.5 8.4 45.4-26.2h0.1c1.2 0.7 2.8 1.1 4.5 1.1 1.6 0 3.2-0.4 4.4-1.1l7.5-4.3c1.8-1 2.9-2.7 2.9-4.6 0-1.8-1.1-3.5-2.9-4.6z"/>
		<path id="Shadow 00000155849713839484845290000011310958573605708987 " class="s2" d="m170.8 655.4c-1 0-2.4-0.2-3.8-1l-35.4-20.4c-1.6-0.9-2.6-2.5-2.6-4.2 0-1.7 1-3.3 2.6-4.3l19.5-11.2c1.4-0.8 2.9-1 3.9-1 1 0 2.5 0.2 3.8 1 0 0 11.6 6.7 11.6 6.7 0.1 0 0.2 0 0.4 0 0.2 0 0.4 0 0.4 0l3.7-2.2c1.4-0.8 2.8-0.9 3.8-0.9 1 0 2.5 0.1 3.9 0.9l19.5 11.3c1.6 1 2.6 2.5 2.6 4.2 0 1.7-1 3.3-2.6 4.3l-27.4 15.8c-1.4 0.8-2.9 1-3.9 1z"/>
		<path id="Shadow 00000097494377813829998200000018372347360259926706 " fill-rule="evenodd" class="s2" d="m273.8 850.5q-0.4 0-0.8 0l-16.6-1.7c-1.8-0.2-3.4-1.1-4.5-2.5-1.1-1.4-1.6-3.1-1.4-4.9l0.8-6.3c-2.5-0.6-5-1.5-7.3-2.5-0.4-0.2-1.1-0.3-2-0.3-0.6 0-0.9 0-0.9 0.1l-13 4q-1.2 0.4-2.5 0.4c-2.3 0-4.5-0.8-6.1-2.1l-8.5-7.1c-1.5-1.3-2.3-3.1-2.1-4.9 0.2-1.9 1.4-3.5 3.2-4.4l10-5q-0.6-1.4-1-2.8c-0.2-0.4-0.5-0.8-0.7-0.9l-14.5-2.4c-1.8-0.3-3.4-1.4-4.3-2.9-0.9-1.5-1.1-3.4-0.6-5.2l2.3-7.3c1-3.1 4-5.3 7.2-5.3l15.5 0.6c0.6 0 1.7-0.5 2.2-1q1.5-1.5 3.2-2.9l-5.3-5.6c-1.4-1.5-1.9-3.4-1.5-5.2 0.4-1.8 1.7-3.2 3.6-4l13.3-5.3c1-0.4 2.1-0.6 3.3-0.6 1.9 0 3.9 0.5 5.3 1.5l9 5.9c0.3 0.2 1.3 0.6 2.3 0.6q0.2 0 0.4-0.1c2.9-0.5 5.9-0.9 9-1.1 0.3 0 1.1-0.5 1.3-0.8l3.3-6.5c1.3-2.5 4.3-4.3 7.2-4.3q0.4 0 0.8 0l16.6 1.8c1.8 0.1 3.4 1 4.5 2.4 1.1 1.4 1.6 3.1 1.4 4.9l-0.8 6.3c2.5 0.6 5 1.5 7.3 2.5 0.3 0.2 1.1 0.4 1.9 0.4 0.7 0 1-0.1 1-0.1l13-4.1q1.1-0.4 2.5-0.4c2.2 0 4.5 0.8 6 2.1l8.5 7.1c1.6 1.3 2.4 3.1 2.2 5-0.2 1.8-1.4 3.4-3.2 4.3l-10 5q0.6 1.4 1 2.9c0.1 0.3 0.5 0.7 0.7 0.8l14.4 2.5c1.9 0.3 3.4 1.3 4.4 2.8 0.9 1.6 1.1 3.4 0.6 5.2l-2.3 7.4c-1 3-4 5.3-7.3 5.3l-15.5-0.7c-0.5 0-1.6 0.5-2.1 1q-1.5 1.5-3.2 2.9l5.3 5.6c1.3 1.5 1.9 3.4 1.5 5.2-0.4 1.8-1.7 3.3-3.6 4l-13.3 5.4c-1 0.3-2.1 0.6-3.3 0.6-2 0-3.9-0.6-5.3-1.5l-9-6c-0.3-0.2-1.3-0.5-2.3-0.5q-0.2 0-0.4 0c-2.9 0.5-6 0.9-9 1.1-0.4 0-1.1 0.5-1.3 0.8l-3.3 6.5c-1.3 2.6-4.3 4.3-7.2 4.3zm4.4-61.1c-6.1 0-11.9 1-16.8 3-6.4 2.6-10.7 6.6-11.3 10.6-0.6 3.8 2 6.9 4.3 8.8 5.3 4.4 14.2 7 23.8 7 6 0 11.8-1 16.8-3 6.4-2.6 10.6-6.5 11.3-10.6 0.6-3.8-2-6.8-4.3-8.7-5.3-4.5-14.2-7.1-23.8-7.1z"/>
		<path id="Shadow 00000165957606895808988850000011744278982834759594 " class="s2" d="m868.9 450c3.9 2.2 7.7 4.7 11.3 7.4 26.3 19.3 37.6 54.8 17.8 84-24.2 35.6-72.7 35.7-99.6 30 6 4.6 15.4 14.6 15.6 22.2 0.2 6.8-5.3 14-18.4 17.3-7.1 1.7-24.4 3.1-36.8-4-18.1-10.3-21.6-16.2-37.1-28.3-14.7-11.6-41-10.6-59-9.9-19.9 0.7-41.7-0.3-56.9-13.3-4.3-3.6-8.2-9.3-6.5-14.7 2-6.2 9.7-8.2 16.1-9.1q14.6-2.2 29.1-4.4c-1.4-5.5-6.6-9-11.2-12.4-11-8.3-21-20.1-20.9-33.9 0.1-12 8.1-22.8 18.1-29.4 10-6.6 21.9-9.6 33.7-12.2 66-14.4 143.2-24.8 204.7 10.7z"/>
		<path id="Shadow 00000103236438616732985590000002980442270490166421 " class="s2" d="m113.9 500.5c3.7 0 7.4 0.1 11.1 0 0.8 0 1.8 0 2.3-0.7 0.4-0.5 0.5-1.2 0.4-1.9-0.3-2.8-1.6-5.5-2.8-8.1-9.5-22.5 36.7-25.5 49.5-24.9 15.3 0.7 30.2 4.4 45 8.5 20.8 5.9 41.4 12.5 61.7 20.1 17.8 6.5 34.3 14.8 47.4 28.9 6.3 6.8 12.3 14 15.8 22.5 3.6 8.6 4.2 18.7-0.2 26.9-4.2 7.7-12.5 12.5-21 14.6-8.5 2.1-17.4 1.7-26.2 1.2-2.7 9.1-10.1 16.2-18.7 20.3-8.5 4-18.1 5.3-27.6 5.6-26.4 0.8-53-6.2-75.8-19.7-22.6-13.5-56.3-37.4-66.1-43.3-9.8-5.9-17.2-8.8-24.7-13-7.3-4.1-14.1-7.4-21-12.3-2-1.4-4.2-2.9-5.1-5.2-6-15 28.4-19.1 36.4-19.5 6.5-0.3 13-0.2 19.6 0z"/>
		<path id="Shadow 00000123442159923303632090000001156061880077223327 " class="s3" d="m706.6 840.3l77.1-44.6c3.1-1.8 3.1-4.7 0-6.5l-77.2-44.5c-3.1-1.8-8.1-1.8-11.3 0l-77.1 44.5c-3.1 1.8-3.1 4.7 0 6.5l77.2 44.6c3.1 1.8 8.1 1.8 11.3 0z"/>
		<path id="Shadow 00000092417034539611635550000004172202260646021504 " class="s2" d="m910.9 648c-13.8-8.1-33-11.1-50.9-9.2-51.7 0-85.5 28-115.3 70.1q1-0.3 2-0.6 0.7 2.4 1 4.8 2.2-0.8 4.5-1 0.4 2.1 1 4.2 2-0.5 4-0.8 0.5 2.2 0.9 4.4c1.1-0.5 2.4-0.7 3.6-0.7q0.5 2.6 1 5.2c1.3-0.8 2.9-1.2 4.4-1.2q0.7 2.4 1.5 4.8 1.1-0.5 2.3-0.6c13.9-18.3 30-33.4 45.7-44.3 2.8 4.3 7.2 8.4 13.2 11.9 22.4 13 58.7 13 81.1 0 22.4-13 22.4-34 0-47z"/>
	</g>
	<g id="Tape">
		<g id="Tape 00000032645591645053395950000016329570144471158698 ">
			<path id="&lt;Path&gt;" class="s4" d="m858.8 617.8v36.4q-4.4 0.3-9.3 1.7l1.1-4.7c-23.7 1.8-61.1 26.2-89.1 63q-0.5-2.7-1.1-5.2c-1.2 0-2.4 0.2-3.5 0.7q-0.4-2.2-0.9-4.4-2.1 0.3-4.1 0.8c-0.3-1.4-0.7-2.8-1-4.2-1.5 0.1-3 0.4-4.4 1-0.2-1.6-0.6-3.2-1.1-4.8q-1 0.3-1.9 0.6c29.7-42.1 74.2-75.7 115.3-80.9z"/>
			<path id="&lt;Path&gt;" class="s5" d="m858.8 617.8v36.4q-4.4 0.3-9.3 1.7l1.1-4.7c-23.7 1.8-61.1 26.2-89.1 63q-0.5-2.7-1.1-5.2c-1.2 0-2.4 0.2-3.5 0.7q-0.4-2.2-0.9-4.4-2.1 0.3-4.1 0.8c-0.3-1.4-0.7-2.8-1-4.2-1.5 0.1-3 0.4-4.4 1-0.2-1.6-0.6-3.2-1.1-4.8q-1 0.3-1.9 0.6c29.7-42.1 74.2-75.7 115.3-80.9z"/>
			<path id="&lt;Path&gt;" class="s4" d="m823.3 644.2v20.2c0 7 4.6 13.9 13.8 19.3 18.3 10.6 48.1 10.6 66.4 0 9.2-5.4 13.8-12.3 13.8-19.3v-20.2z"/>
			<path id="&lt;Path&gt;" class="s5" d="m823.3 644.2v20.2c0 7 4.6 13.9 13.8 19.3 18.3 10.6 48.1 10.6 66.4 0 9.2-5.4 13.8-12.3 13.8-19.3v-20.2z"/>
			<path id="&lt;Path&gt;" class="s6" d="m848.9 644.2h-25.6v20.2c0 7 4.6 13.9 13.8 19.3 3.5 2 7.6 3.6 11.8 4.8z"/>
			<path id="&lt;Path&gt;" class="s4" d="m837.1 663.5c18.3 10.7 48.1 10.7 66.4 0 18.4-10.6 18.4-27.9 0-38.5-18.3-10.7-48.1-10.7-66.4 0-18.4 10.6-18.4 27.9 0 38.5z"/>
			<path id="&lt;Path&gt;" class="s7" d="m837.1 663.5c18.3 10.7 48.1 10.7 66.4 0 18.4-10.6 18.4-27.9 0-38.5-18.3-10.7-48.1-10.7-66.4 0-18.4 10.6-18.4 27.9 0 38.5z"/>
			<g id="&lt;Group&gt;">
				<path id="&lt;Path&gt;" class="s8" d="m854.3 653.5c8.8 5.1 23.1 5.1 31.9 0 8.9-5.1 8.9-13.4 0-18.5-8.8-5.1-23.1-5.1-31.9 0-8.8 5.1-8.8 13.4 0 18.5z"/>
			</g>
			<path id="&lt;Path&gt;" class="s9" d="m870.3 652.9c-5.1 0-9.9-1.3-13.3-3.5-2.5-1.6-4-3.5-4-5.2 0-1.6 1.5-3.5 4-5.1 3.4-2.2 8.2-3.5 13.3-3.5 5 0 9.9 1.3 13.3 3.5 2.5 1.6 3.9 3.5 3.9 5.1 0 1.7-1.4 3.6-3.9 5.2-3.4 2.2-8.3 3.5-13.3 3.5z"/>
		</g>
	</g>
	<g id="Chip">
		<g id="Chip">
			<g id="&lt;Group&gt;">
				<g id="&lt;Group&gt;">
					<path id="&lt;Path&gt;" class="s4" d="m748.6 776.2l3.9 6.7 21.1-12.1q0-0.1 0-0.1c1.9-1 2.5-3.4 1.4-5.2-1-1.9-3.4-2.5-5.2-1.4q0 0 0 0z"/>
					<path id="&lt;Path&gt;" class="s4" d="m734.1 767.8l3.9 6.7 21.1-12.1q0 0 0-0.1c1.8-1 2.5-3.4 1.4-5.2-1.1-1.9-3.4-2.5-5.3-1.4q0 0 0 0z"/>
					<path id="&lt;Path&gt;" class="s4" d="m719.6 759.4l3.8 6.7 21.1-12.1q0.1 0 0.1 0c1.8-1.1 2.4-3.5 1.4-5.3-1.1-1.9-3.5-2.5-5.3-1.4q0 0 0 0z"/>
					<path id="&lt;Path&gt;" class="s4" d="m705 751.1l3.9 6.6 21.1-12.1q0 0 0 0c1.9-1.1 2.5-3.5 1.4-5.3-1-1.9-3.4-2.5-5.2-1.4q0 0 0 0z"/>
				</g>
			</g>
			<g id="&lt;Group&gt;" style="opacity: .3">
				<path id="&lt;Path&gt;" class="s10" d="m748.6 776.2l3.9 6.7 17.9-10.3-7.7-4.5z"/>
				<path id="&lt;Path&gt;" class="s10" d="m726.8 747.4l-7.7-4.5-14.1 8.2 3.9 6.6z"/>
				<path id="&lt;Path&gt;" class="s10" d="m719.6 759.4l3.8 6.7 18-10.3-7.7-4.5z"/>
				<path id="&lt;Path&gt;" class="s10" d="m734.1 767.8l3.9 6.7 17.9-10.3-7.7-4.5z"/>
			</g>
			<g id="&lt;Group&gt;">
				<g id="&lt;Group&gt;">
					<path id="&lt;Path&gt;" class="s4" d="m653.1 776.2l-3.8 6.7-21.1-12.1q0-0.1 0-0.1c-1.9-1-2.5-3.4-1.5-5.2 1.1-1.9 3.5-2.5 5.3-1.4q0 0 0 0z"/>
					<path id="&lt;Path&gt;" class="s4" d="m667.7 767.8l-3.9 6.7-21.1-12.1q0 0 0-0.1c-1.9-1-2.5-3.4-1.4-5.2 1-1.9 3.4-2.5 5.2-1.4q0 0 0.1 0z"/>
					<path id="&lt;Path&gt;" class="s4" d="m682.2 759.5l-3.9 6.6-21.1-12.1q0 0 0 0c-1.8-1.1-2.5-3.5-1.4-5.3 1.1-1.9 3.4-2.5 5.3-1.4q0 0 0 0z"/>
					<path id="&lt;Path&gt;" class="s4" d="m696.7 751.1l-3.8 6.6-21.1-12.1q0 0 0 0c-1.9-1.1-2.5-3.5-1.5-5.3 1.1-1.9 3.5-2.5 5.3-1.4q0 0 0 0z"/>
				</g>
			</g>
			<g id="&lt;Group&gt;" style="opacity: .3">
				<path id="&lt;Path&gt;" class="s10" d="m653.1 776.2l-3.8 6.7-18-10.3 7.7-4.5z"/>
				<path id="&lt;Path&gt;" class="s10" d="m675 747.4l7.7-4.5 14 8.2-3.8 6.6z"/>
				<path id="&lt;Path&gt;" class="s10" d="m682.2 759.5l-3.9 6.6-17.9-10.3 7.7-4.5z"/>
				<path id="&lt;Path&gt;" class="s10" d="m667.7 767.8l-3.9 6.7-17.9-10.3 7.7-4.5z"/>
			</g>
			<g id="&lt;Group&gt;">
				<g id="&lt;Group&gt;">
					<path id="&lt;Path&gt;" class="s11" d="m630.9 781.6c0 1 0.7 2 1.9 2.7l63.5 36.6c1.2 0.8 2.9 1.2 4.6 1.2v10c-1.7 0-3.4-0.4-4.7-1.1l-60.6-35c-2.6-1.5-4.7-5.1-4.7-8.1z"/>
					<path id="&lt;Path&gt;" class="s8" d="m705.6 820.9l63.3-36.6c2.6-1.5 2.6-3.9 0-5.3l-63.4-36.6c-2.5-1.5-6.7-1.5-9.3 0l-63.4 36.6c-2.5 1.4-2.5 3.8 0 5.3l63.5 36.6c2.5 1.5 6.7 1.5 9.3 0z"/>
					<g id="&lt;Group&gt;">
						<path id="&lt;Path&gt;" class="s12" d="m770.9 781.8v6.1c0 3-2.1 6.6-4.7 8.1l-60.7 35c-1.2 0.7-2.9 1.1-4.6 1.1v-10c1.7 0 3.4-0.4 4.7-1.2l63.3-36.6c1.3-0.7 1.9-1.6 2-2.5z"/>
					</g>
				</g>
				<g id="&lt;Group&gt;">
					<path id="&lt;Compound Path&gt;" fill-rule="evenodd" class="s13" d="m754.7 780.6q0.3 0.5 0.3 1c0 0.9-0.5 1.7-1.5 2.3l-49.3 28.5c-1.9 1.1-4.7 1.1-6.6 0l-49.3-28.5c-1-0.6-1.6-1.4-1.6-2.3 0-0.8 0.6-1.6 1.6-2.2l49.3-28.5c1.9-1.1 4.7-1.1 6.6 0l49.3 28.5q0.9 0.5 1.2 1.2zm-106.6 1.5q0.2 0.4 0.8 0.7l49.4 28.5c1.4 0.8 3.8 0.8 5.2 0l49.4-28.5c0.5-0.3 0.9-0.8 0.9-1.2 0-0.3-0.4-0.8-0.9-1.1l-49.4-28.5c-1.4-0.8-3.8-0.8-5.2 0l-49.4 28.5c-0.6 0.3-0.9 0.7-0.9 1.1q0 0.3 0.1 0.5zm105.1-2.2z"/>
				</g>
				<g id="&lt;Group&gt;">
					<path id="&lt;Compound Path&gt;" fill-rule="evenodd" class="s13" d="m735.5 781.2q0.2 0.3 0.2 0.6c0 0.5-0.3 1-0.8 1.3l-32.5 18.7c-0.7 0.4-2.3 0.4-3.1 0l-32.7-18.7c-0.5-0.3-0.8-0.8-0.8-1.3 0-0.5 0.3-1 0.8-1.3l32.7-18.7c0.9-0.5 2.2-0.5 3.1 0l32.5 18.7q0.4 0.3 0.6 0.7zm-68.4 0.6c0 0 0 0.1 0.2 0.2l32.7 18.7c0.3 0.2 1.4 0.2 1.8 0l32.4-18.7c0.2-0.1 0.2-0.2 0.2-0.2 0 0 0-0.1-0.2-0.1l-32.4-18.8c-0.5-0.2-1.4-0.2-1.8 0l-32.8 18.7c-0.1 0.1-0.1 0.2-0.1 0.2z"/>
				</g>
			</g>
			<g id="&lt;Group&gt;">
				<g id="&lt;Group&gt;">
					<path id="&lt;Path&gt;" class="s4" d="m660.6 827.3c-1.8 1.1-2.4 3.5-1.4 5.3 1.1 1.9 3.4 2.5 5.3 1.4l20.2-11.7c0.5-0.3 0.8-0.9 0.8-1.8 0-1.7-1.2-3.9-2.7-4.7-0.8-0.5-1.5-0.5-2-0.2z"/>
					<path id="&lt;Path&gt;" class="s4" d="m646.1 818.9c-1.8 1.1-2.5 3.5-1.4 5.3 1.1 1.9 3.4 2.5 5.3 1.4q0 0 0 0l20.2-11.7c0.5-0.3 0.8-0.9 0.8-1.8 0-1.7-1.3-3.9-2.8-4.7-0.7-0.5-1.4-0.5-1.9-0.2l-20.2 11.7z"/>
					<path id="&lt;Path&gt;" class="s4" d="m631.6 810.6c-1.9 1-2.5 3.4-1.4 5.2 1 1.9 3.4 2.5 5.2 1.4q0 0 0 0l20.2-11.7c0.5-0.3 0.8-0.9 0.8-1.8 0-1.7-1.2-3.9-2.7-4.7-0.8-0.5-1.4-0.5-1.9-0.2l-20.2 11.8q0 0 0 0z"/>
					<path id="&lt;Path&gt;" class="s4" d="m615.6 807.4c1.1 1.9 3.5 2.5 5.3 1.4q0 0 0 0l20.2-11.7c0.5-0.3 0.8-0.9 0.8-1.8 0-1.7-1.2-3.8-2.7-4.7-0.8-0.5-1.5-0.5-2-0.2l-20.2 11.8c-1.8 1-2.4 3.4-1.4 5.2z"/>
				</g>
				<g id="&lt;Group&gt;">
					<path id="&lt;Path&gt;" class="s4" d="m737.7 829.1c1.9 1.1 2.5 3.4 1.5 5.3-1.1 1.8-3.5 2.4-5.3 1.4l-20.2-11.8c-0.5-0.3-0.8-0.9-0.8-1.8 0-1.7 1.2-3.8 2.7-4.7 0.8-0.4 1.4-0.5 1.9-0.2z"/>
					<path id="&lt;Path&gt;" class="s4" d="m752.3 820.7c1.8 1.1 2.4 3.4 1.4 5.3-1.1 1.8-3.4 2.4-5.3 1.4q0 0 0 0l-20.2-11.8c-0.5-0.3-0.8-0.9-0.8-1.8 0-1.7 1.2-3.8 2.7-4.7 0.8-0.4 1.5-0.5 2-0.2l20.2 11.8q0 0 0 0z"/>
					<path id="&lt;Path&gt;" class="s4" d="m766.8 812.3c1.8 1.1 2.5 3.4 1.4 5.3-1.1 1.8-3.4 2.4-5.3 1.4q0 0 0 0l-20.2-11.8c-0.4-0.3-0.8-0.9-0.8-1.8 0-1.7 1.3-3.8 2.8-4.7 0.7-0.4 1.4-0.5 1.9-0.2l20.2 11.8z"/>
					<path id="&lt;Path&gt;" class="s4" d="m782.7 809.2c-1 1.8-3.4 2.4-5.2 1.4q0 0 0 0l-20.2-11.8c-0.5-0.3-0.8-0.9-0.8-1.8 0-1.7 1.2-3.8 2.7-4.7 0.8-0.4 1.4-0.5 1.9-0.2l20.2 11.8c1.9 1.1 2.5 3.4 1.4 5.3z"/>
				</g>
			</g>
		</g>
	</g>
	<g id="Gear">
		<g id="Gear 00000137833863564798664030000012893785659831185044 ">
			<g id="&lt;Group&gt;">
				<path id="&lt;Compound Path&gt;" fill-rule="evenodd" class="s4" d="m309.2 765.7c1.4 0.7 3.7 0.9 5.2 0.4l12.3-3.9c1.5-0.4 3.6 0 4.8 1l8.1 6.7c0.6 0.5 0.8 1 0.8 1.5v13c0 0.6-0.4 1.2-1.1 1.6l-4.4 2.2 11.2 1.9c1.2 0.2 2 1.2 2 2.4v12.9q0 0.4-0.1 0.8l-2.2 7c-0.4 1.5-2.1 2.6-3.6 2.6l-14.5-0.6c-1.1-0.1-2.4 0.4-3.4 1.1l0.7 0.7c0.4 0.5 0.6 1 0.6 1.4q0 0 0 0.1v13c0 0.7-0.4 1.3-1.3 1.6l-12.6 5.1c-1.5 0.6-3.7 0.3-5-0.5l-8.5-5.7c-1.3-0.8-3.5-1.2-5.1-1q-4 0.7-8.1 1c-1.6 0.2-3.4 1.3-4.1 2.7l-3.2 6.1c-0.7 1.4-2.5 2.4-4.1 2.2l-15.7-1.6c-1.5-0.2-2.5-1.3-2.5-2.7v-8.8c-0.4-0.5-1-1-1.6-1.2q-3.5-1-6.6-2.4c-1.4-0.6-3.8-0.8-5.2-0.3l-12.3 3.8c-1.5 0.5-3.7 0.1-4.9-0.9l-8-6.7c-0.6-0.5-0.8-1-0.8-1.5v-13c0-0.6 0.4-1.2 1.1-1.6l4.4-2.2-11.2-1.9c-1.2-0.2-2-1.1-2-2.3h-0.1v-13h0.1c0-0.3 0-0.6 0.1-0.9l2.2-6.9c0.4-1.5 2.1-2.7 3.6-2.6l14.4 0.6c1.1 0 2.4-0.4 3.5-1.1l-0.7-0.8c-0.5-0.4-0.6-0.9-0.6-1.4h-0.1l0.1-12.9q0 0 0 0v-0.2c0-0.6 0.4-1.2 1.3-1.6l12.6-5c1.4-0.6 3.7-0.4 4.9 0.5l8.5 5.6c1.3 0.9 3.6 1.3 5.1 1q4.1-0.7 8.2-1c1.6-0.1 3.4-1.3 4.1-2.6l3.1-6.2c0.8-1.3 2.6-2.3 4.1-2.2l15.8 1.7c1.6 0.1 2.7 1.5 2.5 3.1l-0.8 6c-0.1 1.5 0.9 3.1 2.4 3.5q3.4 1.1 6.6 2.4zm-55.8 33.8c9.5 7.9 28.3 9.8 42 4.3 5-2 8.7-4.7 10.8-7.8-0.8-1.1-1.9-2.3-3.2-3.4-9.5-7.9-28.3-9.9-42-4.4-5 2-8.7 4.8-10.8 7.8 0.8 1.2 1.9 2.4 3.2 3.5z"/>
			</g>
			<g id="&lt;Group&gt;" style="opacity: .2">
				<path id="&lt;Compound Path&gt;" fill-rule="evenodd" class="s0" d="m309.2 765.7c1.4 0.7 3.7 0.9 5.2 0.4l12.3-3.9c1.5-0.4 3.6 0 4.8 1l8.1 6.7c0.6 0.5 0.8 1 0.8 1.5v13c0 0.6-0.4 1.2-1.1 1.6l-4.4 2.2 11.2 1.9c1.2 0.2 2 1.2 2 2.4v12.9q0 0.4-0.1 0.8l-2.2 7c-0.4 1.5-2.1 2.6-3.6 2.6l-14.5-0.6c-1.1-0.1-2.4 0.4-3.4 1.1l0.7 0.7c0.4 0.5 0.6 1 0.6 1.4q0 0 0 0.1v13c0 0.7-0.4 1.3-1.3 1.6l-12.6 5.1c-1.5 0.6-3.7 0.3-5-0.5l-8.5-5.7c-1.3-0.8-3.5-1.2-5.1-1q-4 0.7-8.1 1c-1.6 0.2-3.4 1.3-4.1 2.7l-3.2 6.1c-0.7 1.4-2.5 2.4-4.1 2.2l-15.7-1.6c-1.5-0.2-2.5-1.3-2.5-2.7v-8.8c-0.4-0.5-1-1-1.6-1.2q-3.5-1-6.6-2.4c-1.4-0.6-3.8-0.8-5.2-0.3l-12.3 3.8c-1.5 0.5-3.7 0.1-4.9-0.9l-8-6.7c-0.6-0.5-0.8-1-0.8-1.5v-13c0-0.6 0.4-1.2 1.1-1.6l4.4-2.2-11.2-1.9c-1.2-0.2-2-1.1-2-2.3h-0.1v-13h0.1c0-0.3 0-0.6 0.1-0.9l2.2-6.9c0.4-1.5 2.1-2.7 3.6-2.6l14.4 0.6c1.1 0 2.4-0.4 3.5-1.1l-0.7-0.8c-0.5-0.4-0.6-0.9-0.6-1.4h-0.1l0.1-12.9q0 0 0 0v-0.2c0-0.6 0.4-1.2 1.3-1.6l12.6-5c1.4-0.6 3.7-0.4 4.9 0.5l8.5 5.6c1.3 0.9 3.6 1.3 5.1 1q4.1-0.7 8.2-1c1.6-0.1 3.4-1.3 4.1-2.6l3.1-6.2c0.8-1.3 2.6-2.3 4.1-2.2l15.8 1.7c1.6 0.1 2.7 1.5 2.5 3.1l-0.8 6c-0.1 1.5 0.9 3.1 2.4 3.5q3.4 1.1 6.6 2.4zm-55.8 33.8c9.5 7.9 28.3 9.8 42 4.3 5-2 8.7-4.7 10.8-7.8-0.8-1.1-1.9-2.3-3.2-3.4-9.5-7.9-28.3-9.9-42-4.4-5 2-8.7 4.8-10.8 7.8 0.8 1.2 1.9 2.4 3.2 3.5z"/>
			</g>
			<g id="&lt;Group&gt;" style="opacity: .2">
				<path id="&lt;Compound Path&gt;" class="s0" d="m282.2 820.2c-0.6 0.4-1 0.9-1.3 1.5l-3.2 6.1c-0.4 0.9-1.3 1.6-2.3 2v13c1-0.4 1.9-1.1 2.3-2l3.2-6.1c0.2-0.6 0.8-1.1 1.3-1.5zm43.5-1.7q0 0-0.1 0c0.1 0.7-0.4 1.3-1.3 1.7l-12.6 5c-0.9 0.4-2.2 0.4-3.3 0.2v13c1.1 0.2 2.4 0.2 3.3-0.2l12.6-5c0.9-0.4 1.4-1 1.3-1.7zm-83.8-5.5l-12.1 3.8c-0.9 0.3-2 0.3-3.1 0v13c1.1 0.3 2.2 0.3 3.1 0.1l12.1-3.9zm106.4-20.5q-0.1 0.4-0.2 0.8l-2.1 6.9c-0.5 1.5-2.1 2.7-3.7 2.6l-14.4-0.6c-0.7 0-1.5 0.2-2.3 0.5v13c0.8-0.3 1.6-0.5 2.3-0.5l14.4 0.6c1.6 0.1 3.2-1.1 3.7-2.6l2.1-6.9q0.2-0.4 0.2-0.8zm-7.8-21.1q0 0.2-0.1 0.5-0.1 0.3-0.4 0.6-0.3 0.3-0.6 0.5l-10.2 5.1q-0.4 0.1-0.6 0.4-0.5 0.4-0.7 1.1-0.1 0.4-0.1 1 0 0.2 0 0.5 0.1 0.3 0.3 0.7 0.6 1.3 1 2.7c0.4 1.5 1.8 3 3.4 3.2l2.5 0.5 4.4-2.2c0.7-0.4 1.1-1 1.1-1.6z"/>
			</g>
			<path id="&lt;Compound Path&gt;" class="s3" d="m227.4 794.6c-0.5-1.5-1.9-3-3.4-3.3l-13.7-2.3c-1.2-0.2-2-1.1-2-2.1v12.8c0 1.2 0.8 2.1 2 2.3l11.2 1.9 5.8-2.9c1.4-0.7 1.8-2.3 1.1-3.7q-0.6-1.4-1-2.7zm3.3-21h0.1c0 0.5 0.2 1 0.6 1.4l0.7 0.8c0.5-0.3 0.9-0.6 1.2-0.9q1.5-1.6 3.5-3.1c1.2-0.9 1.4-2.6 0.3-3.7l-5.7-6.1c-0.5-0.4-0.6-0.9-0.6-1.4z"/>
			<path id="&lt;Path&gt;" class="s3" d="m261 775.2c-11.8 4.8-16 13.5-10.8 20.8 2.1-3 5.8-5.8 10.8-7.8 13.7-5.5 32.5-3.5 42 4.4q2 1.7 3.2 3.4c3.6-5.2 2.8-11.4-3.2-16.4-9.5-7.9-28.3-9.9-42-4.4z"/>
			<g id="&lt;Group&gt;">
				<path id="&lt;Compound Path&gt;" fill-rule="evenodd" class="s4" d="m331.5 763.2l8.1 6.7c1.2 1 1 2.4-0.3 3.1l-10.2 5c-1.4 0.7-1.8 2.4-1.1 3.8q0.6 1.3 1 2.7c0.4 1.5 1.8 3 3.3 3.2l13.8 2.4c1.5 0.2 2.4 1.6 1.9 3.1l-2.2 7c-0.4 1.5-2.1 2.6-3.6 2.6l-14.5-0.6c-1.5-0.1-3.5 0.9-4.6 2q-1.6 1.6-3.5 3.1c-1.2 0.9-1.4 2.5-0.3 3.6l5.7 6.1c1.1 1.2 0.8 2.6-0.7 3.1l-12.6 5.1c-1.5 0.6-3.7 0.3-5-0.5l-8.5-5.7c-1.3-0.8-3.5-1.2-5.1-1q-4 0.7-8.1 1c-1.6 0.2-3.4 1.3-4.1 2.7l-3.2 6.1c-0.7 1.4-2.5 2.4-4 2.2l-15.8-1.6c-1.6-0.2-2.7-1.6-2.5-3.1l0.7-6c0.2-1.5-0.8-3.1-2.3-3.6q-3.5-1-6.6-2.4c-1.4-0.6-3.8-0.8-5.2-0.3l-12.3 3.8c-1.5 0.5-3.7 0.1-4.9-0.9l-8-6.7c-1.2-1-1.1-2.4 0.3-3.1l10.2-5.1c1.3-0.7 1.8-2.3 1.1-3.7q-0.6-1.4-1-2.7c-0.5-1.5-1.8-3-3.4-3.3l-13.7-2.3c-1.5-0.3-2.4-1.7-1.9-3.2l2.2-6.9c0.4-1.5 2.1-2.7 3.6-2.6l14.4 0.6c1.6 0 3.6-0.9 4.7-2q1.6-1.6 3.5-3.1c1.2-0.9 1.4-2.6 0.3-3.7l-5.7-6.1c-1.1-1.1-0.8-2.5 0.7-3.1l12.6-5c1.4-0.6 3.7-0.4 4.9 0.5l8.5 5.6c1.3 0.9 3.6 1.3 5.1 1q4.1-0.7 8.2-1c1.6-0.1 3.4-1.3 4.1-2.6l3.1-6.2c0.8-1.3 2.6-2.3 4.1-2.2l15.8 1.7c1.6 0.1 2.7 1.5 2.5 3.1l-0.8 6c-0.1 1.5 0.9 3.1 2.4 3.5q3.4 1.1 6.6 2.4c1.4 0.7 3.7 0.9 5.2 0.4l12.3-3.9c1.5-0.4 3.6 0 4.8 1zm-70.5 12c-13.7 5.5-17.1 16.4-7.6 24.3 9.5 7.9 28.3 9.8 42 4.3 13.7-5.4 17.1-16.3 7.6-24.2-9.5-7.9-28.3-9.9-42-4.4z"/>
			</g>
			<g id="&lt;Group&gt;" style="opacity: .6">
				<path id="&lt;Compound Path&gt;" fill-rule="evenodd" class="s0" d="m331.5 763.2l8.1 6.7c1.2 1 1 2.4-0.3 3.1l-10.2 5c-1.4 0.7-1.8 2.4-1.1 3.8q0.6 1.3 1 2.7c0.4 1.5 1.8 3 3.3 3.2l13.8 2.4c1.5 0.2 2.4 1.6 1.9 3.1l-2.2 7c-0.4 1.5-2.1 2.6-3.6 2.6l-14.5-0.6c-1.5-0.1-3.5 0.9-4.6 2q-1.6 1.6-3.5 3.1c-1.2 0.9-1.4 2.5-0.3 3.6l5.7 6.1c1.1 1.2 0.8 2.6-0.7 3.1l-12.6 5.1c-1.5 0.6-3.7 0.3-5-0.5l-8.5-5.7c-1.3-0.8-3.5-1.2-5.1-1q-4 0.7-8.1 1c-1.6 0.2-3.4 1.3-4.1 2.7l-3.2 6.1c-0.7 1.4-2.5 2.4-4 2.2l-15.8-1.6c-1.6-0.2-2.7-1.6-2.5-3.1l0.7-6c0.2-1.5-0.8-3.1-2.3-3.6q-3.5-1-6.6-2.4c-1.4-0.6-3.8-0.8-5.2-0.3l-12.3 3.8c-1.5 0.5-3.7 0.1-4.9-0.9l-8-6.7c-1.2-1-1.1-2.4 0.3-3.1l10.2-5.1c1.3-0.7 1.8-2.3 1.1-3.7q-0.6-1.4-1-2.7c-0.5-1.5-1.8-3-3.4-3.3l-13.7-2.3c-1.5-0.3-2.4-1.7-1.9-3.2l2.2-6.9c0.4-1.5 2.1-2.7 3.6-2.6l14.4 0.6c1.6 0 3.6-0.9 4.7-2q1.6-1.6 3.5-3.1c1.2-0.9 1.4-2.6 0.3-3.7l-5.7-6.1c-1.1-1.1-0.8-2.5 0.7-3.1l12.6-5c1.4-0.6 3.7-0.4 4.9 0.5l8.5 5.6c1.3 0.9 3.6 1.3 5.1 1q4.1-0.7 8.2-1c1.6-0.1 3.4-1.3 4.1-2.6l3.1-6.2c0.8-1.3 2.6-2.3 4.1-2.2l15.8 1.7c1.6 0.1 2.7 1.5 2.5 3.1l-0.8 6c-0.1 1.5 0.9 3.1 2.4 3.5q3.4 1.1 6.6 2.4c1.4 0.7 3.7 0.9 5.2 0.4l12.3-3.9c1.5-0.4 3.6 0 4.8 1zm-70.5 12c-13.7 5.5-17.1 16.4-7.6 24.3 9.5 7.9 28.3 9.8 42 4.3 13.7-5.4 17.1-16.3 7.6-24.2-9.5-7.9-28.3-9.9-42-4.4z"/>
			</g>
		</g>
	</g>
	<g id="Circuit">
		<g id="Chip 00000023263392372856731780000010401911500136456107 ">
			<g id="&lt;Group&gt;">
				<path id="&lt;Path&gt;" class="s11" d="m250.1 638.5l-23.2-13.4c-1.5-0.9-4-0.9-5.5 0l-7.4 4.3c-0.8 0.4-1.2 1-1.2 1.5 0 0.2 0 2.7 0 2.9 0 0.5 0.4 1.1 1.2 1.5l23.1 13.4c1.5 0.8 4 0.8 5.5 0l7.5-4.3c0.7-0.5 1.1-1 1.1-1.6 0-0.1 0-2.6 0-2.8 0-0.6-0.4-1.1-1.1-1.5z"/>
				<path id="&lt;Path&gt;" class="s8" d="m214 632.6l23.1 13.3c1.5 0.9 4 0.9 5.5 0l7.5-4.3c1.5-0.9 1.5-2.3 0-3.1l-23.2-13.4c-1.5-0.9-3.9-0.9-5.5 0l-7.4 4.3c-1.5 0.9-1.5 2.3 0 3.2z"/>
				<g id="&lt;Group&gt;">
					<path id="&lt;Path&gt;" class="s4" d="m216.6 630.2l6.2-3.6c0.6-0.3 1.5-0.3 2.2 0l0.7 0.4c0.6 0.4 0.6 1 0 1.3l-6.2 3.6c-0.6 0.3-1.6 0.3-2.2 0l-0.7-0.5c-0.6-0.3-0.6-0.9 0-1.2z"/>
					<path id="&lt;Path&gt;" class="s4" d="m222 633.3l6.2-3.5c0.6-0.4 1.6-0.4 2.2 0l0.7 0.4c0.6 0.3 0.6 0.9 0 1.2l-6.1 3.6c-0.6 0.4-1.6 0.4-2.2 0l-0.8-0.4c-0.6-0.4-0.6-0.9 0-1.3z"/>
					<path id="&lt;Path&gt;" class="s4" d="m227.5 636.5l6.1-3.6c0.6-0.4 1.6-0.4 2.2 0l0.8 0.4c0.6 0.4 0.6 0.9 0 1.3l-6.2 3.5c-0.6 0.4-1.6 0.4-2.2 0l-0.7-0.4c-0.6-0.3-0.6-0.9 0-1.2z"/>
					<path id="&lt;Path&gt;" class="s4" d="m232.9 639.6l6.2-3.6c0.6-0.3 1.6-0.3 2.2 0l0.7 0.5c0.6 0.3 0.6 0.9 0 1.2l-6.2 3.6c-0.6 0.3-1.5 0.3-2.1 0l-0.8-0.4c-0.6-0.4-0.6-1 0-1.3z"/>
					<path id="&lt;Path&gt;" class="s4" d="m238.3 642.7l6.2-3.5c0.6-0.4 1.6-0.4 2.2 0l0.7 0.4c0.7 0.4 0.7 0.9 0 1.3l-6.1 3.5c-0.6 0.4-1.6 0.4-2.2 0l-0.8-0.4c-0.6-0.4-0.6-0.9 0-1.3z"/>
				</g>
			</g>
			<g id="&lt;Group&gt;">
				<path id="&lt;Path&gt;" class="s10" d="m208 664.2c1.4-0.8 2.3-2.3 2.3-3.9v-0.2c0-1.6 0.8-3.1 2.3-3.9l20.5-11.7v1.3l-20 11.3c-1.1 0.6-1.7 1.8-1.7 3v0.2c0 2-1.1 3.9-2.8 4.9l-21.7 12.5v-1.3z"/>
				<g id="&lt;Group&gt;" style="opacity: .3">
					<path id="&lt;Path&gt;" class="s14" d="m208 664.2c1.4-0.8 2.3-2.3 2.3-3.9v-0.2c0-1.6 0.8-3.1 2.3-3.9l20.5-11.7v1.3l-20 11.3c-1.1 0.6-1.7 1.8-1.7 3v0.2c0 2-1.1 3.9-2.8 4.9l-21.7 12.5v-1.3z"/>
				</g>
				<path id="&lt;Path&gt;" class="s4" d="m186.9 676.4l21.1-12.2c1.4-0.8 2.3-2.3 2.3-3.9v-0.2c0-1.6 0.8-3.1 2.3-3.9l20.5-11.7-13.5-7.8-20.6 11.9c-1.4 0.8-2.3 2.3-2.3 3.9 0 1.6-0.8 3.1-2.2 3.9l-21.1 12.2z"/>
				<g id="&lt;Group&gt;">
					<path id="&lt;Path&gt;" class="s15" d="m196.5 657.6c1.4-0.8 2.3-2.3 2.3-3.9v-0.3c0-1.6 0.8-3.1 2.2-3.9l20.6-11.7 0.9 0.6-20.5 11.7c-1.5 0.8-2.3 2.3-2.3 3.9v0.2c0 1.6-0.9 3.1-2.3 3.9l-21.1 12.2-0.9-0.5z"/>
					<path id="&lt;Path&gt;" class="s15" d="m200.8 660.1c1.4-0.8 2.2-2.3 2.2-3.9v-0.3c0-1.6 0.9-3.1 2.3-3.9l20.6-11.7 0.9 0.5-20.6 11.7c-1.4 0.8-2.2 2.3-2.2 4v0.2c0 1.6-0.9 3.1-2.3 3.9l-21.1 12.2-0.9-0.5z"/>
					<path id="&lt;Path&gt;" class="s15" d="m205.1 662.5c1.4-0.8 2.2-2.2 2.2-3.9v-0.2c0-1.6 0.9-3.1 2.3-3.9l20.6-11.7 0.9 0.5-20.6 11.7c-1.4 0.8-2.2 2.3-2.2 3.9v0.3c0 1.6-0.9 3.1-2.3 3.9l-21.1 12.2-0.9-0.6z"/>
				</g>
			</g>
			<g id="&lt;Group&gt;">
				<g id="&lt;Group&gt;">
					<path id="&lt;Path&gt;" class="s4" d="m70.3 676.5c0-0.5 0.4-1.1 1-1.4l54.2-31.3c1.4-0.8 3.5-0.8 4.9 0l90.5 52.2c0.6 0.4 1 0.9 1 1.4 0 0.5 0 2.1 0 2.6 0 0.5-0.4 1-1 1.4l-54.2 31.3c-1.3 0.7-3.5 0.7-4.9 0l-90.5-52.3c-0.6-0.4-1-0.9-1-1.4 0-0.4 0-2.1 0-2.5z"/>
					<path id="&lt;Path&gt;" class="s10" d="m126.4 643.4h3.1c-1-0.3-2.1-0.3-3.1 0z"/>
					<g id="&lt;Group&gt;" style="opacity: .1">
						<path id="&lt;Path&gt;" class="s14" d="m70.3 676.6v2.4c0 0.5 0.4 1 1 1.4l90.5 52.3c0.7 0.4 1.6 0.6 2.5 0.6v-2.6c-0.9 0-1.8-0.2-2.5-0.6l-90.5-52.2c-0.5-0.4-0.9-0.8-1-1.3z"/>
					</g>
					<path id="&lt;Path&gt;" class="s4" d="m161.8 730.1l-90.5-52.2c-1.3-0.8-1.3-2.1 0-2.8l54.2-31.3c1.4-0.8 3.5-0.8 4.9 0l90.5 52.2c1.3 0.8 1.3 2.1 0 2.8l-54.2 31.3c-1.3 0.8-3.5 0.8-4.9 0z"/>
					<g id="&lt;Group&gt;" style="opacity: .3">
						<path id="&lt;Path&gt;" class="s0" d="m161.8 730.1l-90.5-52.2c-1.3-0.8-1.3-2.1 0-2.8l54.2-31.3c1.4-0.8 3.5-0.8 4.9 0l90.5 52.2c1.3 0.8 1.3 2.1 0 2.8l-54.2 31.3c-1.3 0.8-3.5 0.8-4.9 0z"/>
					</g>
				</g>
				<g id="&lt;Group&gt;">
					<path id="&lt;Path&gt;" class="s10" d="m167.9 714l10.6 6.1c0.3 0.2 0.4 0.4 0.3 0.5-0.1 0-0.5 0-0.7-0.2l-10.3-5.9-3.5 2q-0.1 0.1-0.2 0l-5.5-3.1q-0.1-0.1-0.1-0.2v-4.1l-8.5-4.9c-0.4 0.1-0.8 0-1.1-0.1-0.3-0.2-0.3-0.6 0-0.8 0.4-0.2 1-0.2 1.3 0 0.3 0.2 0.4 0.4 0.2 0.6l8.4 4.9q0.1 0 0.1 0.2v4.1l5.3 3 3.5-2.1q0.1 0 0.2 0z"/>
					<path id="&lt;Path&gt;" class="s10" d="m170.8 724.6l-15.9-9.1q-0.1-0.1-0.1-0.2v-4.1l-3.7-2.1c-0.3 0.1-0.7 0-1-0.1-0.4-0.2-0.4-0.6 0-0.8 0.3-0.2 0.9-0.2 1.3 0 0.3 0.2 0.3 0.4 0.2 0.6l3.6 2.1q0.1 0 0.1 0.2v4.1l15.9 9.2c0.3 0.1 0.4 0.3 0.3 0.4-0.2 0.1-0.5 0-0.7-0.2z"/>
					<path id="&lt;Path&gt;" class="s10" d="m81.3 672.4l19.5 11.3q0.1 0.1 0.1 0.2v4.1l44.6 25.8c0.4-0.1 0.8-0.1 1.1 0.1 0.3 0.2 0.3 0.5 0 0.7-0.4 0.2-1 0.2-1.3 0-0.3-0.1-0.4-0.4-0.2-0.6l-44.6-25.7q-0.1-0.1-0.1-0.2v-4.1l-19.6-11.3c-0.2-0.1-0.3-0.3-0.2-0.4 0.1-0.1 0.4 0 0.7 0.1z"/>
					<path id="&lt;Path&gt;" class="s10" d="m167.1 726.7l-15.8-9.1q-0.1-0.1-0.1-0.2v-4.1l-8.5-4.9c-0.4 0.1-0.8 0.1-1.1-0.1-0.3-0.2-0.3-0.5 0-0.7 0.4-0.3 1-0.3 1.3 0 0.3 0.1 0.4 0.4 0.2 0.5l8.4 4.9q0.1 0.1 0.1 0.2v4.1l16 9.2c0.2 0.1 0.3 0.3 0.2 0.4-0.1 0.1-0.4 0-0.7-0.2z"/>
					<path id="&lt;Path&gt;" class="s10" d="m112.3 654.5l6.7 3.9q0.1 0.1 0.1 0.2v4.1l6.7 3.8c0.4 0 0.8 0 1.1 0.1 0.3 0.3 0.3 0.6 0 0.8-0.4 0.2-1 0.2-1.3 0-0.3-0.2-0.4-0.4-0.2-0.6l-6.6-3.8q-0.1-0.1-0.1-0.2v-4.1l-6.8-3.9c-0.3-0.2-0.4-0.3-0.3-0.4 0.1-0.1 0.5 0 0.7 0.1z"/>
					<path id="&lt;Path&gt;" class="s10" d="m77.6 674.6l9.9 5.6c0.3-0.1 0.8 0 1 0.1 0.4 0.3 0.4 0.6 0 0.8-0.3 0.2-0.9 0.2-1.3 0-0.3-0.2-0.3-0.4-0.2-0.6l-9.8-5.7c-0.3-0.1-0.4-0.3-0.3-0.4 0.2-0.1 0.5 0 0.7 0.2z"/>
					<path id="&lt;Path&gt;" class="s10" d="m151.9 667.2l-1.5 0.9 4.7 2.7h7.3q0 0 0.1 0l9.1 5.3q0.1 0.1 0.1 0.2v4.2q0 0.1-0.1 0.2l-1.5 0.9 10.6 6.1q0.1 0.1 0.1 0.2v4.1l5.3 3 5.2-3v-4l-14.6-8.4c-0.4 0.1-0.8 0-1.1-0.1-0.3-0.3-0.3-0.6 0-0.8 0.4-0.2 1-0.2 1.3 0 0.3 0.2 0.4 0.4 0.2 0.6l14.6 8.4q0.1 0.1 0.1 0.2v4.2q0 0.1-0.1 0.2l-5.2 3 17.6 10.1c0.2 0.2 0.3 0.3 0.2 0.4-0.1 0.1-0.4 0-0.7-0.1l-17.5-10.2-1.6 1-0.1 4 14.1 8.1c0.3 0.1 0.4 0.3 0.3 0.4-0.1 0.1-0.5 0-0.7-0.1l-14-8.1q-0.1-0.1-0.1-0.2v-4.3q0-0.1 0.1-0.2l1.5-0.8-5.1-3q-0.1-0.1-0.1-0.2v-4.1l-10.7-6.2-12.4 7.1 17.9 10.4q0.1 0.1 0.1 0.2v6.2l14.2 8.1c0.2 0.2 0.3 0.4 0.2 0.4-0.1 0.1-0.4 0-0.7-0.1l-14-8.1q-0.1-0.1-0.1-0.2v-6.2l-18-10.4-8.9 5.1v4l34.2 19.7c0.2 0.2 0.3 0.4 0.2 0.5-0.1 0-0.4 0-0.7-0.2l-34.1-19.7q-0.1 0-0.1-0.2v-4.2q0-0.1 0.1-0.2l8.8-5.1-6.4-3.7c-0.4 0.1-0.8 0.1-1.1-0.1-0.3-0.2-0.3-0.5 0-0.7 0.4-0.3 1-0.3 1.3 0 0.3 0.1 0.4 0.4 0.2 0.6l6.5 3.7 12.3-7.1-10.5-6.1c-0.3 0.1-0.7 0.1-1-0.1-0.4-0.2-0.4-0.5 0-0.7 0.3-0.2 0.9-0.2 1.3 0 0.3 0.1 0.3 0.4 0.2 0.6l10.5 6 1.6-0.9v-4l-9-5.1h-7.2q-0.1 0-0.2-0.1l-5-2.9-5 2.9 15.2 8.8c0.4-0.1 0.8 0 1.1 0.1 0.3 0.2 0.3 0.6 0 0.8-0.4 0.2-1 0.2-1.3 0-0.3-0.2-0.4-0.4-0.2-0.6l-15.2-8.8-5.1 2.9 10.3 5.9c0.3-0.1 0.7 0 1 0.1 0.4 0.2 0.4 0.6 0 0.8-0.3 0.2-0.9 0.2-1.3 0-0.3-0.2-0.3-0.4-0.2-0.6l-10.2-5.9-8.7 5 3.2 1.8 3.5-2q0.2-0.1 0.3 0l4.1 2.4c0.3-0.1 0.8-0.1 1 0.1 0.4 0.2 0.4 0.5 0 0.7-0.3 0.2-0.9 0.2-1.3 0-0.3-0.1-0.3-0.4-0.2-0.6l-3.7-2.2-3.6 2.1q-0.1 0-0.2 0l-3.5-2.1-3.2 1.9 17 9.8c0.4-0.1 0.8 0 1.1 0.1 0.3 0.2 0.3 0.6 0 0.8-0.4 0.2-1 0.2-1.4 0-0.2-0.2-0.3-0.4-0.1-0.6l-17.1-9.9-1.6 1v3.9l10.8 6.3q0.2 0 0.2 0.2v4.1l6.6 3.8c0.4-0.1 0.8 0 1.1 0.1 0.4 0.2 0.4 0.6 0 0.8-0.4 0.2-1 0.2-1.3 0-0.3-0.2-0.4-0.4-0.2-0.6l-6.6-3.8q-0.1-0.1-0.1-0.2v-4.1l-10.8-6.3q-0.1 0-0.1-0.2v-4.2q0-0.1 0.1-0.2l1.5-0.8-8.8-5.1q-0.1-0.1-0.1-0.2v-4.1l-17.8-10.2c-0.3-0.2-0.4-0.4-0.3-0.4 0.2-0.1 0.5 0 0.7 0.1l17.7 10.2q0.1 0.1 0.1 0.2v4.1l8.9 5.1 3.2-1.8-5.1-3q-0.1-0.1-0.1-0.2v-4.1l-21.5-12.3c-0.2-0.2-0.3-0.4-0.2-0.4 0.1-0.1 0.4-0.1 0.7 0.1l21.3 12.3q0.1 0.1 0.1 0.2v4.1l5.3 3 8.6-5-8.8-5.1q-0.1 0-0.1-0.2v-8.3l-14.1-8.1c-0.2-0.2-0.4-0.4-0.2-0.4 0.1-0.1 0.4 0 0.7 0.1l14 8.1q0.1 0.1 0.1 0.2v8.3l8.9 5.1 5-2.9-8.8-5q-0.1-0.1-0.1-0.2v-6.2l-15.9-9.2c-0.3-0.2-0.4-0.4-0.3-0.4 0.1-0.1 0.5 0 0.7 0.1l15.8 9.2q0.2 0 0.2 0.2v6.1l8.9 5.2 5-2.9-8.3-4.8c-0.3 0.1-0.8 0.1-1-0.1-0.4-0.2-0.4-0.6 0-0.8 0.3-0.2 0.9-0.2 1.3 0 0.2 0.2 0.3 0.4 0.1 0.6l8.3 4.8 1.6-0.9v-4l-26.9-15.5c-0.2-0.1-0.3-0.3-0.2-0.4 0.1-0.1 0.4 0 0.7 0.2l26.8 15.4q0.1 0.1 0.1 0.2v4.2q0 0.2-0.1 0.2z"/>
					<path id="&lt;Path&gt;" class="s10" d="m84.9 670.3l19.5 11.3q0.1 0.1 0.1 0.2v4.1l17.8 10.2c0.4 0 0.8 0 1.1 0.2 0.4 0.2 0.4 0.5 0 0.7-0.4 0.2-1 0.2-1.3 0-0.3-0.2-0.4-0.4-0.2-0.6l-17.7-10.2q-0.1-0.1-0.1-0.2v-4.1l-19.6-11.3c-0.3-0.2-0.4-0.3-0.3-0.4 0.2-0.1 0.5 0 0.7 0.1z"/>
					<path id="&lt;Path&gt;" class="s10" d="m106.8 657.7l4.4 2.5c0.4-0.1 0.8 0 1.1 0.1 0.3 0.2 0.3 0.6 0 0.8-0.4 0.2-1 0.2-1.3 0-0.3-0.2-0.4-0.4-0.2-0.6l-4.4-2.5c-0.3-0.2-0.4-0.4-0.3-0.5 0.2 0 0.5 0 0.7 0.2z"/>
					<path id="&lt;Path&gt;" class="s10" d="m207.3 703.5l-6.7-3.8q-0.1-0.1-0.1-0.2v-4.1l-4.9-2.8c-0.4 0.1-0.8 0.1-1.1-0.1-0.3-0.2-0.3-0.6 0-0.8 0.4-0.2 1-0.2 1.4 0 0.2 0.2 0.3 0.4 0.1 0.6l4.8 2.8q0.1 0 0.1 0.2v4.1l6.8 3.9c0.3 0.1 0.4 0.3 0.3 0.4-0.1 0.1-0.5 0-0.7-0.2z"/>
					<path id="&lt;Path&gt;" class="s10" d="m214.6 699.3l-4.4-2.5c-0.4 0.1-0.8 0.1-1.1-0.1-0.3-0.2-0.3-0.5 0-0.8 0.4-0.2 1-0.2 1.4 0 0.2 0.2 0.3 0.5 0.1 0.6l4.4 2.6c0.3 0.1 0.4 0.3 0.3 0.4-0.1 0.1-0.5 0-0.7-0.2z"/>
					<path id="&lt;Path&gt;" class="s10" d="m210.9 701.4l-6.7-3.8q-0.1-0.1-0.1-0.2v-4.1l-6.7-3.9c-0.3 0.1-0.7 0.1-1-0.1-0.4-0.2-0.4-0.5 0-0.7 0.3-0.2 0.9-0.2 1.3 0 0.3 0.1 0.3 0.4 0.2 0.6l6.5 3.8q0.1 0 0.2 0.2v4l6.8 4c0.2 0.1 0.3 0.3 0.2 0.4-0.1 0.1-0.4 0-0.7-0.2z"/>
					<path id="&lt;Path&gt;" class="s10" d="m157.5 661.9v3.9l2.5 1.5c0.4-0.1 0.8 0 1.1 0.1 0.3 0.2 0.3 0.6 0 0.8-0.4 0.2-1 0.2-1.4 0-0.2-0.2-0.3-0.4-0.1-0.6l-2.5-1.4q-0.1-0.1-0.1-0.2v-4.4z"/>
					<path id="&lt;Path&gt;" class="s10" d="m94.1 665.1l15.8 9.1q0.1 0.1 0.1 0.2v8.3l20 11.5q0.1 0.1 0.1 0.2v6.2l6.3 3.7c0.4-0.1 0.8-0.1 1.1 0.1 0.3 0.2 0.3 0.5 0 0.7-0.4 0.2-1 0.2-1.4 0-0.2-0.1-0.3-0.4-0.1-0.6l-6.3-3.6q-0.1 0-0.1-0.2v-6.1l-19.9-11.6q-0.1 0-0.1-0.2v-8.3l-16-9.2c-0.2-0.1-0.4-0.3-0.2-0.4 0.1-0.1 0.4 0 0.7 0.2z"/>
					<path id="&lt;Path&gt;" class="s10" d="m90.4 667.2l4.9 2.8q0.1 0.1 0.1 0.2v2l6.7 3.8c0.3-0.1 0.8 0 1 0.1 0.4 0.2 0.4 0.6 0 0.8-0.3 0.2-0.9 0.2-1.3 0-0.3-0.2-0.3-0.4-0.2-0.6l-6.5-3.8q-0.1-0.1-0.1-0.2v-2l-5-2.9c-0.3-0.1-0.4-0.3-0.3-0.4 0.1 0 0.5 0 0.7 0.2z"/>
					<path id="&lt;Path&gt;" class="s10" d="m171.7 707.8l14.1 8.1c0.3 0.2 0.4 0.4 0.3 0.4-0.1 0.1-0.5 0-0.7-0.1l-14-8.1q-0.1-0.1-0.1-0.2v-4.1l-10.4-5.9c-0.3 0.1-0.7 0-1-0.1-0.4-0.3-0.4-0.6 0-0.8 0.3-0.2 0.9-0.2 1.3 0 0.3 0.2 0.3 0.4 0.2 0.6l10.2 5.9q0.1 0.1 0.1 0.2z"/>
					<path id="&lt;Path&gt;" class="s10" d="m179 703.6l14.1 8.1c0.3 0.2 0.4 0.4 0.3 0.4-0.1 0.1-0.5 0-0.7-0.1l-14-8.1q-0.1-0.1-0.1-0.2v-8.3l-6.7-3.9c-0.4 0.1-0.8 0.1-1.1-0.1-0.3-0.2-0.3-0.5 0-0.7 0.4-0.2 1-0.2 1.3 0 0.3 0.1 0.4 0.4 0.2 0.6l6.6 3.8q0.1 0 0.1 0.2z"/>
				</g>
				<g id="Chip 1 ">
					<g id="&lt;Group&gt;">
						<g id="&lt;Group&gt;">
							<path id="&lt;Path&gt;" class="s11" d="m195.9 704c0 0.2-0.2 0.5-0.5 0.7l-16.3 9.4c-0.4 0.2-0.8 0.3-1.2 0.3v2.6c0.4 0 0.9-0.1 1.2-0.3l15.6-9c0.7-0.4 1.2-0.6 1.2-1.4z"/>
							<path id="&lt;Path&gt;" class="s8" d="m176.7 714.1l-16.3-9.4c-0.7-0.4-0.7-1 0-1.4l16.3-9.4c0.7-0.4 1.7-0.4 2.4 0l16.3 9.4c0.7 0.4 0.7 1 0 1.4l-16.3 9.4c-0.7 0.4-1.8 0.4-2.4 0z"/>
							<path id="&lt;Path&gt;" class="s8" d="m159.9 704v2.3c0 0.8 0.5 1 1.2 1.4l15.6 9c0.3 0.2 0.8 0.3 1.2 0.3v-2.6c-0.4 0-0.9-0.1-1.2-0.3l-16.3-9.4q-0.5-0.3-0.5-0.7z"/>
						</g>
						<g id="&lt;Group&gt;">
							<path id="&lt;Compound Path&gt;" fill-rule="evenodd" class="s16" d="m164.3 703.4l12.7-7.3c0.5-0.3 1.3-0.3 1.7 0l12.7 7.3q0.4 0.2 0.4 0.6 0 0.3-0.4 0.6l-12.7 7.3c-0.4 0.3-1.2 0.3-1.7 0l-12.7-7.3q-0.3-0.3-0.4-0.6 0-0.1 0.1-0.3 0.1-0.2 0.3-0.3zm27.2 0.6q0-0.2-0.2-0.3l-12.7-7.3c-0.4-0.2-1-0.2-1.4 0l-12.7 7.3q-0.2 0.1-0.2 0.3 0 0.2 0.2 0.3l12.7 7.3c0.4 0.2 1 0.2 1.4 0l12.7-7.3q0.1-0.1 0.2-0.2 0 0 0-0.1zm-27.1-0.4z"/>
						</g>
						<g id="&lt;Group&gt;">
							<path id="&lt;Compound Path&gt;" fill-rule="evenodd" class="s16" d="m169.1 703.7l8.4-4.8c0.2-0.1 0.6-0.1 0.8 0l8.4 4.8q0.2 0.1 0.2 0.3 0 0.2-0.2 0.4l-8.4 4.8c-0.2 0.1-0.6 0.1-0.8 0l-8.4-4.8q-0.2-0.2-0.2-0.4 0 0 0.1-0.1 0-0.1 0.1-0.2zm17.4 0.3l-8.4-4.8c-0.1-0.1-0.3-0.1-0.4 0l-8.4 4.8q0 0 0 0 0 0.1 0 0.1l8.4 4.8c0 0.1 0.3 0.1 0.4 0l8.4-4.8q0.1-0.1 0.1-0.1 0 0-0.1 0z"/>
						</g>
					</g>
				</g>
			</g>
			<g id="Chip 2 ">
				<g id="&lt;Group&gt;">
					<g id="&lt;Group&gt;">
						<path id="&lt;Path&gt;" class="s11" d="m186.7 671.6c0 0.2-0.1 0.5-0.5 0.6l-9.6 5.6c-0.3 0.2-0.7 0.3-1.2 0.3v2.6c0.5 0 0.9-0.1 1.2-0.3l8.9-5.2c0.7-0.4 1.2-0.6 1.2-1.3z"/>
						<path id="&lt;Path&gt;" class="s8" d="m174.2 677.8l-16.2-9.3c-0.6-0.4-0.6-1 0-1.4l9.7-5.6c0.6-0.4 1.7-0.4 2.3 0l16.2 9.4c0.7 0.4 0.7 1 0 1.4l-9.6 5.5c-0.6 0.4-1.7 0.4-2.4 0z"/>
						<path id="&lt;Path&gt;" class="s8" d="m157.5 667.8v2.3c0 0.7 0.6 0.9 1.2 1.3l15.5 9c0.4 0.2 0.8 0.3 1.2 0.3v-2.6c-0.4 0-0.8-0.1-1.2-0.3l-16.2-9.4q-0.4-0.2-0.5-0.6z"/>
					</g>
					<g id="&lt;Group&gt;">
						<path id="&lt;Compound Path&gt;" fill-rule="evenodd" class="s13" d="m162 667.2l6-3.5c0.5-0.3 1.2-0.3 1.7 0l12.6 7.3q0.4 0.2 0.4 0.6 0 0.3-0.4 0.5l-6 3.5c-0.5 0.3-1.2 0.3-1.7 0l-12.6-7.3q-0.4-0.2-0.4-0.5 0-0.2 0.1-0.3 0.1-0.2 0.3-0.3zm20.4 4.4q0-0.2-0.3-0.3l-12.6-7.3c-0.3-0.2-1-0.2-1.3 0l-6.1 3.5q-0.2 0.1-0.2 0.3 0 0.1 0.2 0.3l12.7 7.2c0.3 0.3 0.9 0.3 1.3 0l6-3.4q0.2-0.1 0.2-0.2 0.1-0.1 0.1-0.1zm-20.3-4.3z"/>
					</g>
					<g id="&lt;Group&gt;">
						<path id="&lt;Compound Path&gt;" fill-rule="evenodd" class="s13" d="m166.7 667.5l1.8-1c0.2-0.1 0.5-0.1 0.8 0l8.3 4.8q0.2 0.1 0.2 0.3 0 0.2-0.2 0.3l-1.8 1c-0.2 0.1-0.6 0.1-0.8 0l-8.3-4.8q-0.2-0.1-0.2-0.3 0-0.1 0.1-0.2 0 0 0.1-0.1zm10.8 4.1l-8.4-4.8c-0.1-0.1-0.4-0.1-0.5 0l-1.7 1q0 0 0 0 0 0 0 0.1l8.3 4.7c0.1 0.1 0.4 0.1 0.5 0l1.8-1q0 0 0 0 0 0 0 0z"/>
					</g>
				</g>
			</g>
			<g id="&lt;Group&gt;">
				<path id="&lt;Path&gt;" class="s11" d="m132.5 626.3c0-0.5 0.3-0.9 0.9-1.2l19.5-11.3c1.2-0.7 3-0.7 4.2 0l11.6 6.7c1.2 0.7 3.1 0.7 4.2 0l3.7-2.1c1.2-0.7 3.1-0.7 4.2 0l19.5 11.2c0.6 0.4 0.9 0.8 0.9 1.3 0 0.4 0 2.1 0 2.5 0 0.4-0.3 0.9-0.9 1.2l-27.4 15.9c-1.1 0.6-3 0.6-4.2 0l-35.3-20.4c-0.6-0.4-0.9-0.8-0.9-1.2 0-0.5 0-2.2 0-2.6z"/>
				<path id="&lt;Path&gt;" class="s8" d="m168.7 647.9l-35.3-20.4c-1.2-0.7-1.2-1.8 0-2.4l19.5-11.3c1.2-0.7 3-0.7 4.2 0l11.6 6.7c1.2 0.7 3.1 0.7 4.2 0l3.7-2.1c1.2-0.7 3.1-0.7 4.2 0l19.5 11.2c1.2 0.7 1.2 1.8 0 2.5l-27.4 15.8c-1.1 0.7-3 0.7-4.2 0z"/>
				<path id="&lt;Path&gt;" class="s4" d="m192.4 629.6l-11.6-6.7c-1.1-0.6-3-0.6-4.2 0l-19.5 11.3c-1.2 0.7-1.2 1.8 0 2.4l11.6 6.7c1.2 0.7 3.1 0.7 4.2 0l19.5-11.2c1.2-0.7 1.2-1.8 0-2.5z"/>
				<g id="&lt;Group&gt;" style="opacity: .3">
					<path id="&lt;Path&gt;" class="s0" d="m192.4 629.6l-11.6-6.7c-1.1-0.6-3-0.6-4.2 0l-19.5 11.3c-1.2 0.7-1.2 1.8 0 2.4l11.6 6.7c1.2 0.7 3.1 0.7 4.2 0l19.5-11.2c1.2-0.7 1.2-1.8 0-2.5z"/>
				</g>
				<path id="&lt;Compound Path&gt;" fill-rule="evenodd" class="s4" d="m181.9 623.6l1.5 0.8-3.2 1.9 6.4 3.7 3.3-1.8 1.4 0.8-23.7 13.7-1.5-0.9 3.2-1.8-6.4-3.7-3.2 1.8-1.5-0.8zm3.2 7.3l-6.4-3.8-6.5 3.8 6.5 3.7zm-14.4 8.3l6.5-3.8-6.5-3.7-6.4 3.7z"/>
				<path id="&lt;Path&gt;" class="s8" d="m170.8 648.4v2.6c0.8 0 1.5-0.2 2.1-0.5l27.4-15.9c0.6-0.3 0.9-0.8 0.9-1.2v-2.6c0 0.5-0.3 0.9-0.9 1.3l-27.4 15.8c-0.6 0.4-1.3 0.5-2.1 0.5z"/>
			</g>
		</g>
	</g>
	<g id="Exclamation Marks">
		<g id="Exclamation Mark">
			<g id="Alert 6 ">
				<g id="&lt;Group&gt;">
					<path id="&lt;Path&gt;" class="s4" d="m677.5 225.4l-10.4 3.4c-1.9 0.6-4-0.2-4.6-1.9l-23.8-58.9c-0.7-1.6 0.3-3.5 2.2-4.1l19.7-6.4c1.9-0.6 3.8 0.2 4.2 1.9l15.4 62c0.4 1.6-0.8 3.4-2.7 4z"/>
					<path id="&lt;Path&gt;" class="s4" d="m681.7 256.3c-6.6 2.1-12.4-2-14-7.2-2.2-6.6 2-12.4 7.2-14 6.6-2.2 12.3 2 14 7.1 2.2 6.7-2 12.4-7.2 14.1z"/>
				</g>
			</g>
			<g id="Alert 00000179616701157150337100000016593177414375820968 ">
				<g id="&lt;Group&gt;">
					<path id="&lt;Path&gt;" class="s4" d="m649.2 264.7l-7.5 6.5c-1.4 1.1-3.4 1.2-4.6 0l-40.4-41c-1.1-1.2-0.9-3 0.5-4.2l14.2-12.2c1.4-1.2 3.2-1.1 4.1 0.1l34.5 46.5c0.9 1.2 0.6 3.1-0.8 4.3z"/>
					<path id="&lt;Path&gt;" class="s4" d="m663.5 289.1c-4.8 4.1-11 2.6-14.3-1.1-4.1-4.9-2.6-11.1 1.2-14.3 4.8-4.1 11-2.7 14.2 1.1 4.1 4.8 2.7 11-1.1 14.3z"/>
				</g>
			</g>
			<g id="&lt;Group&gt;" style="opacity: .6">
				<g id="Alert 00000145770366853664330480000002118168589264260998 ">
					<g id="&lt;Group&gt;">
						<path id="&lt;Path&gt;" class="s4" d="m677.5 225.4l-10.4 3.4c-1.9 0.6-4-0.2-4.6-1.9l-23.8-58.9c-0.7-1.6 0.3-3.5 2.2-4.1l19.7-6.4c1.9-0.6 3.8 0.2 4.2 1.9l15.4 62c0.4 1.6-0.8 3.4-2.7 4z"/>
						<path id="&lt;Path&gt;" class="s4" d="m681.7 256.3c-6.6 2.1-12.4-2-14-7.2-2.2-6.6 2-12.4 7.2-14 6.6-2.2 12.3 2 14 7.1 2.2 6.7-2 12.4-7.2 14.1z"/>
					</g>
				</g>
				<g id="Alert 00000159446920896006871140000007032405101139160505 ">
					<g id="&lt;Group&gt;">
						<path id="&lt;Path&gt;" class="s4" d="m649.2 264.7l-7.5 6.5c-1.4 1.1-3.4 1.2-4.6 0l-40.4-41c-1.1-1.2-0.9-3 0.5-4.2l14.2-12.2c1.4-1.2 3.2-1.1 4.1 0.1l34.5 46.5c0.9 1.2 0.6 3.1-0.8 4.3z"/>
						<path id="&lt;Path&gt;" class="s4" d="m663.5 289.1c-4.8 4.1-11 2.6-14.3-1.1-4.1-4.9-2.6-11.1 1.2-14.3 4.8-4.1 11-2.7 14.2 1.1 4.1 4.8 2.7 11-1.1 14.3z"/>
					</g>
				</g>
			</g>
		</g>
	</g>
	<g id="Speech Bubble">
		<g id="Speech Bubble 00000096030644272593262010000004003085063330937011 ">
			<g id="Speech Bubble 00000148632236302422510540000005146957878555128967 ">
				<path id="&lt;Path&gt;" class="s0" d="m431.4 272c-14.8 9.5-32 12.3-48.1 9.3l-7.4-1.9c-14.6-4.5-27.8-13.9-36.6-27.8-19.8-31.1-10.6-72.4 20.4-92.2 13.9-8.8 29.8-11.9 44.9-9.8l7.5 1.5c15.9 4.1 30.3 13.9 39.8 28.7 19.7 31.1 10.6 72.4-20.5 92.2z"/>
				<path id="&lt;Compound Path&gt;" fill-rule="evenodd" class="s8" d="m434.5 276.8c-30.2 19.2-69.4 13.2-92.6-12.6l-22.1 4.5c-3.8 0.7-6.5-3.6-4.2-6.7l13.3-18.1c-13.5-31.9-2.5-70 27.7-89.2 33.7-21.5 78.6-11.6 100 22.1 21.5 33.7 11.5 78.5-22.1 100zm17.4-97c-9.5-14.8-23.9-24.6-39.8-28.7l-7.5-1.5c-15.1-2.1-31 1-44.9 9.8-31 19.8-40.2 61.1-20.4 92.2 8.8 13.9 22 23.3 36.6 27.8l7.4 1.9c16.1 3 33.3 0.2 48.1-9.3 31.1-19.8 40.2-61.1 20.5-92.2z"/>
				<path id="&lt;Compound Path&gt;" class="s17" d="m431.4 272c-14.8 9.5-32 12.3-48.1 9.3l-7.4-1.9c-14.6-4.5-27.8-13.9-36.6-27.8-19.8-31.1-10.6-72.4 20.4-92.2 13.9-8.8 29.8-11.9 44.9-9.8l7.5 1.5c15.9 4.1 30.3 13.9 39.8 28.7 19.7 31.1 10.6 72.4-20.5 92.2z"/>
			</g>
			<g id="&lt;Group&gt;">
				<g id="&lt;Group&gt;">
					<g id="&lt;Group&gt;">
						<g id="&lt;Group&gt;">
							<path id="&lt;Compound Path&gt;" fill-rule="evenodd" class="s4" d="m360.5 248.8c-0.4-0.4-0.4-1-0.2-1.4l4.5-7.6c1-1.8 1-3.9-0.1-5.8q0 0-0.1-0.1c-1-1.8-2.9-2.8-4.9-2.8l-8.9 0.3c-0.5 0-1-0.4-1.1-0.8-0.9-2.6-1.5-5.3-1.9-8.1-0.4-2.8-0.5-5.6-0.4-8.2 0-0.5 0.3-1 0.8-1.1l8.6-2.2c2-0.6 3.5-2.1 4-4.1q0-0.1 0-0.1c0.5-2.1 0-4.2-1.5-5.6l-6.4-6.1c-0.4-0.3-0.5-0.9-0.3-1.3 2.5-5 5.9-9.4 9.9-13.2 0.4-0.3 0.9-0.4 1.4-0.1l7.7 4.4c1.7 1.1 3.8 1 5.7-0.1 0 0 0 0 0.1 0 1.8-1.1 2.8-3 2.8-5l-0.2-8.9c0-0.5 0.3-0.9 0.8-1.1 2.5-0.8 5.2-1.5 8-1.9 2.8-0.4 5.6-0.5 8.2-0.4 0.5 0 1 0.4 1.1 0.8l2.3 8.7c0.5 1.9 2 3.4 4 3.9q0.1 0 0.2 0c2 0.6 4.1 0 5.5-1.4l6.1-6.5c0.3-0.3 0.9-0.4 1.3-0.2 5 2.5 9.4 5.8 13.2 9.9 0.3 0.3 0.4 0.9 0.1 1.3l-4.4 7.7c-1 1.7-1 3.9 0.1 5.7 0 0 0 0.1 0 0.1 1.1 1.8 3 2.9 5 2.8l8.9-0.2c0.5 0 0.9 0.3 1.1 0.8 1.7 5.1 2.5 11 2.3 16.3 0 0.5-0.4 0.9-0.9 1.1l-8.6 2.2c-1.9 0.5-3.4 2.1-3.9 4.1 0 0-0.1 0.1-0.1 0.1-0.5 2 0.1 4.2 1.5 5.5l6.5 6.1c0.3 0.4 0.4 0.9 0.2 1.4-2.5 4.9-5.8 9.4-9.9 13.1-0.3 0.4-0.9 0.4-1.3 0.2l-7.7-4.5c-1.7-1-3.9-1-5.7 0.1q-0.1 0.1-0.1 0.1c-1.8 1-2.9 2.9-2.8 4.9l0.2 8.9c0 0.5-0.3 1-0.8 1.1q-4 1.3-8 1.9c-2.9 0.4-5.6 0.5-8.3 0.4-0.5 0-0.9-0.3-1-0.8l-2.3-8.6c-0.5-2-2.1-3.5-4.1-4q0 0 0 0-0.1 0-0.1 0c-2.1-0.5-4.1 0-5.5 1.5l-6.1 6.4c-0.4 0.4-0.9 0.5-1.4 0.3-4.9-2.6-9.3-5.9-13.1-9.9zm38.5-8.9c13.3-1.9 22.6-14.3 20.7-27.6-1.9-13.3-14.3-22.6-27.6-20.7-13.3 1.9-22.5 14.2-20.7 27.6 1.9 13.3 14.3 22.5 27.6 20.7z"/>
						</g>
					</g>
				</g>
			</g>
		</g>
	</g>
	<g id="Character 2">
		<g id="Character 00000147185232686347089910000013593514318785442222 ">
			<g id="Bottom 00000081650019056462850570000008146051547212534683 ">
				<g id="&lt;Group&gt;">
					<g id="&lt;Group&gt;">
						<path id="&lt;Path&gt;" class="s18" d="m734.2 518.2l-25.2-25.7-26.8 30.2 44.9 32.3c0 0 26.1-7 26.6-18.1z"/>
					</g>
					<path id="&lt;Path&gt;" class="s8" d="m732.6 516.5l1.3 1.4c0 0 2.8 7.9-5.4 18.9-8.3 10.9-14.9 8.5-14.9 8.5l-3.4-2.5c0 0-2.6 1.8 2.3 6.1 4.8 4.3 15.6 11.1 20.4 15.4 4.8 4.4 13.8 12.5 21.2 20.2 7.4 7.7 15 16.2 34.2 13.9 21-2.5 23.7-21.3 10.8-34.1-12.3-12.3-16.9-12.3-29.9-20.8-12.9-8.5-28.3-22.7-31.9-25.9-3.6-3.1-4.7-1.1-4.7-1.1z"/>
					<path id="&lt;Path&gt;" class="s19" d="m799.1 564.3c-4.2-4.2-7.5-6.9-10.5-9.1-15.6 2.6-34.6 17.2-31.8 32.1 6.8 6.8 14.6 13.1 31.5 11.1 21-2.5 23.7-21.3 10.8-34.1z"/>
					<g id="&lt;Group&gt;">
						<path id="&lt;Path&gt;" class="s12" d="m719.8 501.7l6 6.5c0 0-1.2 8.8-9.5 18.1-8.3 9.3-14.7 11.8-14.7 11.8l-13.9-10.1z"/>
					</g>
				</g>
				<g id="&lt;Group&gt;">
					<path id="&lt;Path&gt;" class="s8" d="m760.5 418c0 0-80.8-6.8-111.6-0.3-33.5 7.1-36.6 25.1-31 46 6.4 23.9 51.1 56.5 68 68.1 3.9 2.7 8.9 2.2 12.8-0.4 11.9-8.1 18.7-16.2 23-27.5 0.8-2 0.4-4.2-1-5.9l-3.4-3.9 32.5 8.2 25.8-11.1z"/>
					<path id="&lt;Path&gt;" class="s20" d="m700.6 465.9c10.3 11.5 21.6 24.5 25.8 30.5l-9.1-2.3c-15.2-19.9-23.1-37.1-47.3-45.3 0 0 15.4 0.1 30.6 17.1z"/>
				</g>
				<g id="&lt;Group&gt;">
					<path id="&lt;Path&gt;" class="s21" d="m719.9 517l-24 2.4-14.3 1.1 0.7 32.5 43.5 1.8z"/>
					<path id="&lt;Path&gt;" class="s20" d="m722.1 515.8l-11.1 1.8c0 0-5.2 5.4-4.3 19.1 0.8 13.3 5.6 18.6 5.6 18.6l9.7 0.2z"/>
					<path id="&lt;Path&gt;" class="s8" d="m702.7 518.7l-2.3 0.3c0 0-7.2 3.8-8.5 17.5-1.3 13.7 5.7 17.1 5.7 17.1l3.8 0.2c0 0 0.5 2.6-6 2.5-6.4-0.1-18.9-2.4-25.4-2.5-6.5 0-18.6-0.1-29.3 0.6-10.7 0.6-22 1.8-34.6-12.8-13.8-16.1-3.1-31.8 15.1-32.5 17.3-0.8 20.7 2.4 36 4.9 15.3 2.4 36.3 2.3 41.1 2.4 4.7 0.1 4.4 2.3 4.4 2.3z"/>
					<path id="&lt;Path&gt;" class="s19" d="m621.2 509.1c-18.2 0.7-28.9 16.4-15.1 32.5 9.5 11 18.2 13 26.6 13.1 8.3-5.4 8.3-36.1 5.2-44.8-4.4-0.7-9.3-1.1-16.7-0.8z"/>
				</g>
				<g id="&lt;Group&gt;">
					<path id="&lt;Path&gt;" class="s8" d="m755.1 424.7l136 31.8c0 0 4.7 35.8-5.6 62.6-10.3 26.8-35.7 35.4-50.7 36.6-15.7 1.2-36.4-4.9-36.4-4.9 0 0-4.6 2.1-20.8 4.7-7.3 1.2-31.1 2.4-41.8 3-10.4 0.6-14.4-0.4-16-2.6-3.5-4.7-5.5-10.7-5.5-23.2 0-4.6 2.3-16.5 6-19.5l52.2-20.7z"/>
					<path id="&lt;Path&gt;" class="s22" d="m809.4 539.1c0 0-1.3 7-3.6 9.5 3.6 1.5 11.4 2.4 19.2 3.4 11.6 1.5 37.8-8.5 48-30.5 9.9-21.5 6.3-46.2 4.1-68.3l14 3.3c0 0 4.7 35.8-5.6 62.6-10.3 26.8-35.7 35.4-50.7 36.6-15.7 1.2-36.4-4.9-36.4-4.9 3.5-1.6 8.5-6.2 11-11.7z"/>
					<path id="&lt;Path&gt;" class="s20" d="m748.6 502c0 0 8.9-3.4 13.6-5.3 4.7-1.8 17.9-6.9 31.1-6.2 23.5 1.3 54.3 5.2 54.3 5.2 0 0-37.4-8.4-50.5-10.6-13.2-2.2-19-0.9-32.8 4.4-9.4 3.6-24.9 10.2-24.9 10.2z"/>
					<path id="&lt;Path&gt;" class="s20" d="m765.2 491.6c0 0-9.5-4.7-11.8-25.7 0 0-4.3 15.8 5.5 30.5z"/>
				</g>
			</g>
			<g id="Top 17 ">
				<g id="Arm 00000005236158855361108600000012127546308172537997 ">
					<path id="Arm 21 " class="s21" d="m614 407.7c-2.9 0.5-5.6 1.4-8.4 0.4-2.1-0.7-3.8-2.3-2.3-4.5 0.6-0.9 1.5-1.4 2.4-1.9 2.6-1.4 5.3-2.6 8.2-3 2-0.3 4-0.3 6-0.3 6.1 0.2 12.2 1.3 18.2 1.6 1.7 0.1 5.2 0 5.9-2.1 0.3-0.9-0.6-2.2-1.1-3-1.3-2-3.1-3.6-4.6-5.4-1.7-2.2-3.1-4.8-3.1-7.6 0.1-1.5 0.6-3 1.3-4.4 0.1-0.3 0.3-0.6 0.6-0.8 0.7-0.6 1.8-0.1 2.6 0.5 4.1 2.6 8.1 5.2 11.9 8 3.8 2.8 7.1 6 10.6 9.1 2.1 1.8 5.3 4.5 8.3 4.1 22.3-3 40.1-14.1 40.1-14.1 0 0 11.7-43.6 19.5-62.8 7.9-19.3 27.5-22.1 27.5-22.1l13.8 39.8-16.4 60.7c-6.5 17.3-10.7 20.5-27.3 25.1-24.1 6.7-36.3 7.4-66.8 10.1-5.8 0.5-11.7 0.8-17.6 0.4-2.3-0.2-4.6-0.5-6.9-0.9-3.8-0.8-7.5-1-10.8-3.2-3.1-2-4.9-5.4-4-9.1 0.1-0.4 0.2-0.8 0.2-1.2-0.1-0.7-0.6-1.3-1-1.9-1.2-1.6-1.6-3.6-1.4-5.6 0.2-1 0.5-1.9 1-2.8 1-1.6 1.3-2.4-0.8-3.1-1.8-0.5-3.8-0.3-5.6 0z"/>
					<path id="&lt;Path&gt;" class="s8" d="m757.2 298.2c-14.5 3.8-24.3 9-30.6 27.8-6.4 18.7-9.9 32.5-9.9 32.5 0 0 5.3 10.2 21.3 14.3 16 4.2 23.2 1.4 23.2 1.4l8.1-38z"/>
				</g>
				<g id="Chest 00000165928680093369541890000004817300136027946136 ">
					<g id="&lt;Group&gt;">
						<g id="&lt;Group&gt;">
							<g id="&lt;Group&gt;">
								<path id="&lt;Path&gt;" class="s23" d="m833.4 472.6c-42.7 0-83.1-20.3-98.5-49.5 0.7-1.8 3-9 2.4-23.2-0.6-13.5-1.2-20.4-1.8-26.5-0.6-6.2-1.1-11.6-1.4-22.4-0.7-27.2 8.1-46.6 23.4-51.9 11.7-4 28.8-4.6 37.9-4.6 4.1 0 6.8 0.1 6.8 0.1 0.3 0 27.9 2.4 49.5 10.8 3.1 1.7 31.3 21 38.9 151.6-15.7 10.2-35.5 15.6-57.2 15.6z"/>
								<path id="&lt;Compound Path&gt;" fill-rule="evenodd" class="s2" d="m802.3 293.6c0 0 27.8 2.3 49.8 10.8 10 5.7 32.8 37.7 39.5 153.1-16.8 11.1-37.4 16.1-58.2 16.1-41.3 0-83.6-19.7-99.6-50.4 0 0 3.2-6.9 2.5-23.2-1.1-27.2-2.6-27.5-3.2-48.9-0.7-27.6 8.2-47.5 24.1-52.9 11.8-4.1 28.8-4.7 38.2-4.7q0 0 0 0v1.9c-9.1 0-26 0.6-37.6 4.6-14.9 5.2-23.4 24.2-22.7 51 0.3 10.7 0.8 16.1 1.4 22.3 0.6 6.1 1.2 13.1 1.8 26.6 0.5 13.4-1.4 20.7-2.3 23.1 15.4 28.7 55.3 48.6 97.4 48.6 21.3 0 40.7-5.2 56.2-15.1-7.6-128.1-34.8-148.1-38.4-150.3-21.4-8.2-48.8-10.6-49.1-10.6q0 0 0 0c0 0-2.7-0.2-6.7-0.2v-1.9c4.2 0 6.9 0.1 6.9 0.1z"/>
							</g>
						</g>
					</g>
					<g id="&lt;Group&gt;">
						<g id="&lt;Group&gt;">
							<g id="&lt;Group&gt;">
								<path id="&lt;Path&gt;" class="s24" d="m822.1 280.2c0 0 13.6-23.5 20.7-38.2 11.3-23.6 14-51.7-14.4-61.3-2.1-9.2-18.5-18.5-31.9-19.4-9.6-0.6-18.8 0.7-27.9 3.7-10.4 3.3-20.3 5.3-31.3 5-4.3-0.1-8.9-0.3-12.5 1.9-3.6 2.2-5.4 6.6-5.1 10.7 0.3 4.1 2.4 7.9 5.2 11-4.3 1.4-7.3 5.9-6.9 10.3 0.4 4.4 4.1 8.4 8.6 9.1-2 4.5 0.1 9.9 3.8 13.1 3.8 3.2 9 4.4 14 4.5-0.1 0 3.6 9.5 4.1 10.3 2 3.4 4.4 6.4 7.2 9.1 2.9 2.7 6.1 4.9 9.6 6.7 4 2 54.8 23.6 56.8 23.5z"/>
								<path id="&lt;Path&gt;" class="s21" d="m818.3 240.6q0.3 0.3 0.6 0.5c3.6 1.9 3.2-3.9 6.3-7.9 1.7-2.2 4.8-4.4 7.4-4.4 6.5-0.2 10.3 2.8 12.5 6.5 3.8 6.8 0.9 20.7-8.5 24.6-8.9 3.6-13.9-3.4-13.9-3.4l1.8 44.2c0 0-10.6 16.9-34.5 18.7-15.9 1.2-27.6-3.2-16.9-16.8l-0.4-11.2c0 0-8.7 1.1-16.4-1.2-16.2-4.7-21.5-17.5-23.1-24.2-2.1-8.2 0.1-15.8-0.4-24.2-0.4-5-1.2-12.9-1.2-16.1-0.1-4 0.8-20 5-25.7 7.5 10.6 37.5 6.8 60-3.7-0.8 7.3 3.2 15.2 5.4 18.7 3.6 5.7 8 10.3 14 13.6-0.5 3.1-0.3 6.4 0.8 9.4 0.3 1 0.7 1.9 1.5 2.6z"/>
								<g id="&lt;Group&gt;">
									<path id="&lt;Path&gt;" class="s18" d="m743.6 245.5c0.5 4.7-3.1 9-8.1 9.4-1.1 0.1-2.1 0-3.1-0.3 0.2-4.2 0.6-8.3 0.4-12.8-0.1-1.2-0.2-2.5-0.3-3.9q0.7-0.2 1.5-0.3c4.9-0.4 9.2 3.1 9.6 7.9z"/>
									<path id="&lt;Path&gt;" class="s18" d="m789.8 236.6c4.9-0.5 9.2 3 9.7 7.8 0.4 4.8-3.2 9-8.1 9.5-4.9 0.4-9.2-3.1-9.7-7.9-0.4-4.7 3.2-9 8.1-9.4z"/>
								</g>
								<g id="&lt;Group&gt;">
									<g id="&lt;Group&gt;">
										<path id="&lt;Path&gt;" class="s25" d="m775.4 218.4l12 5.4c1.5-3.4 0-7.3-3.3-8.8-3.3-1.5-7.2 0-8.7 3.4z"/>
										<path id="&lt;Path&gt;" class="s12" d="m785 234.5c-0.1 2.8-2.4 5.1-5.3 5-2.9 0-5.2-2.3-5.1-5.1 0-2.8 2.4-5 5.3-5 2.8 0 5.1 2.3 5.1 5.1z"/>
										<path id="&lt;Path&gt;" class="s12" d="m749.8 234.5c-0.1 2.8-2.4 5.1-5.3 5-2.9 0-5.1-2.3-5.1-5.1 0-2.8 2.4-5 5.3-5 2.8 0 5.1 2.3 5.1 5.1z"/>
										<path id="&lt;Path&gt;" class="s25" d="m737.9 224.4l12.1-5.5c-1.4-3.4-5.3-4.8-8.7-3.3-3.3 1.5-4.9 5.5-3.4 8.8z"/>
									</g>
									<g id="&lt;Group&gt;">
										<path id="&lt;Path&gt;" class="s18" d="m765.8 228.9l-3.6 23.6-13.7-6.3z"/>
									</g>
								</g>
								<path id="&lt;Path&gt;" class="s18" d="m772.7 291.4c0 0 21.3-0.9 32.9-12 4.2-4 7.8-10.2 9.6-16.1 0 0 0.6 10.7-6.1 18.9-12.1 15-36.2 15.8-36.2 15.8z"/>
							</g>
						</g>
						<g id="&lt;Group&gt;">
							<path id="&lt;Path&gt;" class="s26" d="m769.9 259.2c-1.8 0.9-4.4 1.2-6.4 1.3-1.1 0-2.3 0.2-2.9 1.2-0.7 1-0.3 2.3 0.6 3.7 1.7 2.7 6.6 4.8 11.7 3.1 5.9-2.1 7.2-7.3 6.8-10.3-0.1-1-0.4-2.4-1.6-2.9-1.6-0.7-2.6-0.3-3.4 0.4-1.3 1.1-2.1 2.1-4.8 3.5z"/>
							<path id="&lt;Path&gt;" class="s0" d="m763.5 260.5c2-0.1 4.6-0.4 6.4-1.3 2.7-1.4 3.5-2.4 4.8-3.5q0.4-0.4 1-0.6c0.1 1.9-0.6 3.9-4.6 5.8-4.2 2-6.8 1.4-8.4-0.4q0.4 0 0.8 0z"/>
							<path id="&lt;Path&gt;" class="s27" d="m772.9 268.5c-1.1 0.3-2.3 0.5-3.3 0.5 1.4-4.8 5.3-8.5 10.2-9.9 0 3-1.5 7.5-6.9 9.4z"/>
						</g>
					</g>
				</g>
				<g id="Contoller">
					<g id="&lt;Group&gt;">
						<path id="&lt;Path&gt;" class="s11" d="m624.9 411.4c0-3.8 2.8-7.7 8.1-10.7 9.7-5.7 24.4-6.3 32.8-1.4l75.5 43.5c3.8 2.2 5.7 5.2 5.7 8.3 0 3.3-0.1 10.8 0 13.8 0 3.8-2.7 7.7-8.1 10.8-9.7 5.6-24.4 6.3-32.8 1.4l-75.5-43.5c-3.8-2.2-5.6-5.2-5.7-8.2 0-3.4 0-10.9 0-14z"/>
						<path id="&lt;Path&gt;" class="s8" d="m630.6 419.6l75.5 43.6c8.4 4.8 23.1 4.2 32.8-1.4 9.7-5.6 10.8-14.1 2.4-19l-75.5-43.5c-8.4-4.9-23.1-4.3-32.8 1.4-9.7 5.6-10.8 14.1-2.4 18.9z"/>
					</g>
					<g id="&lt;Group&gt;">
						<g id="&lt;Group&gt;">
							<path id="&lt;Path&gt;" class="s12" d="m639.6 407.1c0-2.1 1.3-4.2 4.1-5.7 5.4-3.2 14.3-3.2 19.8 0 2.7 1.5 4.1 3.6 4.1 5.7 0 1.2 0 2.1 0 3.4 0 2-1.4 4.1-4.1 5.7-5.5 3.1-14.4 3.1-19.8 0-2.8-1.6-4.1-3.7-4.1-5.7 0-1.3 0-2.2 0-3.4z"/>
							<path id="&lt;Path&gt;" class="s28" d="m663.5 401.4c2.7 1.5 4.1 3.6 4.1 5.7 0 2-1.4 4.1-4.1 5.7-5.5 3.1-14.4 3.1-19.8 0-2.8-1.6-4.1-3.7-4.1-5.7 0-2.1 1.3-4.2 4.1-5.7 5.4-3.2 14.3-3.2 19.8 0z"/>
							<path id="&lt;Path&gt;" class="s12" d="m642.1 407.1q0 0.9 0.5 1.7c0.5 0.9 1.4 1.9 2.9 2.6 4.4 2.4 11.7 2.4 16.2 0 1.4-0.7 2.4-1.7 2.9-2.6q0.5-0.8 0.5-1.7c0-1.6-1.2-3.2-3.4-4.4-4.5-2.3-11.8-2.3-16.2 0-2.3 1.2-3.4 2.8-3.4 4.4z"/>
						</g>
						<path id="&lt;Path&gt;" class="s19" d="m642.7 409.1c0.6 0.8 1.5 1.6 2.8 2.3 4.4 2.4 11.7 2.4 16.2 0 1.2-0.7 2.1-1.5 2.7-2.3-0.1-2.2-0.8-4.3-2.1-6-1.9-2.7-5.1-4.4-8.7-4.4-3.6 0-6.8 1.7-8.8 4.4-1.2 1.7-2 3.8-2.1 6z"/>
						<path id="&lt;Path&gt;" class="s28" d="m656 400.3c0.7 0.4 1 0.9 1 1.4 0 0.5-0.3 1-1 1.4-1.3 0.8-3.5 0.8-4.9 0-0.6-0.4-1-0.9-1-1.4 0-0.5 0.4-1 1-1.4 1.4-0.8 3.6-0.8 4.9 0z"/>
						<g id="&lt;Group&gt;">
							<g id="&lt;Group&gt;">
								<path id="&lt;Path&gt;" class="s12" d="m651.8 394.2v9.2c1.1 0.4 2.4 0.4 3.5 0v-9.2c0-0.3-0.2-0.5-0.5-0.7-0.7-0.4-1.8-0.4-2.5 0-0.3 0.2-0.5 0.4-0.5 0.7z"/>
								<path id="&lt;Path&gt;" class="s28" d="m654.8 393.5q0.5 0.3 0.5 0.7 0 0.4-0.5 0.7c-0.7 0.4-1.8 0.4-2.5 0q-0.5-0.3-0.5-0.7 0-0.4 0.5-0.7c0.7-0.4 1.8-0.4 2.5 0z"/>
							</g>
							<g id="&lt;Group&gt;">
								<path id="&lt;Path&gt;" class="s4" d="m644.4 391.6c0 3.3 4.1 6 9.2 6 5 0 9.1-2.7 9.1-6 0-3.4-4.1-6-9.1-6-5.1 0-9.2 2.6-9.2 6z"/>
								<path id="&lt;Path&gt;" class="s29" d="m647.7 387.2c-3.3 1.9-3.3 4.9 0 6.8 3.2 1.9 8.5 1.9 11.8 0 3.2-1.9 3.2-4.9 0-6.8-3.3-1.9-8.6-1.9-11.8 0z"/>
							</g>
						</g>
					</g>
					<g id="&lt;Group&gt;">
						<g id="&lt;Group&gt;">
							<path id="&lt;Path&gt;" class="s8" d="m708.4 433.3c0.7 0.4 1 1 1 1.5 0 0.6-0.3 1.1-1 1.5-1.5 0.9-3.8 0.9-5.3 0-0.7-0.4-1-0.9-1-1.5 0-0.5 0.3-1.1 1-1.5 1.5-0.8 3.8-0.8 5.3 0z"/>
							<path id="&lt;Path&gt;" class="s4" d="m702.4 432.9c0-0.5 0.3-1 1-1.4 1.3-0.8 3.4-0.8 4.7 0 0.7 0.4 1 0.9 1 1.4 0 0.3 0 1.4 0 1.7 0 0.5-0.3 1-1 1.4-1.3 0.8-3.4 0.8-4.7 0-0.7-0.4-1-0.9-1-1.4 0-0.3 0-1.4 0-1.7z"/>
							<path id="&lt;Path&gt;" class="s29" d="m708 431.6c0.6 0.3 0.9 0.8 0.9 1.2 0 0.5-0.3 1-0.9 1.3-1.3 0.7-3.2 0.7-4.5 0-0.6-0.3-0.9-0.8-0.9-1.3 0-0.4 0.3-0.9 0.9-1.2 1.3-0.7 3.2-0.7 4.5 0z"/>
						</g>
						<g id="&lt;Group&gt;">
							<path id="&lt;Path&gt;" class="s12" d="m694.1 441.6c0.7 0.4 1 0.9 1 1.5 0 0.5-0.3 1.1-1 1.5-1.5 0.8-3.8 0.8-5.3 0-0.7-0.4-1-1-1-1.5 0-0.6 0.3-1.1 1-1.5 1.5-0.9 3.8-0.9 5.3 0z"/>
							<path id="&lt;Path&gt;" class="s4" d="m688.1 441.1c0-0.5 0.3-1 1-1.3 1.3-0.8 3.4-0.8 4.7 0 0.7 0.3 1 0.8 1 1.3 0 0.3 0 1.5 0 1.8 0 0.5-0.3 1-1 1.4-1.3 0.7-3.4 0.7-4.7 0-0.7-0.4-1-0.9-1-1.4 0-0.3 0-1.5 0-1.8z"/>
							<path id="&lt;Path&gt;" class="s29" d="m693.7 439.8c0.6 0.4 0.9 0.8 0.9 1.3 0 0.5-0.3 0.9-0.9 1.3-1.3 0.7-3.2 0.7-4.5 0-0.6-0.4-0.9-0.8-0.9-1.3 0-0.5 0.3-0.9 0.9-1.3 1.3-0.7 3.2-0.7 4.5 0z"/>
						</g>
						<g id="&lt;Group&gt;">
							<path id="&lt;Path&gt;" class="s12" d="m678.3 416c0.8 0.4 1.1 1 1.1 1.5 0 0.6-0.3 1.1-1.1 1.5-1.4 0.8-3.7 0.8-5.2 0-0.7-0.4-1.1-0.9-1.1-1.5 0-0.5 0.4-1.1 1.1-1.5 1.5-0.8 3.8-0.8 5.2 0z"/>
							<path id="&lt;Path&gt;" class="s4" d="m672.4 415.6c0-0.5 0.3-1 0.9-1.4 1.4-0.8 3.5-0.8 4.8 0 0.7 0.4 1 0.9 1 1.4 0 0.3 0 1.4 0 1.7 0 0.5-0.3 1-1 1.4-1.3 0.8-3.4 0.8-4.8 0-0.6-0.4-0.9-0.9-0.9-1.4 0-0.3 0-1.4 0-1.7z"/>
							<path id="&lt;Path&gt;" class="s29" d="m677.9 414.3c0.6 0.3 1 0.8 1 1.2 0 0.5-0.4 1-1 1.3-1.2 0.7-3.2 0.7-4.4 0-0.6-0.3-0.9-0.8-0.9-1.3 0-0.4 0.3-0.9 0.9-1.2 1.2-0.7 3.2-0.7 4.4 0z"/>
						</g>
						<g id="&lt;Group&gt;">
							<path id="&lt;Path&gt;" class="s12" d="m664 424.3c0.8 0.4 1.1 0.9 1.1 1.5 0 0.5-0.3 1-1.1 1.5-1.4 0.8-3.7 0.8-5.2 0-0.7-0.5-1.1-1-1.1-1.5 0-0.6 0.4-1.1 1.1-1.5 1.5-0.9 3.8-0.9 5.2 0z"/>
							<path id="&lt;Path&gt;" class="s4" d="m658.1 423.8c0-0.5 0.3-1 0.9-1.4 1.4-0.7 3.5-0.7 4.8 0 0.7 0.4 1 0.9 1 1.4 0 0.3 0 1.5 0 1.8 0 0.5-0.3 1-1 1.3-1.3 0.8-3.4 0.8-4.8 0-0.6-0.3-0.9-0.8-0.9-1.3 0-0.3 0-1.5 0-1.8z"/>
							<path id="&lt;Path&gt;" class="s29" d="m663.6 422.5c0.6 0.4 1 0.8 1 1.3 0 0.4-0.4 0.9-1 1.3-1.2 0.7-3.2 0.7-4.4 0-0.6-0.4-0.9-0.9-0.9-1.3 0-0.5 0.3-0.9 0.9-1.3 1.2-0.7 3.2-0.7 4.4 0z"/>
						</g>
					</g>
					<g id="&lt;Group&gt;">
						<g id="&lt;Group&gt;">
							<path id="&lt;Path&gt;" class="s12" d="m707.7 446.4c0-2.1 1.4-4.1 4.1-5.7 5.5-3.2 14.3-3.2 19.8 0 2.7 1.6 4.1 3.6 4.1 5.7 0 1.3 0 2.1 0 3.4 0 2.1-1.4 4.1-4.1 5.7-5.5 3.2-14.3 3.2-19.8 0-2.7-1.6-4.1-3.6-4.1-5.7 0-1.3 0-2.1 0-3.4z"/>
							<path id="&lt;Path&gt;" class="s28" d="m731.6 440.7c2.7 1.6 4.1 3.6 4.1 5.7 0 2.1-1.4 4.1-4.1 5.7-5.5 3.2-14.3 3.2-19.8 0-2.7-1.6-4.1-3.6-4.1-5.7 0-2.1 1.4-4.1 4.1-5.7 5.5-3.2 14.3-3.2 19.8 0z"/>
							<path id="&lt;Path&gt;" class="s12" d="m710.2 446.4q0 0.9 0.5 1.7c0.5 1 1.5 1.9 2.9 2.6 4.5 2.4 11.7 2.4 16.2 0 1.4-0.7 2.4-1.6 2.9-2.6q0.5-0.8 0.5-1.7c0-1.6-1.1-3.1-3.4-4.3-4.5-2.4-11.7-2.4-16.2 0-2.3 1.2-3.4 2.7-3.4 4.3z"/>
						</g>
						<path id="&lt;Path&gt;" class="s19" d="m710.9 448.4c0.5 0.9 1.4 1.7 2.7 2.3 4.5 2.4 11.7 2.4 16.2 0 1.3-0.6 2.2-1.4 2.7-2.3 0-2.2-0.8-4.3-2-6-2-2.7-5.2-4.4-8.8-4.4-3.6 0-6.8 1.7-8.7 4.4-1.3 1.7-2 3.8-2.1 6z"/>
						<path id="&lt;Path&gt;" class="s28" d="m724.1 439.6c0.7 0.4 1 0.9 1 1.4 0 0.6-0.3 1.1-1 1.4-1.3 0.8-3.5 0.8-4.8 0-0.7-0.3-1-0.8-1-1.4 0-0.5 0.3-1 1-1.4 1.3-0.7 3.5-0.7 4.8 0z"/>
						<g id="&lt;Group&gt;">
							<g id="&lt;Group&gt;">
								<path id="&lt;Path&gt;" class="s12" d="m720 433.5v9.3c1 0.3 2.4 0.3 3.5 0v-9.3c0-0.2-0.2-0.5-0.6-0.7-0.6-0.4-1.7-0.4-2.4 0-0.4 0.2-0.5 0.5-0.5 0.7z"/>
								<path id="&lt;Path&gt;" class="s28" d="m722.9 432.8q0.5 0.3 0.5 0.7 0 0.4-0.5 0.7c-0.6 0.4-1.7 0.4-2.4 0q-0.5-0.3-0.5-0.7 0-0.4 0.5-0.7c0.7-0.4 1.8-0.4 2.4 0z"/>
							</g>
							<g id="&lt;Group&gt;">
								<path id="&lt;Path&gt;" class="s4" d="m712.5 430.9c0 3.3 4.1 6 9.2 6 5.1 0 9.2-2.7 9.2-6 0-3.3-4.1-6-9.2-6-5.1 0-9.2 2.7-9.2 6z"/>
								<path id="&lt;Path&gt;" class="s6" d="m715.8 426.6c-3.2 1.8-3.2 4.9 0 6.8 3.3 1.8 8.5 1.8 11.8 0 3.3-1.9 3.3-5 0-6.8-3.3-1.9-8.5-1.9-11.8 0z"/>
							</g>
						</g>
					</g>
					<g id="&lt;Group&gt;">
						<path id="&lt;Path&gt;" class="s4" d="m655.5 440.7c0 0.9-0.3 1.5-0.8 1.8q-0.1 0-0.1 0l-46.2 24.3c-0.8 0.4-1.8 0.1-2.3-0.7-0.4-0.8-0.2-1.8 0.6-2.3l44.1-27.9q0.1 0 0.1 0c0.5-0.3 1.1-0.2 1.9 0.2 1.5 0.8 2.7 2.9 2.7 4.6z"/>
					</g>
					<g id="&lt;Group&gt;">
						<path id="&lt;Path&gt;" class="s4" d="m687.5 459.6c0 0.9-0.3 1.5-0.8 1.7q0 0 0 0v0.1l-46.3 24.2c-0.8 0.4-1.7 0.2-2.2-0.6-0.5-0.8-0.2-1.8 0.6-2.3l44.1-27.9q0 0 0 0c0.5-0.3 1.2-0.3 1.9 0.2 1.5 0.8 2.7 2.9 2.7 4.6z"/>
					</g>
					<path id="&lt;Path&gt;" class="s29" d="m684.8 455c-0.7-0.5-1.4-0.5-1.9-0.2q0 0 0 0l-44.1 27.9q-0.3 0.2-0.5 0.4c0.6 1 1.8 1.3 2.8 0.7l46-26.2c-0.5-1.1-1.3-2.1-2.3-2.6z"/>
					<path id="&lt;Path&gt;" class="s29" d="m652.8 436.1c-0.8-0.4-1.4-0.5-1.9-0.2q-0.1 0-0.1 0l-44.1 27.9q-0.3 0.2-0.5 0.5c0.6 0.9 1.9 1.2 2.8 0.6l46-26.2c-0.5-1.1-1.3-2.1-2.2-2.6z"/>
				</g>
				<g id="Arm 00000178895139359616183730000006694464288059973767 ">
					<path id="&lt;Path&gt;" class="s21" d="m854.2 306.9c0 0-7 8.4-15.5 40.7-5.3 20-15.3 62.9-15.3 62.9 0 0-32.7 29.8-54.3 35.9-2.4 0.7-5.1-0.7-6.9-2.1-2.2-1.7-5.3-2.3-7.9-3.1-6.3-1.9-12.3-4.7-17.9-8.1-0.6-0.4-1.3-0.9-2.1-0.7-0.3 0.1-0.6 0.4-0.9 0.6-3.6 3.6-0.3 9.2 2.6 11.9q2.7 2.5 5.5 4.6c0.8 0.6 1.6 1.2 2 2.1 1.6 3.1-6.2 5-8.3 5.5-7.6 1.7-15.4 0.8-23.1-0.4-3.5-0.6-7.3-1.2-10.8-0.1-1.4 0.4-2.9 1.3-3 2.8 0 1.3 1 2.3 2 3 3.9 2.7 8.8 3.6 13.3 5 1.2 0.4 2.5 0.9 3.1 2 0.7 1.1 0.5 2.4 0.9 3.6 0.4 1.5 1.6 2.7 3 3.4 0.6 0.3 1.4 0.6 2 1 0.7 0.5 1.3 1.2 1.8 1.8 10.4 11.4 28.1 7.8 41.3 4.7 29.8-7 57.2-18.4 78.3-31.7 15.5-9.7 18.5-11.8 23.3-27 0 0 15.5-48.9 17-67.4 2.3-28.6-7-43.8-30.1-50.9z"/>
					<path id="&lt;Path&gt;" class="s8" d="m852.1 304.4c17.8 4.1 25.7 9.5 31.8 24.5 6.4 15.9-4.1 60.7-4.1 60.7 0 0-7.1 4.4-27.3 0-21.2-4.6-22.5-11.1-22.5-11.1 0 0 4.1-23.6 7.4-38.9 3.8-18 6.6-26.4 14.7-35.2z"/>
				</g>
				<path id="&lt;Path&gt;" class="s21" d="m617.8 420.8c0.2-0.7 0.5-1.3 0.6-2 0-0.9-0.4-1.8-0.5-2.7-0.2-1.5 0.6-2.9 1.4-4.2 0.7-1.2 1.8-2.2 3.2-2.6 0.7-0.3 2.1-0.3 2.6 0.5-0.1 0.9-0.2 1.9-0.2 2.6 0 2 0.8 3.9 2 5.6 1.4 1.9 3.2 3.5 4.7 5.3 0.9 1.1 1.6 2.3 1.8 3.7 0.1 0.9 0 1.8-0.6 2.4-0.8 0.9-2.3 0.7-3.4 0.2q0.8 1.5 1.1 3.1c0.2 0.6 0.2 1.2 0 1.8-0.4 0.8-1.4 1.2-2.3 1.2-1.4-0.1-2.7-1.2-3.8-2.1q-1.8-1.3-3.4-3c-1.1-1.1-2.2-2.5-2.3-4.2 0-0.7 0.2-1.5 0-2.2-0.2-0.9-0.9-1.6-1-2.5q0-0.5 0.1-0.9z"/>
			</g>
		</g>
	</g>
	<g id="Robot">
		<g id="Robot">
			<g id="&lt;Group&gt;">
				<g id="&lt;Group&gt;">
					<g id="&lt;Group&gt;">
						<path id="&lt;Path&gt;" class="s8" d="m517 675.2c-4.8 30.8 14 63.8 42 73.5 28 9.8 54.5-7.3 59.3-38.2 4.8-30.8-14-63.7-42-73.5-27.9-9.8-54.5 7.3-59.3 38.2z"/>
						<g id="&lt;Group&gt;">
							<path id="&lt;Path&gt;" class="s4" d="m556.7 747.8q1.1 0.5 2.3 0.9c6 2.1 11.9 3 17.5 2.7-25.4-7.7-23.2-45.5-19.6-53.3-10.5 18.9-3.2 42-0.2 49.7z"/>
							<path id="&lt;Path&gt;" class="s30" d="m556.7 747.8q1.1 0.5 2.3 0.9c6 2.1 11.9 3 17.5 2.7-25.4-7.7-23.2-45.5-19.6-53.3-10.5 18.9-3.2 42-0.2 49.7z"/>
							<path id="&lt;Path&gt;" class="s4" d="m603.9 715.5c7.3-0.6 11.7-2.7 14.4-4.7q0-0.1 0-0.3 0.8-5.3 0.7-10.7c-2.4 2.5-6.4 5.2-13.1 7.7-18.6 7-40.2-4.2-48.5-10.3 13 11.3 23.6 20.3 46.5 18.3z"/>
							<path id="&lt;Path&gt;" class="s30" d="m603.9 715.5c7.3-0.6 11.7-2.7 14.4-4.7q0-0.1 0-0.3 0.8-5.3 0.7-10.7c-2.4 2.5-6.4 5.2-13.1 7.7-18.6 7-40.2-4.2-48.5-10.3 13 11.3 23.6 20.3 46.5 18.3z"/>
							<path id="&lt;Path&gt;" class="s4" d="m557.4 697.2q-0.3 0.4-0.5 0.9 0.2-0.4 0.5-0.9z"/>
							<path id="&lt;Path&gt;" class="s4" d="m607 661.6q-3-4.4-6.5-8.3c-22.7-4.6-38.8 18.8-43.1 43.9 13.1-38 40.9-41.3 49.6-35.6z"/>
							<path id="&lt;Path&gt;" class="s30" d="m607 661.6q-3-4.4-6.5-8.3c-22.7-4.6-38.8 18.8-43.1 43.9 13.1-38 40.9-41.3 49.6-35.6z"/>
							<path id="&lt;Path&gt;" class="s4" d="m516.3 687.1q0.2 4.7 1 9.3c8.8 5.3 23.7 6.1 40.1 0.8-22.9 0.9-35.3-5.5-41.1-10.1z"/>
							<path id="&lt;Path&gt;" class="s30" d="m516.3 687.1q0.2 4.7 1 9.3c8.8 5.3 23.7 6.1 40.1 0.8-22.9 0.9-35.3-5.5-41.1-10.1z"/>
							<path id="&lt;Path&gt;" class="s4" d="m548.1 636.1c-4.1 1.3-8 3.2-11.6 5.8-3.3 25.1 3.8 42.6 20.9 55.3-19-23.9-12.8-50.7-9.3-61.1z"/>
							<path id="&lt;Path&gt;" class="s30" d="m548.1 636.1c-4.1 1.3-8 3.2-11.6 5.8-3.3 25.1 3.8 42.6 20.9 55.3-19-23.9-12.8-50.7-9.3-61.1z"/>
						</g>
						<path id="&lt;Path&gt;" class="s12" d="m542.2 691.9c-1.5 9.3 4.2 19.2 12.6 22.1 8.3 2.9 16.3-2.2 17.8-11.5 1.4-9.2-4.2-19.1-12.6-22-8.4-2.9-16.4 2.2-17.8 11.4z"/>
						<path id="&lt;Path&gt;" class="s14" d="m560 680.5c-2.4-0.8-4.8-1-6.9-0.6-2.9 2.1-5 5.5-5.7 9.8-1.5 9.3 4.2 19.1 12.6 22.1 2.4 0.8 4.7 1 6.9 0.6 2.9-2.1 5-5.5 5.7-9.9 1.4-9.2-4.2-19.1-12.6-22z"/>
					</g>
					<path id="&lt;Path&gt;" class="s31" d="m583.9 745.9c-14.2 1.6-37.5-5.4-47.1-29.4-9.6-24 0.1-36.8 7.1-41.5 7.1-4.8 7.9-13.6 7.2-24.6-0.8-10.9 13.7-16.7 25.2-13.4q0 0 0 0c-27.9-9.8-54.5 7.3-59.3 38.2-4.8 30.8 14 63.8 42 73.5 22.5 7.9 44.1-1.7 54.2-21.8-5.4 10.5-15.2 17.4-29.3 19z"/>
					<path id="&lt;Compound Path&gt;" class="s32" d="m611.6 695.3c2.4-0.7 2.4-4.1 2.3-6q-0.2-3.2-0.9-6.3c-1.8-9.1-5.9-17.7-11.9-24.8-5.4-6.3-12.4-13.5-21.4-12.5-2.5 0.2-5.3 1.5-5.8 3.9-0.5 2.4 1.4 4.6 3.2 6.2 2.7 2.5 5.5 4.9 8.1 7.4 8.6 8.3 15.5 18.3 21.3 28.5 0.9 1.7 2.8 4.2 5.1 3.6zm3.4 6.2c-1-2.5-3.7-2.3-4.7 0.1q-0.6 1.5-0.8 3.2c-0.1 1.3 0.2 3.1 1.4 3.8 0.5 0.3 1.1 0.4 1.7 0.3 2.1-0.3 2.8-2.2 2.8-4 0.1-1.2 0.1-2.4-0.4-3.4z"/>
				</g>
			</g>
			<g id="&lt;Group&gt;">
				<path id="&lt;Path&gt;" class="s4" d="m514.4 632.1l-87.8 50.7 60.4 34.6 87.8-50.6z"/>
				<path id="&lt;Path&gt;" class="s29" d="m514.4 632.1l-87.8 50.7 60.4 34.6 87.8-50.6z"/>
				<path id="&lt;Path&gt;" class="s4" d="m574.8 666.8v45.2l-87.8 50.6v-45.2z"/>
				<path id="&lt;Path&gt;" class="s4" d="m426.6 682.8v45.2l60.4 34.6v-45.2z"/>
				<path id="&lt;Path&gt;" class="s31" d="m426.6 682.8v45.2l60.4 34.6v-45.2z"/>
				<g id="&lt;Group&gt;">
					<path id="&lt;Path&gt;" class="s8" d="m565.4 628.1v39.6l-76.8 44.2v-39.5z"/>
					<path id="&lt;Path&gt;" class="s8" d="m435.8 642.1v39.5l52.8 30.3v-39.5z"/>
				</g>
			</g>
			<g id="&lt;Group&gt;">
				<g id="&lt;Group&gt;">
					<g id="&lt;Group&gt;">
						<path id="&lt;Path&gt;" class="s4" d="m716.4 651.3l1.9-35.9-1.6-11.5-47.9-6.7-24.1 32.8 1.6 11.6 27.9 21 7.8-8.9-1.7-11.5-11.2-8.6 9.1-11.8 25 3.4-0.4 13.5 1.7 11.6z"/>
						<path id="&lt;Path&gt;" class="s29" d="m716.4 651.3l1.9-35.9-1.6-11.5-47.9-6.7-24.1 32.8 1.6 11.6 27.9 21 7.8-8.9-1.7-11.5-11.2-8.6 9.1-11.8 25 3.4-0.4 13.5 1.7 11.6z"/>
						<path id="&lt;Path&gt;" class="s4" d="m702.8 638.7l1.7 11.6 0.6-24.8-1.9-0.3z"/>
						<path id="&lt;Path&gt;" class="s33" d="m702.8 638.7l1.7 11.6 0.6-24.8-1.9-0.3z"/>
						<path id="&lt;Path&gt;" class="s4" d="m646.3 641.6l24.1-32.9-1.6-11.5-24.1 32.8z"/>
						<path id="&lt;Path&gt;" class="s33" d="m646.3 641.6l24.1-32.9-1.6-11.5-24.1 32.8z"/>
						<path id="&lt;Path&gt;" class="s4" d="m718.3 615.4l-47.9-6.7-24.1 32.9 27.9 21 7.8-8.9-17.9-13.6 14.1-18.3 26.9 3.7-0.6 24.8 11.9 1z"/>
						<path id="&lt;Path&gt;" class="s4" d="m664.1 640.1l17.9 13.6-1.7-11.5-11.2-8.6z"/>
						<path id="&lt;Path&gt;" class="s33" d="m664.1 640.1l17.9 13.6-1.7-11.5-11.2-8.6z"/>
					</g>
					<g id="&lt;Group&gt;">
						<path id="&lt;Path&gt;" class="s10" d=""/>
						<path id="&lt;Path&gt;" class="s33" d=""/>
					</g>
					<g id="&lt;Group&gt;">
						<g id="&lt;Group&gt;">
							<path id="&lt;Path&gt;" class="s10" d=""/>
							<path id="&lt;Path&gt;" class="s33" d=""/>
						</g>
						<path id="&lt;Path&gt;" class="s10" d=""/>
						<path id="&lt;Path&gt;" class="s29" d=""/>
					</g>
					<g id="&lt;Group&gt;">
						<path id="&lt;Path&gt;" class="s8" d="m652.1 589c-0.6-1.4-0.2-3.1 1.3-4.9 2.8-3.5 8.8-5.8 13.2-5.1 2.3 0.4 3.7 1.4 4.2 2.8 0.4 0.8 7.4 19.2 7.7 20 0.6 1.4 0.2 3.1-1.2 4.9-2.9 3.5-8.8 5.8-13.3 5.1-2.3-0.4-3.7-1.4-4.2-2.8-0.4-0.8-7.4-19.1-7.7-20z"/>
						<path id="&lt;Path&gt;" class="s11" d="m666.6 579c2.3 0.4 3.7 1.4 4.2 2.8 0.6 1.4 0.2 3.1-1.2 4.9-2.9 3.5-8.8 5.8-13.3 5.1-2.2-0.4-3.7-1.4-4.2-2.8-0.6-1.4-0.2-3.1 1.3-4.9 2.8-3.5 8.8-5.8 13.2-5.1z"/>
					</g>
					<g id="&lt;Group&gt;">
						<path id="&lt;Path&gt;" class="s8" d="m664.6 581.7q-0.1-0.4-0.3-0.7c-13.1-25.7-35.3-40.2-59.6-38.6-2.7 0.2-4.8 2.5-4.6 5.2 0.2 2.8 2.5 4.8 5.3 4.6 20.1-1.2 38.9 11.2 50.1 33.2 1.3 2.5 4.2 3.4 6.7 2.2 2.2-1.1 3.2-3.6 2.4-5.9z"/>
					</g>
				</g>
				<g id="&lt;Group&gt;">
					<g id="&lt;Group&gt;">
						<g id="&lt;Group&gt;">
							<path id="Sphere 1/2 00000158732490982549466810000002510744184361464456 " class="s4" d="m601.4 576.3c-3 2-7.4 1.9-12.4-0.6-9.9-5.1-18.4-18.3-19-29.4-0.3-5.6 1.5-9.6 4.6-11.6 11.5-7.4 26.8-4.1 34.2 7.4 7.4 11.4 4.1 26.8-7.4 34.2z"/>
							<path id="&lt;Path&gt;" class="s3" d="m589 575.7q2.9 1.4 5.4 1.8c-7.3-2.1-19.6-15.4-17.8-29.6 1.7-14.1 16.6-18.4 25-13.1-7.9-5.2-18.5-5.6-27-0.1-3.1 2-4.9 6-4.6 11.6 0.6 11.1 9.1 24.3 19 29.4z"/>
							<path id="&lt;Path&gt;" class="s34" d="m583.9 591.6c-16.1 4.3-32.7-5.3-37-21.4-4.2-16.1 5.4-32.7 21.5-37 16.1-4.3 32.7 5.3 36.9 21.5 4.3 16.1-5.3 32.6-21.4 36.9z"/>
							<g id="&lt;Group&gt;">
								<path id="&lt;Compound Path&gt;" fill-rule="evenodd" class="s2" d="m605.3 554.7c4.3 16.1-5.3 32.6-21.4 36.9-4.9 1.3-9.8 1.3-14.4 0.3-10.6-2.4-19.6-10.5-22.6-21.7-4.3-16.1 5.4-32.7 21.5-37 4.9-1.3 9.8-1.3 14.4-0.3q0 0 0 0l-0.2 0.9c-4.6-1-9.4-0.9-14 0.3-7.5 2-13.9 6.9-17.8 13.6-3.9 6.8-5 14.7-3 22.2 2.8 10.6 11.2 18.7 21.9 21.1 4.6 1 9.4 0.9 14-0.3 15.6-4.1 24.9-20.2 20.7-35.8-2.8-10.6-11.1-18.6-21.8-21.1l0.2-0.9c10.6 2.4 19.6 10.5 22.5 21.8z"/>
							</g>
						</g>
						<path id="&lt;Path&gt;" class="s2" d="m580.9 579.2c-9.5 1.9-29.7 3.7-32.7-21.1-0.2 0-1 1-2.2 2.5-0.2 3.2 0.1 6.4 0.9 9.6 4.3 16.1 20.9 25.7 37 21.4 3.3-0.8 6.3-2.2 9-4 0.5-4.7-2.7-10.1-12-8.4z"/>
					</g>
				</g>
			</g>
			<g id="&lt;Group&gt;">
				<path id="&lt;Path&gt;" class="s4" d="m500.5 506.5l-87.9 50.7 87.9 50.8 88-50.8z"/>
				<path id="&lt;Path&gt;" class="s29" d="m500.5 506.5l-87.9 50.7 87.9 50.8 88-50.8z"/>
				<path id="&lt;Path&gt;" class="s4" d="m588.5 557.2l-13.7 93.6-87.9 50.8 13.6-93.6z"/>
				<path id="&lt;Path&gt;" class="s4" d="m412.6 557.2l14 109.6 60.3 34.8 13.6-93.6z"/>
				<path id="&lt;Path&gt;" class="s31" d="m412.6 557.2l14 109.6 60.3 34.8 13.6-93.6z"/>
			</g>
			<g id="&lt;Group&gt;">
				<g id="&lt;Group&gt;">
					<g id="&lt;Group&gt;">
						<path id="&lt;Path&gt;" class="s4" d="m345.6 725.1l23.6-27.1 5.8-10.1-33.6-34.8-39.2 11.1-5.8 10.1 9 33.8 11.6-2.3 5.8-10.1-3.6-13.7 14.4-3.7 17.7 18.1-8.6 10.4-5.8 10.1z"/>
						<path id="&lt;Path&gt;" class="s33" d="m345.6 725.1l23.6-27.1 5.8-10.1-33.6-34.8-39.2 11.1-5.8 10.1 9 33.8 11.6-2.3 5.8-10.1-3.6-13.7 14.4-3.7 17.7 18.1-8.6 10.4-5.8 10.1z"/>
						<path id="&lt;Path&gt;" class="s4" d="m342.7 706.8l-5.8 10.1 15.7-19.1-1.3-1.4z"/>
						<path id="&lt;Path&gt;" class="s33" d="m342.7 706.8l-5.8 10.1 15.7-19.1-1.3-1.4z"/>
						<path id="&lt;Path&gt;" class="s4" d="m296.4 674.3l39.1-11.1 5.9-10.1-39.2 11.1z"/>
						<path id="&lt;Path&gt;" class="s29" d="m296.4 674.3l39.1-11.1 5.9-10.1-39.2 11.1z"/>
						<path id="&lt;Path&gt;" class="s4" d="m369.2 698l-33.7-34.8-39.1 11.1 9 33.8 11.6-2.3-5.7-21.7 22.3-5.8 19 19.5-15.7 19.1 8.7 8.2z"/>
						<path id="&lt;Path&gt;" class="s4" d="m311.3 684.1l5.7 21.7 5.8-10.1-3.6-13.7z"/>
						<path id="&lt;Path&gt;" class="s33" d="m311.3 684.1l5.7 21.7 5.8-10.1-3.6-13.7z"/>
					</g>
					<g id="&lt;Group&gt;">
						<path id="&lt;Path&gt;" class="s10" d=""/>
						<path id="&lt;Path&gt;" class="s33" d=""/>
					</g>
					<g id="&lt;Group&gt;">
						<g id="&lt;Group&gt;">
							<path id="&lt;Path&gt;" class="s10" d=""/>
							<path id="&lt;Path&gt;" class="s33" d=""/>
						</g>
					</g>
					<g id="&lt;Group&gt;">
						<path id="&lt;Path&gt;" class="s12" d="m333.3 636.4c0.4-1.4 1.8-2.5 4-3.1 4.4-1 10.5 0.9 13.6 4.2 1.5 1.7 2 3.4 1.6 4.8-0.3 0.8-6 19.6-6.3 20.5-0.4 1.4-1.8 2.5-4 3.1-4.4 1-10.5-0.9-13.6-4.2-1.5-1.7-2-3.4-1.6-4.8 0.3-0.8 6-19.6 6.3-20.5z"/>
						<path id="&lt;Path&gt;" class="s28" d="m350.9 637.5c1.5 1.7 2 3.4 1.6 4.8-0.4 1.4-1.8 2.5-4 3-4.4 1.1-10.5-0.8-13.6-4.1-1.6-1.7-2.1-3.4-1.6-4.8 0.4-1.4 1.8-2.5 4-3.1 4.4-1 10.5 0.9 13.6 4.2z"/>
					</g>
				</g>
				<g id="&lt;Group&gt;">
					<path id="&lt;Path&gt;" class="s15" d="m423.8 553.9c17.1 1.3 29.9 16.2 28.6 33.3-1.3 17.1-16.2 29.9-33.3 28.6-17.1-1.3-29.9-16.2-28.6-33.3 1.3-17.1 16.2-29.9 33.3-28.6z"/>
					<g id="&lt;Group&gt;">
						<path id="&lt;Compound Path&gt;" fill-rule="evenodd" class="s2" d="m423.8 553.9c17.1 1.3 29.9 16.2 28.6 33.3-1.3 17.1-16.2 29.9-33.3 28.6-17.1-1.3-29.9-16.2-28.6-33.3 1.3-17.1 16.2-29.9 33.3-28.6zm-4.7 61c16.6 1.2 31.1-11.2 32.3-27.7 1.3-16.6-11.1-31.1-27.7-32.3-16.5-1.3-31 11.1-32.3 27.7-1.2 16.5 11.2 31 27.7 32.3z"/>
					</g>
					<path id="Sphere 1/2" class="s4" d="m404.2 563.2c3.7-0.9 7.9 0.6 11.9 4.8 7.9 8.2 11.7 23.9 8.5 34.9-1.7 5.5-4.7 8.8-8.4 9.7-13.6 3.3-27.4-5.1-30.7-18.7-3.3-13.7 5.1-27.4 18.7-30.7z"/>
					<path id="&lt;Path&gt;" class="s3" d="m416.1 568q-2.3-2.4-4.6-3.6c6.4 4.5 13.8 21.5 7.3 34.7-6.6 13.1-22.4 12.3-28.8 4.2 5.9 7.8 16.1 11.7 26.2 9.3 3.7-0.9 6.7-4.2 8.4-9.7 3.2-11-0.6-26.7-8.5-34.9z"/>
					<g id="&lt;Group&gt;">
						<path id="&lt;Path&gt;" class="s10" d="m392 583.9c0.9 0.2 1.7 0.7 2.6 1.5 2.6 2.7 3.9 7.8 3 11.4-0.3 1.1-0.9 2-1.5 2.5-1.4 1.2-3.3 1-5.1-0.8-2.6-2.7-4-7.7-3-11.3 0.7-2.5 2.3-3.6 4-3.3z"/>
						<path id="&lt;Path&gt;" class="s33" d="m392 583.9c0.9 0.2 1.7 0.7 2.6 1.5 2.6 2.7 3.9 7.8 3 11.4-0.3 1.1-0.9 2-1.5 2.5-1.4 1.2-3.3 1-5.1-0.8-2.6-2.7-4-7.7-3-11.3 0.7-2.5 2.3-3.6 4-3.3z"/>
						<path id="&lt;Path&gt;" class="s14" d="m392 583.9c0.9 0.2 1.7 0.7 2.6 1.5 2.6 2.7 3.9 7.8 3 11.4-0.3 1.1-0.9 2-1.5 2.5-0.8-0.1-1.7-0.6-2.5-1.5-2.7-2.6-4-7.7-3-11.3 0.3-1.2 0.8-2 1.4-2.6z"/>
					</g>
					<path id="&lt;Path&gt;" class="s34" d="m447.5 585.5c-7 9.7-15.6 8.3-19.4 18.1-2 5.1 0.4 8.5 3.2 10.7 11.5-3.9 20.1-14.3 21.1-27.1 0.4-4.9-0.5-9.7-2.2-14 0.2 3.3 0.1 8.3-2.7 12.3z"/>
				</g>
				<g id="&lt;Group&gt;">
					<path id="&lt;Path&gt;" class="s20" d="m338.9 636.6q0.1-0.4 0.2-0.8c8.2-27.7 27.4-45.9 51.5-48.8 2.7-0.4 5.2 1.6 5.5 4.3 0.3 2.7-1.6 5.1-4.3 5.5-20.1 2.4-36.2 18-43.3 41.8-0.7 2.6-3.5 4.1-6.1 3.3-2.3-0.7-3.8-3-3.5-5.3z"/>
				</g>
			</g>
			<g id="&lt;Group&gt;">
				<path id="&lt;Path&gt;" class="s8" d="m506.4 553.3v-41.7h-25.5v41.7c0 1.9 1.2 3.8 3.7 5.2 5 2.9 13.1 2.9 18.1 0 2.5-1.4 3.7-3.3 3.7-5.2z"/>
				<path id="&lt;Path&gt;" class="s35" d="m480.9 545.3c0 1.9 1.2 3.8 3.7 5.2 5 2.9 13.1 2.9 18.1 0 2.5-1.4 3.7-3.3 3.7-5.2"/>
				<path id="&lt;Path&gt;" class="s35" d="m480.9 537.3c0 1.9 1.2 3.8 3.7 5.2 5 2.9 13.1 2.9 18.1 0 2.5-1.4 3.7-3.3 3.7-5.2"/>
				<path id="&lt;Path&gt;" class="s35" d="m480.9 529.3c0 1.9 1.2 3.8 3.7 5.2 5 2.9 13.1 2.9 18.1 0 2.5-1.4 3.7-3.3 3.7-5.2"/>
				<path id="&lt;Path&gt;" class="s3" d="m486.4 511.6h-5.5v19.1 22.6c0 1.9 1.2 3.8 3.7 5.2q0.9 0.5 1.8 0.9v-27.3c6.5 1.4 13.2 2.1 20 1.7v-22.2z"/>
			</g>
			<g id="&lt;Group&gt;">
				<g id="&lt;Group&gt;">
					<path id="&lt;Path&gt;" class="s4" d="m440.8 450.7c0-31.6 25.6-52 57.2-52 31.7 0 57.3 20.4 57.3 52v34.6c0 0-11.4 17.9-57.3 17.9-45.8 0-57.2-17.1-57.2-17.1z"/>
					<path id="&lt;Path&gt;" class="s29" d="m440.8 450.7c0-31.6 25.6-52 57.2-52 31.7 0 57.3 20.4 57.3 52v34.6c0 0-11.4 17.9-57.3 17.9-45.8 0-57.2-17.1-57.2-17.1z"/>
					<path id="&lt;Path&gt;" class="s29" d="m507.2 409.7c-1.4 0.8-2.8 1.8-3.3 3.3-0.4 1.5 0.3 3 1.4 4.1 1.1 1.1 2.5 1.8 3.9 2.4 7.5 3.3 15.3 5.9 23.3 7.8 2 0.4 5.9 1.8 7.4-0.1 1.8-2.2 0.7-6.8-1.6-9.7-4.6-5.8-8.1-7.7-13.6-9.2-5.7-1.7-12.2-1.4-17.5 1.4z"/>
					<path id="&lt;Path&gt;" class="s31" d="m555.3 463.5c0 0-3.2 17.3-25.9 25.8-22.7 8.5-47.3 5.8-62.3 2 0 0 32.2 15.7 65.4 0.6 29.1-13.2 22.8-28.4 22.8-28.4z"/>
					<path id="&lt;Path&gt;" class="s36" d="m517.8 401.6c-6.1-1.9-12.8-2.9-19.8-2.9-31.6 0-57.2 20.4-57.2 52v35.4c0 0 4.7 7 20 12.1-2.4-23-5.4-52.4 3.7-70.3 10.5-20.6 39.6-30.3 53.3-26.3z"/>
				</g>
				<g id="&lt;Group&gt;">
					<path id="&lt;Path&gt;" class="s8" d="m496.3 474.2c-4.7 0-8.5-3.8-8.5-8.5v-3.9c0-4.7 3.8-8.5 8.5-8.5 4.7 0 8.5 3.8 8.5 8.5v3.9c0 4.7-3.8 8.5-8.5 8.5z"/>
					<path id="&lt;Path&gt;" class="s8" d="m539 460.6c-4.1 1.5-6.2-0.4-7-2.5-0.4-1.2-0.9-4.5-0.5-8.4 0.4-4.1 2.4-7.2 6.1-9.2 3.7-1.9 6.6 0.5 7.2 2.8 0.4 1.8 0.6 4.4 0.4 7.7-0.2 3.2-2.3 7.9-6.2 9.6z"/>
				</g>
				<g id="&lt;Group&gt;">
					<path id="&lt;Path&gt;" class="s4" d="m561.2 461.3c-2.3-2.6-5.9-2.9-5.9-2.9v5.1c0 8.5-5.6 16.9-16.8 23.4-19.4 11.2-49.3 12.7-71.4 4.4v-1.8c0-6.7-4.7-14.8-10.5-18.2-5.8-3.3-10.5-0.6-10.5 6.1-3.5-4.4-5.3-9.1-5.3-13.9-1.9 0-4.5 1.1-4.5 8.5 0 9.3-0.5 19.7 8.3 31.2 14.2 18.6 51.6 35 83.8 22.1 34.3-13.7 34.5-39.4 34.5-49.8 0-7.7 0.6-11.6-1.7-14.2z"/>
					<path id="&lt;Path&gt;" class="s29" d="m561.2 461.3c-2.3-2.6-5.9-2.9-5.9-2.9v5.1c0 8.5-5.6 16.9-16.8 23.4-19.4 11.2-49.3 12.7-71.4 4.4v-1.8c0-6.7-4.7-14.8-10.5-18.2-5.8-3.3-10.5-0.6-10.5 6.1-3.5-4.4-5.3-9.1-5.3-13.9-1.9 0-4.5 1.1-4.5 8.5 0 9.3-0.5 19.7 8.3 31.2 14.2 18.6 51.6 35 83.8 22.1 34.3-13.7 34.5-39.4 34.5-49.8 0-7.7 0.6-11.6-1.7-14.2z"/>
					<path id="&lt;Path&gt;" class="s36" d="m508.6 527.3c-37.9-0.6-56.1-20.3-60.9-29.1-4.8-8.9-4.4-18-1.6-16.8v-4c-3.5-4.4-5.3-9.1-5.3-13.9-1.9 0-4.5 1.1-4.5 8.5 0 9.3-0.5 19.7 8.3 31.2 14.2 18.6 51.6 35 83.8 22.1 9.4-3.7 16.2-8.4 21.2-13.4-8.7 6.6-22.7 15.7-41 15.4z"/>
					<path id="&lt;Path&gt;" class="s31" d="m458.2 472.5c3.6 2.7 6.3 8.7 6.3 20.3l2.6-1.5v-1.8c0-6-3.9-13.2-8.9-17z"/>
				</g>
				<g id="&lt;Group&gt;">
					<path id="&lt;Path&gt;" class="s4" d="m555.3 463.5c0 8.5-5.6 16.9-16.8 23.4-19.4 11.2-49.3 12.7-71.4 4.4l-2.6 1.5c0 0 31 17 66 3.2 32.6-12.9 31.9-30.3 30.7-34.7-2.3-2.6-5.9-2.9-5.9-2.9z"/>
					<path id="&lt;Path&gt;" class="s7" d="m555.3 463.5c0 8.5-5.6 16.9-16.8 23.4-19.4 11.2-49.3 12.7-71.4 4.4l-2.6 1.5c0 0 31 17 66 3.2 32.6-12.9 31.9-30.3 30.7-34.7-2.3-2.6-5.9-2.9-5.9-2.9z"/>
				</g>
				<g id="&lt;Group&gt;">
					<path id="&lt;Path&gt;" class="s8" d="m455.1 477.1c2.4 1.4 4.3 4.7 4.3 7.5 0 2.8-1.9 3.9-4.3 2.5-2.4-1.4-4.4-4.7-4.4-7.5 0-2.8 2-3.9 4.4-2.5z"/>
					<path id="&lt;Path&gt;" class="s28" d="m455.1 477.1c-0.8-0.4-1.5-0.6-2.2-0.6-0.4 0.6-0.6 1.3-0.6 2.3 0 2.8 1.9 6.1 4.3 7.5 0.8 0.5 1.5 0.6 2.1 0.6 0.4-0.6 0.7-1.3 0.7-2.3 0-2.8-1.9-6.1-4.3-7.5z"/>
				</g>
				<g id="&lt;Group&gt;">
					<path id="&lt;Path&gt;" class="s10" d="m446.1 477.4c-3.5-4.4-5.3-9.1-5.3-13.9-0.8 0-1.8 0.2-2.6 1-0.7 1.9-0.9 4.7 0.7 8.5 2.4 6 7.2 8.4 7.2 8.4 0 0-0.2-1.1 0-4z"/>
					<path id="&lt;Path&gt;" class="s37" d="m446.1 477.4c-3.5-4.4-5.3-9.1-5.3-13.9-0.8 0-1.8 0.2-2.6 1-0.7 1.9-0.9 4.7 0.7 8.5 2.4 6 7.2 8.4 7.2 8.4 0 0-0.2-1.1 0-4z"/>
				</g>
			</g>
			<g id="&lt;Group&gt;">
				<path id="&lt;Path&gt;" class="s28" d="m491.5 410v-30.7h-7.4v30.7c0 0.5 0.4 1.1 1.1 1.5 1.4 0.8 3.8 0.8 5.3 0 0.7-0.4 1-1 1-1.5z"/>
				<path id="&lt;Path&gt;" class="s3" d="m484.1 384.5q1.7 0.5 3.7 0.5 1.9 0 3.7-0.5v-5.2h-7.4z"/>
				<g id="&lt;Group&gt;">
					<path id="&lt;Path&gt;" class="s4" d="m501.6 367.8c0 7.7-6.2 13.9-13.8 13.9-7.7 0-13.9-6.2-13.9-13.9 0-7.6 6.2-13.9 13.9-13.9 7.6 0 13.8 6.3 13.8 13.9z"/>
					<path id="&lt;Path&gt;" class="s3" d="m487.8 375.1c-10-1.8-13.5-10.7-9.1-17.8-2.9 2.5-4.8 6.3-4.8 10.5 0 7.7 6.2 13.9 13.9 13.9 7.6 0 13.8-6.2 13.8-13.9-0.6 4.4-5 8.8-13.8 7.3z"/>
					<path id="&lt;Path&gt;" class="s30" d="m487.2 363.1c2.2 0.7 4.3 1.6 6.1 2.9 1.2 0.8 3.1 2.1 4.4 0.8 1.2-1 1-3.4 0.5-4.7-0.6-1.7-2.1-3.3-3.6-4.2-2-1.2-4.2-1.7-6.6-1.2-1.4 0.2-3.8 1-4.1 2.6-0.5 1.9 1.8 3.4 3.3 3.8z"/>
				</g>
				<g id="&lt;Group&gt;">
					<g id="&lt;Group&gt;">
						<path id="&lt;Path&gt;" class="s2" d="m487.8 344.2c-0.9 0-1.7-0.7-1.7-1.7v-11.9c0-1 0.8-1.7 1.7-1.7 1 0 1.7 0.7 1.7 1.7v11.9c0 1-0.7 1.7-1.7 1.7z"/>
					</g>
					<g id="&lt;Group&gt;">
						<path id="&lt;Path&gt;" class="s2" d="m500.4 347.7q-0.4 0-0.8-0.3c-0.8-0.4-1.1-1.5-0.6-2.3l5.9-10.4c0.5-0.8 1.6-1 2.4-0.6 0.8 0.5 1.1 1.5 0.6 2.4l-6 10.3c-0.3 0.6-0.9 0.9-1.5 0.9z"/>
					</g>
					<g id="&lt;Group&gt;">
						<path id="&lt;Path&gt;" class="s2" d="m509.7 356.9c-0.6 0-1.2-0.3-1.5-0.8-0.5-0.8-0.2-1.9 0.6-2.3l10.4-6c0.8-0.5 1.8-0.2 2.3 0.6 0.5 0.8 0.2 1.9-0.6 2.3l-10.4 6q-0.4 0.2-0.8 0.2z"/>
					</g>
					<g id="&lt;Group&gt;">
						<path id="&lt;Path&gt;" class="s2" d="m525 369.6h-12c-0.9 0-1.7-0.8-1.7-1.7 0-1 0.8-1.7 1.7-1.7h12c0.9 0 1.7 0.7 1.7 1.7 0 0.9-0.8 1.7-1.7 1.7z"/>
					</g>
					<g id="&lt;Group&gt;">
						<path id="&lt;Path&gt;" class="s2" d="m520 388.2q-0.5 0-0.9-0.2l-10.3-6c-0.9-0.5-1.1-1.5-0.7-2.4 0.5-0.8 1.5-1 2.4-0.6l10.3 6c0.8 0.5 1.1 1.5 0.6 2.3-0.3 0.6-0.8 0.9-1.4 0.9z"/>
					</g>
					<g id="&lt;Group&gt;">
						<path id="&lt;Path&gt;" class="s2" d="m455.5 388.1c-0.6 0-1.2-0.3-1.5-0.9-0.5-0.8-0.2-1.8 0.6-2.3l10.4-6c0.8-0.5 1.8-0.2 2.3 0.6 0.5 0.9 0.2 1.9-0.6 2.4l-10.4 5.9q-0.4 0.3-0.8 0.3z"/>
					</g>
					<g id="&lt;Group&gt;">
						<path id="&lt;Path&gt;" class="s2" d="m462.5 369.5h-12c-0.9 0-1.7-0.8-1.7-1.8 0-0.9 0.8-1.7 1.7-1.7h12c0.9 0 1.7 0.8 1.7 1.7 0 1-0.8 1.8-1.7 1.8z"/>
					</g>
					<g id="&lt;Group&gt;">
						<path id="&lt;Path&gt;" class="s2" d="m465.9 356.8q-0.4 0-0.9-0.2l-10.3-6c-0.8-0.5-1.1-1.5-0.6-2.3 0.4-0.8 1.5-1.1 2.3-0.6l10.4 5.9c0.8 0.5 1 1.6 0.6 2.4-0.3 0.5-0.9 0.8-1.5 0.8z"/>
					</g>
					<g id="&lt;Group&gt;">
						<path id="&lt;Path&gt;" class="s2" d="m475.2 347.6c-0.6 0-1.2-0.3-1.5-0.9l-6-10.3c-0.5-0.8-0.2-1.9 0.6-2.3 0.9-0.5 1.9-0.2 2.4 0.6l5.9 10.3c0.5 0.9 0.2 1.9-0.6 2.4q-0.4 0.2-0.8 0.2z"/>
					</g>
				</g>
			</g>
			<g id="&lt;Group&gt;">
				<g id="&lt;Group&gt;">
					<g id="&lt;Group&gt;">
						<path id="&lt;Path&gt;" class="s8" d="m391.2 747.7c-4.8 30.9 14 63.8 42 73.6 28 9.7 54.5-7.4 59.3-38.2 4.8-30.9-14-63.8-42-73.6-27.9-9.7-54.5 7.4-59.3 38.2z"/>
						<g id="&lt;Group&gt;">
							<path id="&lt;Path&gt;" class="s4" d="m430.9 820.4q1.1 0.5 2.3 0.9c6 2.1 11.9 2.9 17.5 2.7-25.4-7.8-23.2-45.5-19.6-53.3-10.5 18.9-3.2 42-0.2 49.7z"/>
							<path id="&lt;Path&gt;" class="s30" d="m430.9 820.4q1.1 0.5 2.3 0.9c6 2.1 11.9 2.9 17.5 2.7-25.4-7.8-23.2-45.5-19.6-53.3-10.5 18.9-3.2 42-0.2 49.7z"/>
							<path id="&lt;Path&gt;" class="s4" d="m478.1 788c7.3-0.6 11.7-2.6 14.4-4.6q0-0.2 0-0.3 0.9-5.4 0.8-10.7c-2.5 2.4-6.5 5.1-13.2 7.6-18.6 7-40.2-4.1-48.5-10.2 13.1 11.2 23.6 20.2 46.5 18.2z"/>
							<path id="&lt;Path&gt;" class="s30" d="m478.1 788c7.3-0.6 11.7-2.6 14.4-4.6q0-0.2 0-0.3 0.9-5.4 0.8-10.7c-2.5 2.4-6.5 5.1-13.2 7.6-18.6 7-40.2-4.1-48.5-10.2 13.1 11.2 23.6 20.2 46.5 18.2z"/>
							<path id="&lt;Path&gt;" class="s4" d="m431.6 769.8q-0.3 0.3-0.5 0.9 0.2-0.5 0.5-0.9z"/>
							<path id="&lt;Path&gt;" class="s4" d="m481.2 734.2q-2.9-4.4-6.5-8.3c-22.7-4.7-38.8 18.8-43.1 43.9 13.1-38.1 41-41.4 49.6-35.6z"/>
							<path id="&lt;Path&gt;" class="s30" d="m481.2 734.2q-2.9-4.4-6.5-8.3c-22.7-4.7-38.8 18.8-43.1 43.9 13.1-38.1 41-41.4 49.6-35.6z"/>
							<path id="&lt;Path&gt;" class="s4" d="m390.5 759.7q0.2 4.7 1 9.3c8.8 5.3 23.7 6.1 40.1 0.8-22.9 0.8-35.3-5.5-41.1-10.1z"/>
							<path id="&lt;Path&gt;" class="s30" d="m390.5 759.7q0.2 4.7 1 9.3c8.8 5.3 23.7 6.1 40.1 0.8-22.9 0.8-35.3-5.5-41.1-10.1z"/>
							<path id="&lt;Path&gt;" class="s4" d="m422.4 708.7c-4.2 1.3-8.1 3.2-11.7 5.7-3.3 25.2 3.8 42.7 20.9 55.4-19-23.9-12.8-50.7-9.2-61.1z"/>
							<path id="&lt;Path&gt;" class="s30" d="m422.4 708.7c-4.2 1.3-8.1 3.2-11.7 5.7-3.3 25.2 3.8 42.7 20.9 55.4-19-23.9-12.8-50.7-9.2-61.1z"/>
						</g>
						<path id="&lt;Path&gt;" class="s12" d="m416.4 764.5c-1.5 9.2 4.2 19.1 12.6 22 8.4 3 16.3-2.2 17.8-11.4 1.4-9.3-4.2-19.1-12.6-22.1-8.4-2.9-16.4 2.2-17.8 11.5z"/>
						<path id="&lt;Path&gt;" class="s14" d="m434.2 753c-2.4-0.8-4.8-1-6.9-0.6-2.9 2.1-5 5.5-5.7 9.9-1.4 9.2 4.2 19.1 12.6 22 2.4 0.8 4.7 1 6.9 0.6 2.9-2.1 5-5.5 5.7-9.8 1.4-9.3-4.2-19.1-12.6-22.1z"/>
					</g>
					<path id="&lt;Path&gt;" class="s31" d="m458.1 818.5c-14.2 1.5-37.5-5.4-47.1-29.5-9.5-24 0.1-36.7 7.1-41.5 7.1-4.7 7.9-13.6 7.2-24.5-0.8-10.9 13.7-16.8 25.2-13.5q0 0 0 0c-27.9-9.7-54.5 7.4-59.3 38.2-4.8 30.9 14 63.8 42 73.6 22.5 7.8 44.2-1.7 54.2-21.9-5.4 10.5-15.2 17.5-29.3 19.1z"/>
					<path id="&lt;Compound Path&gt;" class="s32" d="m485.8 767.8c2.4-0.6 2.4-4 2.3-5.9q-0.2-3.2-0.9-6.4c-1.8-9-5.9-17.7-11.9-24.7-5.3-6.3-12.4-13.5-21.4-12.6-2.5 0.3-5.3 1.5-5.8 4-0.5 2.4 1.4 4.5 3.3 6.2 2.6 2.5 5.4 4.8 8 7.4 8.6 8.2 15.5 18.2 21.3 28.5 0.9 1.6 2.8 4.2 5.1 3.5zm3.4 6.3c-1-2.5-3.7-2.3-4.7 0q-0.6 1.6-0.8 3.3c-0.1 1.2 0.2 3.1 1.4 3.8 0.5 0.2 1.1 0.3 1.7 0.2 2.1-0.2 2.8-2.1 2.9-4 0-1.1 0-2.3-0.5-3.3z"/>
				</g>
			</g>
		</g>
	</g>
	<g id="Character 1">
		<g id="Character 00000005252691795482471210000007680845083599892900 ">
			<g id="Bottom 11 ">
				<g id="&lt;Group&gt;">
					<g id="&lt;Group&gt;">
						<path id="&lt;Path&gt;" class="s18" d="m85.8 519.4c5.1-2.4 57.4-1.1 62.7 3.2 6.4 5.2 69.7 28.3 69.7 28.3l48.6 44.1c-20.4 5.2-55.8 0.4-83.6-14.1-16.5-8.6-30.3-20-44.7-30.2-7.8-5.5-13.9-9.4-17.3-10.6-10.6-3.6-26.9-9.9-39.7-15.8 0 0-0.9-2.4 4.3-4.9z"/>
					</g>
					<g id="&lt;Group&gt;">
						<g id="&lt;Group&gt;">
							<path id="&lt;Path&gt;" class="s8" d="m68.8 515.9c-2.5-3.3 7.4-14.9 21.3-16.5 11-1.2 16 0.8 23.8 1.9 7.5 1 19.1-4 25.6-5 13.5-2.2 15.7 6.1 14.7 10.5-0.9 4.4-2.4 9.5-11.5 12.8-9.2 3.3-53.2 2.5-73.9-3.7z"/>
							<path id="&lt;Path&gt;" class="s4" d="m157.7 527.9c-4.7 7.9-15.4 5.6-24.5 3.9-8.5-1.6-39.6-10-43.7-3.9-8.5-3.2-16.8-7.9-20.7-12 0 0 2.2-8.6 19.8-4.4 11.5 2.8 32.6 4.2 39.1 3.4 8.5-1 20-8.7 28.9-5.2 3.8 5.3 2.2 10.5 1.1 18.2z"/>
						</g>
					</g>
					<path id="&lt;Path&gt;" class="s18" d="m336.8 529.1c-2.1-14.3-15.9-32.8-29.3-45.7-17.9-17.2-55.3-45.2-55.3-45.2l-0.7 3.4q0 0 0 0l-103-21.1c-6.7 13.7-14.5 41.8-14.6 61.6 0 18.5 2.8 40.8 35.2 64.8 19.7 14.6 27.8 25 42.5 32.7 16.1 8.4 37.8 22.2 60.7 13.8 13.2-4.8 22-12.9 22.1-27.7q0 0 0 0c2.6 1.6 18.7 4.4 29.5-1.7 10.1-5.7 15.1-20 12.9-34.9z"/>
					<path id="&lt;Path&gt;" class="s27" d="m301 567.3c-2.4-0.3-4.6-0.6-6.6-1.6-4-25-29.5-43.4-65.5-72.7 4.2-7.1 6.7-17.4 6.7-17.4-1.3 6 3.4 11.3 1.5 15.7 8.1 7.2 30 20.8 42.9 35.6 8.6 9.9 19.8 22.3 21 40.4z"/>
					<path id="&lt;Path&gt;" class="s27" d="m224.8 575.8c-12.9 1.2-38.1-7.4-52.9-20.4-4.8-4.1-16.8-14.2-23-26.6-1.8-3.5 44.8 31.8 44.8 31.8 0 0 16.6 11.1 31.1 15.2z"/>
				</g>
				<g id="&lt;Group&gt;">
					<path id="&lt;Path&gt;" class="s8" d="m136.4 435.4l121.8 7.2c0 0 40.1 27.8 60.4 52.8 0 0-19.5-0.8-36.6 9.8-14.9 9.2-19.5 15.8-19.5 15.8 0 0-19.3-6.4-40.5 4.1-26.6 13.2-28.3 35.5-28.3 35.5 0 0-40.1-24.1-49.8-37.2-17-22.9-12.8-69-7.5-88z"/>
					<path id="&lt;Path&gt;" class="s20" d="m255.6 476.6c0 0 0 12.7-8.3 20.8 0 0 20.7 17.9 20.7 17.9-2.6 2.4-5.5 5.7-5.5 5.7-10.6-10.7-28.6-23.6-28.6-23.6 0 0 15.7-6.8 21.7-20.8z"/>
				</g>
			</g>
			<g id="Top 11 ">
				<path id="&lt;Path&gt;" class="s18" d="m273.5 415.4c8.3 11.7 16.3 12.1 31.1 13.3 15.6 1.3 26.3 0.8 36 2.3 4.6 0.7 4.8 2.5 9.6 5.7 3 2.1 5.8 4.1 11.9 6.7 3.4 1.5 6 1.4 8.9 1 2-0.3 5.2-9 6.7-10.4 2.2-2.1 5.5-2.9 7.7-5.1q0.4-0.4 0.7-0.8c1-1.5 1.3-3.4 1.9-5.2 0.1-0.2 0.2-0.4 0.4-0.6 0.1-0.1 0.3-0.3 0.6-0.3 4.9 0.3 13.4 1.4 19.8 2.3 3.3 0.5 8.8 1.3 11-2.4 0.7-1.1 0.3-2.6-0.5-3.6-0.8-1-2.1-1.6-3.3-2.2-4.4-1.9-9.2-3-13.9-4.1q-6.3-1.4-12.5-2.8c-7.4-1.7-14.9-3.4-22.5-4.1-3.6-0.3-3.5-3.8-7.1-3.3-5.7 0.8-7 1.7-13.1 0.1-5.6-1.5-39.7-11.7-39.7-11.7 0 0-16.6-26.8-26.2-41.7-9.6-15-19.3-22.2-41.9-24.9l12.6 58.8c13.9 21.8 17.4 26.6 21.8 33z"/>
				<g id="&lt;Group&gt;">
					<path id="&lt;Path&gt;" class="s27" d="m307.2 390.2c0 0-15 4-19.2 14.3 0 0-0.3-10.1 16.7-18.2z"/>
				</g>
				<g id="Arm 00000147910986728056516920000004324583259537845944 ">
					<g id="Arm 00000104695453430358716710000016315760212525432964 ">
						<path id="&lt;Path&gt;" class="s27" d="m376 418.1q0.9-0.6 1.9-1.4 0 0 0 0-1.2-0.2-2.4-0.2c-0.9-0.1-1.6 0.7-2.4 1.2q-1.2 0.9-2.6 1.7c-1.8 1-3.6 1.9-5.6 2.5-4.4 1.4-8.9 1.2-13.3 0.1-0.1 0-0.6 0.2-0.3 0.4 4.2 2.3 9.2 2.3 13.7 1.1 4-1 7.7-3 11-5.4z"/>
					</g>
					<g id="Fingers 00000094613852911968181020000009193124285308939917 ">
						<g id="&lt;Group&gt;">
							<path id="&lt;Path&gt;" class="s18" d="m380 404.9c2.6 1 5.6 2 8.2 3.1 2.7 1.2 5.1 1.8 7.9 3 0.7 0.3 1.7 1.5 1.9 2.3 0.3 0.9-0.3 2-0.9 2.5-1.3 1.2-2.9 1.5-4.5 1.8-2.3 0.5-4.7 0.5-7.1 0.2-4.4-0.5-8.7-1.4-13.2-1.5-7.1-0.3-19.9-13.2-19.9-13.2 4.6-0.9 7.8-1.3 12.5-2.1 2-0.4 4-0.2 5.8 0.2 1.6 0.4 3.1 1.1 5.1 1.9 1.3 0.6 2.8 1.3 4.2 1.8z"/>
							<g id="&lt;Group&gt;">
								<path id="&lt;Path&gt;" class="s27" d="m388.2 408c3.1 1.1 5.8 1.7 8.9 2.9 2.4 0.9 1.5 4.6-0.1 5.7-1.7 0.9-3.5 1.5-5.4 1.8-2.7 0.3-5.3 0.1-8-0.3q-2-0.3-4-0.7c-0.4-0.1-3.7-0.6-3.6-0.9 0.2-0.5 3.7 0.2 4.2 0.2 5.4 0.7 11.2 1.6 16.2-1 1-0.7 2-3.3 0.3-4-2.9-1.4-5.6-2.2-8.5-3.7z"/>
							</g>
							<path id="&lt;Path&gt;" class="s27" d="m376.4 416.1c-0.9-0.5-1.7-1.1-2.3-1.9-0.7-0.9-1.1-2-1.5-3.1-0.1-0.1-0.3 0-0.3 0.1q0 0.3 0.1 0.5c0.3 1.2 0.6 2.4 1.3 3.5 0.4 0.4 0.8 0.9 1.3 1.2 0.2 0.2 0.5 0.2 0.8 0.2q0.5 0 1 0.1 0.2 0 0.5 0.1c0.1 0 0.3-0.1 0.4-0.1q-0.7-0.2-1.3-0.6z"/>
						</g>
						<g id="&lt;Group&gt;">
							<path id="&lt;Path&gt;" class="s18" d="m388.6 434.5c-1-1.7-3.3-2.4-4.8-3.6-1.5-1.2-3.9-2.4-5.5-3.3-1-0.6-2.1-0.9-3.3-1.2-2.8-0.8-5.6-1.6-8.5-2-1-0.1-2.1-0.1-2.9 0.6-0.4 0.3-0.6 0.8-0.7 1.3-0.3 1.4 0.3 2.9 1.3 4 0.9 1.1 2.2 1.8 3.4 2.5 1.3 0.6 2.6 1.2 3.8 2.1 1.2 1 2.2 2.3 3.4 3.4 2 1.9 5 3 7.8 2.8 2.5-0.2 7.5-2.9 6.4-5.8q-0.2-0.4-0.4-0.8z"/>
							<g id="&lt;Group&gt;">
								<path id="&lt;Path&gt;" class="s27" d="m383.8 430.9c-2.6-2.1-6.3-3.9-9.7-4.5-3.1-0.6-6.5-2-9.6-1.5-0.7 0.3-1.1 0.9-1.2 1.6-0.4 2.5 1.6 4.4 3.7 5.5 3.2 1.5 5.6 3.5 7.8 6.3-2.3-2.6-5-4.4-8.1-5.7-2.3-1.1-4.6-3.4-4.2-6.2 0.1-0.9 0.8-1.9 1.7-2.2 3.4-0.6 6.8 0.8 10.1 1.7 3.3 0.7 7.1 2.6 9.5 5z"/>
							</g>
						</g>
						<g id="&lt;Group&gt;">
							<path id="&lt;Path&gt;" class="s18" d="m392.5 424.9c-1.5-1-3.1-1.9-4.7-2.7-2.5-1.1-6.5-1.7-9.2-0.7-0.5 0.1-1 0.4-1.3 0.7-0.5 0.6-0.5 1.3-0.5 2 0.2 2.5 1.8 4.3 3.7 5.8 1.7 1.2 3.5 2.5 5.4 3.4 1.5 0.8 3.3 2 5 2.3 1.5 0.3 3.4-0.4 4.4-1.5 0.8-1 1.8-2.8 1.9-4 0.1-1.5-0.6-2.4-1.7-3.3-0.9-0.9-2-1.4-3-2z"/>
							<g id="&lt;Group&gt;">
								<path id="&lt;Path&gt;" class="s27" d="m392.5 424.9c-3.4-1.8-7.8-3.3-11.6-3.4-1.1 0-2.5 0.2-3.3 1-1.2 2.1 0.4 4.9 2.1 6.4 1.9 1.7 4 3.2 6.2 4.5-2.4-1-4.6-2.5-6.7-4.1-2.4-1.8-4.7-7.4-0.3-8.3 4.6-1 9.9 1.4 13.6 3.9z"/>
							</g>
						</g>
						<g id="&lt;Group&gt;">
							<path id="&lt;Path&gt;" class="s18" d="m373.9 435.5c-1.9-1.6-5.1-2.7-7.3-3.8q-1.7-0.9-3.5-1.5c-1.2-0.5-2.3-1-3.5-1.1-2.2-0.3-2.6 1.6-2.2 3.3 0.4 2.4 2.5 4.3 4.4 5.7 0.6 0.5 1.3 1 2 1.5 1.8 1.6 3.1 3.4 5.4 4.4 1.5 0.6 3.2 0.5 4.7-0.1 0.7-0.2 2.5-0.8 2.9-1.4 0.9-1 0.9-2.5 0.3-3.6-0.3-0.5-0.7-1-1.1-1.4q-1-1-2.1-2z"/>
							<g id="&lt;Group&gt;">
								<path id="&lt;Path&gt;" class="s27" d="m376 437.5c-3.6-3.4-9-5.6-13.7-7.3-2.2-0.8-5-1.8-4.6 1.7 0.3 2.5 2.2 4.2 4 5.7 2.8 1.8 4.6 4.8 7.5 6.4-1.5-0.6-2.8-1.7-4-2.8-2.9-2.9-7.6-4.7-8.3-9.2-0.4-4.1 2.9-3.7 5.7-2.4 4.7 1.7 10.1 4.1 13.4 7.9z"/>
							</g>
						</g>
					</g>
				</g>
				<g id="Chest 9 ">
					<g id="&lt;Group&gt;">
						<g id="&lt;Group&gt;">
							<path id="&lt;Path&gt;" class="s23" d="m190.6 484.4c-20 0-40.4-4.1-59.1-12 3.1-48.8 6.6-87.3 13.7-116.5 4.1-16.7 15.4-24.3 20.2-27.5q0.5-0.3 0.9-0.6c1.4-0.2 9.9-1.9 26.3-3.8 8-0.9 15.6-1.3 22.8-1.3 10.7 0 20.5 1 29.2 3 21.1 5.1 24.7 28.9 23.9 47.9-0.5 12.9-2.2 22.6-3.8 32-0.8 4.7-1.6 9.7-2.3 14.8v0.2 0.2c4.6 17 5.9 28.1 6.1 30.2-15.3 21.3-43.6 33.4-77.9 33.4q0 0 0 0z"/>
							<path id="&lt;Compound Path&gt;" fill-rule="evenodd" class="s2" d="m244.8 324.8c23.1 5.5 25.4 32.2 24.7 48.9-0.8 19.4-4.2 31.6-6.1 46.8 5.2 19.2 6.1 30.7 6.1 30.7-16.5 23.3-46.6 34.2-78.9 34.2-20.1 0-41.1-4.2-60.1-12.4 3.3-52.9 7-89.6 13.8-117.3 4.5-18.6 17.9-26.2 21.6-28.8 0 0 8.5-1.8 26.6-3.9 7.1-0.8 14.9-1.3 22.9-1.3 9.7 0 19.8 0.8 29.4 3.1zm-52.1 0.2c-15.7 1.8-24.2 3.4-26 3.8q-0.3 0.2-0.7 0.5c-4.8 3.1-15.8 10.5-19.8 26.8-7.1 29-10.6 67.2-13.7 115.7 18.4 7.6 38.4 11.7 58.1 11.7 33.8 0 61.7-12 76.9-32.8-0.3-2.8-1.7-13.6-6-29.7l-0.1-0.3v-0.4c0.7-5.2 1.5-10.1 2.3-14.9 1.6-9.3 3.3-19.1 3.8-31.8 0.8-18.7-2.6-42-23.2-46.9-8.5-2-18.3-3.1-28.9-3.1-7.1 0-14.8 0.5-22.7 1.4z"/>
						</g>
					</g>
					<g id="&lt;Group&gt;">
						<g id="&lt;Group&gt;">
							<g id="&lt;Group&gt;">
								<path id="&lt;Path&gt;" class="s8" d="m187.7 316.3q-0.1-0.1-0.3-0.2c-4.9-2.6-9.2-6.2-12.7-10.5-2.7-3.3-7.1-9.2-7.2-13.7 0.1 4.8 0.7 9.6 1.9 14.2-5.1-2.2-9-6.6-12-11.3-8.7-13.8-10-31.5-5.4-47.2 1.8-6.1 4.4-12 7.3-17.7 3.3-6.5 7-13 11.9-18.5 8.5-9.9 20.4-16.7 33.1-19.8 12.7-3.2 26.2-2.8 38.9 0.3 22.5 5.5 45 23 44.9 48.2 0 6-1.7 11.9-4.8 16.9-3 4.9-8.4 7.5-9.7 13.3-1.2 5.2 0.7 10.5 2.1 15.7 1.5 5.5 2.4 11.4 1.6 17.1-0.9 5.7-3.7 11.3-8.5 14.5 1.2-1.4 1.7-3.3 1.5-5.1-1.3 3.6-4.5 6.3-7.8 8.1-6.6 3.7-14.3 4.7-21.7 4.3-3.8-0.2-7.6-0.8-11.4-1.5-3-0.7-5.6-2.1-8.7-1.6-10.9 1.5-23.1-0.3-33-5.5z"/>
								<path id="&lt;Path&gt;" class="s4" d="m185.1 252.1c0.8-20.8 23.2-65.4 76.3-52.9-23.5-15.9-51.8-8.6-65 6.5-13.3 15.2-13.6 35.7-11.3 46.4z"/>
								<g id="&lt;Group&gt;">
									<path id="&lt;Path&gt;" class="s18" d="m193.5 268.1q-0.2 0.3-0.6 0.5c-3.4 1.7-2.8-3.8-5.5-7.8-1.5-2.2-4.1-3.2-6.5-3.3-5.1-0.3-8.4 1.5-10.5 5.1-3.8 6.3-1.3 17 7.3 21 8.2 3.8 13.7-1.4 13.7-1.4l-4.6 42.6c0 0 4.9 12.6 29.1 17.3 21.9 4.2 26.5-3.5 18.3-13.1l1.3-11.6c0 0 9.2 1.1 16.5-0.7 15.3-4 20.7-16.1 22.5-22.4 2.2-7.8 0.5-15.1 1.3-23.2 0.5-4.7 1.6-11.5 2-14.4 0.4-3.6 0.5-6.6 0.3-8.1-7.6-0.9-14.7-5.7-18.3-12.4-1 2.4-1.1 5.2-0.3 7.7-7.3 1.9-15.2-0.3-21.6-4.5-6.3-4.1-11.3-10-16.1-15.9-3.7 0.8-5.1 5.3-6.3 8.9-1.8 5.2-4.8 10.2-8.1 14.6-1.5 2.1-3.2 4-5.1 5.7-0.6 0.4-6.2 3.9-6.2 4 0.4 3 0 6.1-1.1 9-0.3 0.9-0.8 1.8-1.5 2.4z"/>
									<g id="&lt;Group&gt;">
										<path id="&lt;Path&gt;" class="s27" d="m209.3 269.4c0 3.5 3.8 6.2 8.4 6.1 4.6-0.2 8.2-3.1 8.2-6.5-0.1-3.5-3.9-6.3-8.5-6.1-4.6 0.1-8.2 3-8.1 6.5z"/>
										<path id="&lt;Path&gt;" class="s27" d="m265.8 273.1c-0.4 3.4 3 6.7 7.5 7.2 4.6 0.5 8.6-1.8 9-5.3 0.4-3.4-3-6.7-7.5-7.2-4.6-0.5-8.6 1.8-9 5.3z"/>
										<g id="&lt;Group&gt;">
											<g id="&lt;Group&gt;">
												<path id="&lt;Path&gt;" class="s12" d="m231.6 247.5l-11.2 5.2c-1.4-3.2 0-7 3.1-8.4 3.1-1.5 6.7 0 8.1 3.2z"/>
												<path id="&lt;Path&gt;" class="s12" d="m223.5 260.9c-0.3 2.8 1.8 5.3 4.6 5.6 2.8 0.2 5.2-1.9 5.5-4.7 0.3-2.8-1.8-5.2-4.6-5.5-2.8-0.2-5.3 1.8-5.5 4.6z"/>
												<path id="&lt;Path&gt;" class="s12" d="m259.8 264.4c-0.2 2.8 1.8 5.3 4.6 5.5 2.8 0.3 5.3-1.8 5.6-4.6 0.2-2.8-1.8-5.3-4.6-5.5-2.8-0.3-5.3 1.8-5.6 4.6z"/>
												<path id="&lt;Path&gt;" class="s12" d="m273.1 257.7l-10.3-7.1c1.8-2.9 5.6-3.7 8.5-1.8 2.8 2 3.6 5.9 1.8 8.9z"/>
											</g>
											<g id="&lt;Group&gt;">
												<path id="&lt;Path&gt;" class="s27" d="m243.8 254.2l0.8 24.5 13.9-4.6z"/>
											</g>
										</g>
										<g id="&lt;Group&gt;">
											<path id="&lt;Path&gt;" class="s26" d="m240.2 287.7c1.9 0.8 4.4 1 6.4 0.9 1.1 0 2.3 0.1 3 1 0.7 1 0.4 2.3-0.4 3.7-1.6 2.7-6.2 5.1-11.3 3.7-6-1.7-7.5-6.8-7.4-9.7 0.1-1 0.3-2.4 1.4-2.9 1.6-0.8 2.6-0.4 3.5 0.2 1.3 1 2.2 1.9 4.8 3.1z"/>
											<path id="&lt;Path&gt;" class="s0" d="m246.6 288.6c-2 0.1-4.5-0.1-6.4-0.9-2.6-1.2-3.5-2.1-4.8-3.1q-0.5-0.4-1.1-0.6c0 1.9 0.9 3.8 4.9 5.4 4.2 1.8 6.8 1.1 8.2-0.8q-0.4 0-0.8 0z"/>
											<path id="&lt;Path&gt;" class="s27" d="m237.9 297c1.1 0.3 2.2 0.4 3.3 0.4-1.8-4.7-5.7-8.2-10.6-9.2 0.1 2.9 1.9 7.3 7.3 8.8z"/>
										</g>
									</g>
									<path id="&lt;Path&gt;" class="s27" d="m235.5 317.4c-10.5-1.7-18.1-3.1-29.4-12.1-4.3-3.4-8.2-9.7-9.7-15.4 0 0 1 12.1 5.2 17.7 10.9 14.5 33.2 15.7 33.2 15.7z"/>
								</g>
							</g>
							<g id="&lt;Group&gt;">
								<path id="&lt;Path&gt;" class="s26" d="m225.9 297.9q-0.1 0-0.1-0.1c-0.1 0.1-0.1 0.1 0.1 0.1z"/>
							</g>
						</g>
					</g>
				</g>
				<g id="Screwdriver">
					<g id="Screwdriver 1 ">
						<path id="&lt;Path&gt;" class="s4" d="m209.6 462.4l14.8 20.2-39.3 28.8c-1.5 1.2-3.8 1.4-6.5 0.2-5.1-2.2-9.8-8.6-10.4-14.2-0.3-2.8 0.4-4.9 1.9-6z"/>
						<path id="&lt;Path&gt;" class="s38" d="m209.6 462.4l14.8 20.2-39.3 28.8c-1.5 1.2-3.8 1.4-6.5 0.2-5.1-2.2-9.8-8.6-10.4-14.2-0.3-2.8 0.4-4.9 1.9-6z"/>
						<path id="&lt;Path&gt;" class="s39" d="m214.7 461.9c3.1 1.2 5.7-2.8 5.7-2.8l10.4 14.2c0 0-4.5 1.3-4.4 4.6 0 4.7-3.5 6.9-8.3 4.8-5.1-2.3-9.8-8.7-10.4-14.3-0.6-5.2 2.5-7.9 7-6.5z"/>
						<path id="&lt;Path&gt;" class="s3" d="m218.9 460.7c0.9-0.8 1.5-1.6 1.5-1.6l10.4 14.2c0 0-1 0.3-2 0.9-4.8-2.3-9.1-8.2-9.9-13.5z"/>
						<path id="&lt;Path&gt;" class="s40" d="m225.1 451.1l0.8 1.2q1.3 0.1 2.7 0.7c5.2 2.3 9.8 8.7 10.5 14.3q0.1 1.5-0.1 2.8l0.9 1.2-2.8 2c-1.5 1.1-3.7 1.2-6.3 0-5.1-2.2-9.8-8.6-10.4-14.2-0.4-2.8 0.4-4.9 1.9-6z"/>
						<path id="&lt;Path&gt;" class="s41" d="m225.1 451.1l0.8 1.2q1.3 0.1 2.7 0.7c5.2 2.3 9.8 8.7 10.5 14.3q0.1 1.5-0.1 2.8l0.9 1.2-2.8 2c-1.5 1.1-3.7 1.2-6.3 0-5.1-2.2-9.8-8.6-10.4-14.2-0.4-2.8 0.4-4.9 1.9-6z"/>
						<g id="&lt;Group&gt;">
							<path id="&lt;Path&gt;" class="s39" d="m233.6 471.3c-5.2-2.2-9.9-8.6-10.5-14.2-0.6-5.7 3.1-8.4 8.2-6.1 5.2 2.3 9.9 8.7 10.5 14.3 0.6 5.6-3.1 8.3-8.2 6z"/>
							<path id="&lt;Path&gt;" class="s3" d="m233.6 471.3c-5.2-2.2-9.9-8.6-10.5-14.2-0.6-5.7 3.1-8.4 8.2-6.1 5.2 2.3 9.9 8.7 10.5 14.3 0.6 5.6-3.1 8.3-8.2 6z"/>
							<path id="&lt;Path&gt;" class="s42" d="m240.6 461q0.6 1.4 1 2.8l-6.3-0.5-0.7-3z"/>
						</g>
						<path id="&lt;Path&gt;" class="s43" d="m176 502.6c0.8 1.1 2.3 1.3 3.4 0.5l28.1-20.6c1-0.8 1.3-2.3 0.5-3.4-0.8-1.1-2.3-1.3-3.4-0.5l-28.1 20.6c-1.1 0.8-1.3 2.3-0.5 3.4z"/>
						<path id="&lt;Path&gt;" class="s43" d="m172.2 495c0.4 1.2 1.4 1.6 2.4 0.9l28.6-21c0.9-0.6 1.4-2.2 1-3.4-0.3-1.2-1.4-1.6-2.3-0.9l-28.6 21c-0.9 0.7-1.4 2.2-1.1 3.4z"/>
						<path id="&lt;Path&gt;" class="s43" d="m182.1 508.5c-1-0.7-1.1-1.9-0.2-2.5l28.6-21c1-0.7 2.6-0.7 3.6 0 1 0.7 1.1 1.8 0.2 2.5l-28.6 20.9c-1 0.7-2.6 0.7-3.6 0.1z"/>
						<g id="&lt;Group&gt;">
							<path id="&lt;Path&gt;" class="s28" d="m301.1 406.6l5.4 2.3-10.3 11.6c0 0-6.2 0.5-8.9 2.5l-52.2 38.3-5.2-0.4-0.2-1.9 52.2-38.3c2.7-2 2.1-5.6 2.1-5.6z"/>
							<path id="&lt;Path&gt;" class="s20" d="m301.3 408.5l5.4 2.4-10.3 11.6c0 0-6.2 0.5-8.9 2.5l-52.2 38.3-5.4-2.4 52.2-38.2c2.7-2.1 2.1-5.6 2.1-5.6z"/>
							<path id="&lt;Path&gt;" class="s12" d="m306.7 410.9l-0.2-2-5.4-2.3 0.2 1.9z"/>
							<path id="&lt;Path&gt;" class="s28" d="m301.1 406.6l0.2 1.9-17.1 8.6-0.2-2z"/>
						</g>
					</g>
				</g>
				<g id="&lt;Group&gt;">
					<path id="&lt;Path&gt;" class="s18" d="m165.9 326.9c-26.6 3.4-33.9 12.5-42 29.1-11.5 23.7-19.3 39.4-27.2 59.3-5.1 13.2-6.7 18.2 7.6 34 8.4 9.2 15.1 15.1 27.4 24.9 10.3 8.3 20.7 16.5 32.1 23.1q3.1 1.8 6.3 3.4c5.1 2.5 10.4 4.8 16.1 5.9 4.1 0.9 8.6 1.8 11.8-1.7q0-0.1 0.1-0.2 0.2-0.1 0.4 0c1.3 0.1 2.6 0.3 3.9 0 1.3-0.2 2.6-0.9 3.3-2 0.5-0.7 0.7-1.6 0.7-2.5 0 0.3 3.1 0.1 3.3 0.1 1.1-0.1 2.2-0.3 3.2-0.7 1.5-0.6 3-2 3-3.8q4.6 0.5 9.1 0c1.3-0.2 2.9-0.1 4-0.9 0.9-0.6 1.6-1.6 1.5-2.8-0.1-1.3-1.3-2.2-2.3-2.9-6.3-4.3-15.5-0.9-25-5.7-1.3-0.7-9.6-7.8-8.6-10.1l11.5-8.4c-6.4-1.9-12.8-3.8-19.5-3.8-6.8 0-13.4 2.4-20-0.9-5-2.4-9-6.9-14.6-14.4-4.1-5.6-12.9-19.8-12.9-19.8 0 0 15-28.7 22.3-43.5 7.3-14.9 10-38.3 4.5-55.7z"/>
					<path id="&lt;Path&gt;" class="s27" d="m139.1 426.1c-9.3 8.3-25.1 6.5-25.1 6.5 0 0 13.1 6.1 27.2-3.1z"/>
				</g>
			</g>
		</g>
	</g>
</svg>