<svg xmlns="http://www.w3.org/2000/svg" viewBox="98.926 23.388 1042.45 857.938"><path fill="#f5f6fc" d="m356.81,67.73c-111.39,69.49-173.21,172.81-277.55,239.98-110.99,83.42,7.54,242.42,94.72,292.22,138.88,87.84,212.48-16.34,368.55-106.41,47.51-27.42,132.88-55.35,142.04-116.01,37.66-249.47-118.34-440.43-327.76-309.78Z" transform="translate(98.65 -10.023) scale(1.31605)"/><g transform="translate(287.082 124.927) scale(1.20514)"><rect width="449.87" height="216.87" x="47.69" y="6" fill="#b4befe"/><rect width="213.47" height="208.38" x="55.33" y="14.49" fill="#f9faff"/><rect width="213.47" height="208.38" x="276.45" y="14.49" fill="#f9faff"/><rect width="475.33" height="12.73" x="34.22" y="222.87" fill="#b4befe" rx="4.53" ry="4.53"/><path fill="#ff83a6" d="m356.34,202.95h0c0,.16-.02.31-.03.46-.04.49-.1.98-.17,1.46-.44,2.96-1.43,5.71-2.85,8.11-.11.18-.22.36-.33.55-1.23,1.95-2.74,3.67-4.47,5.08-.72.59-1.48,1.12-2.27,1.6-2.81,1.69-6.04,2.65-9.44,2.65h-12.78c-3.48,0-6.77-1-9.62-2.77-.18-.11-.36-.23-.54-.34-4.63-3.09-8.02-8.22-9.1-14.3-.05-.28-.09-.57-.14-.86-.08-.55-.14-1.11-.17-1.68-.13-1.94-.19-3.99-.18-6.13,0-.26,0-.53,0-.8.08-5.61.63-11.9,1.69-18.87.02-.12.04-.24.06-.36.01-.11.03-.23.05-.35.05-.31.1-.63.15-.95.82-5.14,1.91-10.66,3.28-16.55,0,0,0-.01,0-.02h0c.06-.23.11-.45.17-.67.55-2.11,1.36-4.08,2.38-5.87.55-.97,1.16-1.89,1.83-2.75,1.38-1.79,3-3.33,4.79-4.58.18-.13.37-.25.56-.37,3.17-2.06,6.86-3.23,10.75-3.23.85,0,1.68.06,2.51.17.24.03.48.07.72.11,3.48.59,6.71,2.12,9.45,4.38,1.49,1.24,2.84,2.69,3.99,4.32.14.18.26.36.38.55,1.43,2.13,2.54,4.56,3.24,7.21,1.03,3.85,1.94,7.56,2.72,11.14.06.27.12.54.18.81.07.34.14.68.22,1.02.07.32.13.64.2.96.62,3.05,1.15,6,1.58,8.84.17,1.08.31,2.14.45,3.19.35,2.74.61,5.37.76,7.89.02.33.04.65.06.97.03.53.05,1.05.07,1.57.01.28.02.55.03.82.07,2.69.02,5.23-.18,7.64Z"/><path d="m356.52,195.32c0-.27-.01-.55-.03-.82l-.8-.62.73-.95c-.01-.32-.03-.64-.06-.97l-1.18,1.52-12.61-9.77,9.77-12.61,1.22.94c-.07-.32-.13-.64-.2-.96l-.63-.48.41-.53c-.06-.27-.12-.54-.18-.81l-.74.95-12.61-9.77,7.39-9.53c-.11-.19-.24-.37-.38-.55l-7.51,9.69-12.61-9.77,6.68-8.62c-.24-.04-.48-.08-.72-.11l-6.46,8.34-6.8-5.27c-.19.12-.37.25-.56.37l6.97,5.4-9.77,12.61-6.2-4.8c-.06.22-.11.45-.17.67h0s5.98,4.63,5.98,4.63l-9.26,11.94c-.06.32-.1.64-.15.95-.02.12-.04.24-.05.35-.02.12-.04.25-.06.36l12.47,9.66-9.77,12.61-4.39-3.4c0,.27,0,.53,0,.8l4,3.1-3.65,4.71c.04.29.08.58.14.86l4.02-5.18,12.61,9.77-7.53,9.71c.18.11.36.23.54.34l7.49-9.66,12.61,9.77-2.06,2.66h.8l1.76-2.27,2.7,2.1.39-.5-2.7-2.1,9.77-12.61,7.81,6.06c.11-.18.22-.36.33-.55l-7.75-6.01,9.77-12.61,1.21.94Zm-4.66-24.61l-9.77,12.61-12.61-9.77,9.77-12.61,12.61,9.77Zm-10.16,13.11l-9.77,12.61-12.61-9.77,9.77-12.61,12.61,9.77Zm-15.56-33.05l12.61,9.77-9.77,12.61-12.61-9.77,9.77-12.61Zm-19.93,25.72l9.77-12.61,12.61,9.77-9.77,12.61-12.61-9.77Zm2.95,23.27l9.77-12.61,12.61,9.77-9.77,12.61-12.61-9.77Zm25.72,19.94l-12.61-9.77,9.77-12.61,12.61,9.77-9.77,12.61Zm10.16-13.11l-12.61-9.77,9.77-12.61,12.61,9.77-9.77,12.61Z"/><circle cx="327.69" cy="161.75" r="1.7"/><path d="m314.96,151.14c0,.94-.76,1.7-1.7,1.7-.48,0-.92-.2-1.22-.52.55-.97,1.16-1.89,1.83-2.75.64.24,1.09.86,1.09,1.58Z"/><circle cx="307.32" cy="188.07" r="1.7"/><path fill="#3247ce" d="m335.29,140.42c5.26-3.95,13.4-8.43,21.69-6.68,0,0-7.64-5.94-16.55-2.55-1.46.56-2.7,1.17-3.75,1.84,3.25-3.89,7.68-7.65,13.51-9.48,0,0-13.17-5.25-18.51,8.51.77-12.43-2.71-20.82-2.71-20.82-2.73,5.96-3.93,11.33-4.25,15.99-6.13-7.53-15.78-3.68-15.78-3.68,5.82,1.83,10.26,5.59,13.51,9.48-1.05-.66-2.28-1.28-3.75-1.84-8.91-3.4-16.55,2.55-16.55,2.55,8.29-1.76,16.42,2.72,21.69,6.68-12.91-3.96-19.99,3.93-19.99,3.93,8.77-2.27,19.28-.32,23.73.72.21.14,3.35.42,3.98,0,4.45-1.04,14.95-2.99,23.73-.72,0,0-7.08-7.9-19.99-3.93Z"/><circle cx="309.87" cy="210.98" r="1.7"/><path d="M355.61 184.07c-.23.11-.48.18-.76.18-.94 0-1.7-.76-1.7-1.7s.76-1.7 1.7-1.7c.11 0 .21 0 .31.03l.45 3.19zM356.34 202.96h0c-.29-.53-.85-.89-1.49-.89-.94 0-1.7.76-1.7 1.7s.76 1.7 1.7 1.7c.51 0 .97-.22 1.28-.59l.21-1.92zM348.49 218.62c-.72.59-1.48 1.12-2.27 1.6-.66-.23-1.12-.86-1.12-1.6 0-.94.76-1.7 1.7-1.7s1.7.76 1.7 1.7z"/><circle cx="338.73" cy="146.9" r="1.7"/><circle cx="330.66" cy="185.1" r="1.7"/><circle cx="334.06" cy="208.44" r="1.7"/><circle cx="320.48" cy="198.25" r="1.7"/><circle cx="344.24" cy="195.71" r="1.7"/><circle cx="341.27" cy="171.51" r="1.7"/><circle cx="316.66" cy="174.49" r="1.7"/><path fill="#313244" d="m393.9,200.8s-.85-22.07-10.61-35.23c-9.76-13.16-14.43-12.73-16.98-11.03s-2.12,13.58,5.52,25.04c7.64,11.46,17.4,22.49,17.4,22.49l4.67-1.27Z"/><path fill="none" stroke="#11111b" stroke-linecap="round" stroke-linejoin="round" stroke-width=".65" d="m390.5,193.58s-8.06-20.37-16.13-29.71"/><path fill="#313244" d="m389.23,202.07s-1.7-15.28,5.52-23.77c7.21-8.49,19.95-8.06,23.77-4.24,0,0-13.58,6.79-15.7,17.82-2.12,11.03,8.06,8.91,8.06,8.91l-21.64,1.27Z"/><path fill="none" stroke="#11111b" stroke-linecap="round" stroke-linejoin="round" stroke-width=".65" d="M389.06 199.19s-.56-10.7 2.99-16.64M399.84 199.95s.42-16.13 18.67-25.89"/><path fill="#b4befe" d="m409.18,222.87h-28.86c-5.94,0-13.83-22.77-8.49-24.62h45.84c7.67,2.65-.85,24.62-8.49,24.62Z"/></g><g transform="translate(77.748 240.517) scale(.46962)"><rect width="327.24" height="397.27" x="65.36" y="-6.33" fill="#fac9d7" rx="31" ry="31"/><rect width="136.28" height="212.11" x="217.77" y="104.22" fill="#f9faff"/><path d="m340.6,171.3h-107.59c-.19,0-.34.15-.34.34v125.83c0,.19.15.34.34.34h107.59c.19,0,.34-.15.34-.34v-125.83c0-.19-.15-.34-.34-.34Zm-79.91,50.33h26.22v25.84h-26.22v-25.84Zm-.67,25.84h-26.59s-.05,0-.08.02v-25.87s.05.02.08.02h26.59v25.84Zm27.57-25.84h25.78v25.84h-25.78v-25.84Zm26.45,0h26.22v25.84h-26.22v-25.84Zm0-.67v-26.29h26.22v26.29h-26.22Zm-.67,0h-25.78v-26.29h25.78v26.29Zm-25.78-26.96v-22.02h25.78v22.02h-25.78Zm-.67,0h-26.22v-22.02h26.22v22.02Zm0,.67v26.29h-26.22v-26.29h26.22Zm-26.9,26.29h-26.59s-.05,0-.08.02v-26.32s.05.02.08.02h26.59v26.29Zm-26.67,27.17s.05.02.08.02h26.59v26.51h-26.67v-26.53Zm27.34.02h26.22v26.51h-26.22v-26.51Zm26.22,27.19v21.8h-26.22v-21.8h26.22Zm.67,0h25.78v21.8h-25.78v-21.8Zm0-.67v-26.51h25.78v26.51h-25.78Zm26.45-26.51h26.22v26.51h-26.22v-26.51Zm26.22-54.15h-26.22v-22.02h26.22v22.02Zm-80.24-22.02v22.02h-26.59s-.05,0-.08.02v-22.04h26.67Zm-26.67,103.36h26.67v21.8h-26.67v-21.8Zm80.69,21.8v-21.8h26.22v21.8h-26.22Z"/><rect width="127.31" height="173.47" x="102.12" y="40.41" fill="#f9faff"/><path fill="#b4befe" d="m118.03,84.9h19.5v17.98h-24.21v-13.27c0-2.6,2.11-4.71,4.71-4.71Z"/><rect width="123.72" height="163.58" x="118.25" y="185.12" fill="#f2f2f2" rx="11.12" ry="11.12"/><ellipse cx="154.12" cy="58.84" fill="#f90045" rx="11.66" ry="10.34"/><ellipse cx="331.63" cy="122.65" fill="#3247ce" rx="11.66" ry="10.34"/><ellipse cx="286.81" cy="32.77" fill="#3247ce" rx="11.66" ry="10.34"/><ellipse cx="319.98" cy="50.75" fill="#f90045" rx="11.66" ry="10.34"/><rect width="15.24" height="17.68" x="158.15" y="84.9" fill="#313244"/><path d="m173.84,103.03h-16.14v-18.58h16.14v18.58Zm-15.24-.9h14.34v-16.78h-14.34v16.78Z"/><rect width="17.03" height="18.13" x="141.12" y="120.7" fill="#313244"/><path d="m158.6,139.28h-17.93v-19.03h17.93v19.03Zm-17.03-.9h16.14v-17.23h-16.14v17.23Z"/><path d="m213.73,139.28h-56.03v-18.13h-16.14v18.13h-23.75c-2.72,0-4.94-2.22-4.94-4.95v-44.92c0-2.73,2.22-4.95,4.94-4.95h40.78v17.68h14.34v-17.68h40.78c2.72,0,4.94,2.22,4.94,4.95v44.92c0,2.73-2.22,4.95-4.94,4.95Zm-55.13-.9h55.13c2.23,0,4.04-1.82,4.04-4.05v-44.92c0-2.23-1.81-4.05-4.04-4.05h-39.89v17.68h-16.14v-17.68h-39.89c-2.23,0-4.04,1.82-4.04,4.05v44.92c0,2.24,1.81,4.05,4.04,4.05h22.85v-18.13h17.93v18.13Z"/><rect width=".9" height="18.12" x="157.7" y="102.58"/><rect width=".9" height=".45" x="157.7" y="138.83"/><rect width=".9" height="36.7" x="172.94" y="102.58"/><rect width=".9" height=".45" x="172.94" y="84.45"/><rect width=".9" height="35.05" x="189.08" y="85.35"/><rect width=".9" height="17.98" x="203.43" y="120.4"/><rect width=".9" height=".45" x="140.67" y="138.83"/><rect width=".9" height=".3" x="140.67" y="120.4"/><rect width="60.52" height=".98" x="158.15" y="120.21"/><rect width="27.34" height=".98" x="113.77" y="120.21"/><rect width="45.28" height=".98" x="173.39" y="102.09"/><rect width="44.38" height=".98" x="113.77" y="102.09"/><rect width="75.31" height="4.49" x="142.46" y="216.57" fill="#b4befe"/><rect width="95.03" height="4.49" x="132.6" y="232.75" fill="#b4befe"/><rect width="95.03" height="4.49" x="136.18" y="248.93" fill="#b4befe"/><rect width="95.03" height="4.49" x="136.18" y="265.11" fill="#b4befe"/><rect width="41.24" height="4.49" x="136.18" y="313.64" fill="#b4befe"/><path d="m361.64,391.61H96.32c-17.44,0-31.63-14.23-31.63-31.71V24.71c0-17.48,14.19-31.71,31.63-31.71h265.33c17.44,0,31.63,14.23,31.63,31.71v335.19c0,17.48-14.19,31.71-31.63,31.71ZM96.32-5.65c-16.7,0-30.29,13.62-30.29,30.36v335.19c0,16.74,13.59,30.36,30.29,30.36h265.33c16.7,0,30.29-13.62,30.29-30.36V24.71c0-16.74-13.59-30.36-30.29-30.36H96.32Z"/></g><g transform="translate(98.62 669.37) scale(.40864)"><rect width="509.75" height="31.87" x="1.28" y="-.32" fill="#313244"/><path fill="#b4befe" d="m355.23,449.47h-198.15c-44.27,0-76.55-49.55-65.24-100.16l44.81-200.58c1.59-7.14,4.12-13.75,7.38-19.69,10.38-18.85,28.32-30.86,48.15-30.86h127.97c19.83,0,37.75,12,48.13,30.87,3.27,5.93,5.8,12.54,7.39,19.68l44.82,200.58c11.3,50.61-20.97,100.16-65.25,100.16Z"/><path fill="#313244" d="m368.27,129.05c-35,10.51-73.07,16.12-112.11,16.12s-77.12-5.62-112.13-16.13c10.38-18.85,28.32-30.86,48.15-30.86h127.97c19.83,0,37.75,12,48.13,30.87Z"/><path d="m511.56,32.08H.75V-.84h510.8v32.93ZM1.81,31.03h508.7V.21H1.81v30.82Z"/><path fill="#b4befe" d="m256.16,137.34h0c-90.02,0-174.79-29.85-228.89-80.58L1.05,32.17h510.2l-26.21,24.58c-54.1,50.73-138.87,80.58-228.89,80.58Z"/></g><g transform="translate(269.052 526.82) scale(1.05568)"><rect width="571.15" height="176.11" x="56.3" y="17.57" fill="#d5daf7" rx="38.79" ry="38.79"/><path fill="#33377c" d="M74.47 312.11h-12.57c-3.38 0-5.98-2.7-5.55-5.75l10.04-70.04c.36-2.54 2.74-4.43 5.55-4.43h27.63c3.8 0 6.5 3.38 5.32 6.67l-25.1 70.04c-.75 2.1-2.9 3.51-5.32 3.51zM609.29 312.11h12.57c3.38 0 5.98-2.7 5.55-5.75l-10.04-70.04c-.36-2.54-2.74-4.43-5.55-4.43h-27.63c-3.8 0-6.5 3.38-5.32 6.67l25.1 70.04c.75 2.1 2.9 3.51 5.32 3.51z"/><path fill="#e1e5ff" d="m625.01,250.98H58.74c-25.28,0-46.51-17.3-49.3-40.17l-5.64-46.17c-1.84-15.07,11.12-28.25,27.78-28.25h620.6c16.66,0,29.61,13.18,27.78,28.25l-5.64,46.17c-2.79,22.87-24.03,40.17-49.3,40.17Z"/><rect width="255.5" height=".67" x="214.36" y="135.85"/><rect width="566.02" height=".67" x="58.87" y="250.43"/></g><g transform="translate(121.53 468.338) scale(.4506)"><path fill="#929acb" d="m-2.06,446.41h237.26s85.2-134.54,85.2-134.54c5.33-9.17,1.37-35.6-21.64-35.6H111.15c-7.31,0-14.07,3.89-17.75,10.21L-2.06,446.41Z"/><path d="m235.69,447.31H-3.65l96.27-161.29c3.82-6.56,10.92-10.65,18.52-10.65h187.61c11.55,0,17.62,6.33,20.67,11.65,5.05,8.79,4.84,19.98,1.74,25.3l-85.48,134.99ZM-.48,445.51h235.18l84.93-134.12c2.83-4.86,2.97-15.24-1.76-23.47-2.82-4.9-8.42-10.74-19.11-10.74H111.15c-6.97,0-13.47,3.74-16.97,9.76L-.48,445.51Z"/><path fill="#4e5076" d="m18.76,446.26h223.44s78.2-134.39,78.2-134.39c5.33-9.17-1.28-20.67-11.89-20.67H120.79c-7.31,0-14.07,3.89-17.75,10.21L18.76,446.26Z"/><path d="m242.71,447.16H17.19l85.07-146.2c3.82-6.57,10.92-10.65,18.53-10.65h187.72c5.31,0,10.06,2.75,12.7,7.35,2.65,4.6,2.63,10.09-.04,14.67l-78.46,134.83Zm-222.39-1.8h221.36l77.94-133.94c2.34-4.02,2.35-8.84.03-12.87-2.32-4.04-6.49-6.45-11.14-6.45H120.79c-6.97,0-13.47,3.74-16.97,9.76L20.32,445.36Z"/><polygon fill="#909be0" points="102.42 446.05 321.49 446.05 273.61 386.67 54.54 386.67 102.42 446.05"/><path d="m323.34,446.94H101.99l-.27-.33-49.04-60.83h221.35l.27.33,49.04,60.83Zm-220.5-1.78h216.79l-46.44-57.61H56.4l46.44,57.61Z"/><polygon points="102.42 446.05 54.54 386.67 18.76 446.26 102.42 446.05"/><ellipse cx="198.5" cy="347.07" fill="#fff" rx="26.62" ry="18.52" transform="rotate(-34.38 198.474 347.05)"/><path d="M190.55 369.22c-6.41 0-11.57-2.35-14.55-6.63-2.95-4.24-3.36-9.84-1.17-15.77 4.48-12.08 18.66-21.9 31.61-21.9 6.41 0 11.57 2.35 14.55 6.63 2.95 4.24 3.36 9.84 1.17 15.77-4.48 12.08-18.66 21.9-31.61 21.9zm15.9-42.88c-12.41 0-26 9.41-30.29 20.98-2.03 5.48-1.68 10.62 1 14.47 2.7 3.88 7.45 6.02 13.38 6.02 12.41 0 26-9.41 30.29-20.98 2.03-5.48 1.68-10.62-1-14.47-2.7-3.88-7.45-6.02-13.38-6.02zM41.13 390.7h0c1.64.72 3.72 0 4.65-1.61l19.77-34.24c.93-1.61.35-3.49-1.29-4.21h0c-1.64-.72-3.72 0-4.65 1.61l-19.77 34.24c-.93 1.61-.35 3.49 1.29 4.21z"/></g><g transform="translate(970.776 293.064) scale(.59949)"><path fill="#3247ce" d="M132.48 773.94s-28.62-95.45-106.52-92.27c-77.9 3.18-53.26 124.08-26.23 113.74 27.03-10.34 81.42-92.15 106.52-59.66 27.03 35 21.46 44.54 21.46 44.54l4.77-6.36zM159.51 775.53s3.18-97.04 46.1-174.99c42.92-77.95 82.67-64.43 78.69-54.88-3.97 9.54-47.69 108.18-96.18 122.49 0 0-18.28 38.18-23.85 106.59l-4.77.8zM141.22 629.97s94.59-190.1 34.18-208.4c-60.41-18.29-72.34 93.86-71.54 130.45.79 36.59 18.28 134.43 37.36 77.95z"/><path fill="none" stroke="#11111b" stroke-linecap="round" stroke-linejoin="round" stroke-width="1.21" d="M149.97 767.58s-6.36-186.92-36.57-252.94M147.34 525.97c-11.66 29.63-14.06 67.42-8.5 101.62M194.48 624.4s20.67-39.77 48.49-26.25M99.93 730.19c-5.25-5.35-31.32-17.01-77.15 8.75"/><ellipse cx="63.32" cy="580.26" fill="#ff83a6" rx="13.51" ry="15.51"/><ellipse cx="67.3" cy="649.46" fill="#ff83a6" rx="12.33" ry="9.54" transform="rotate(-55.4 67.319 649.482)"/><ellipse cx="243.89" cy="695.26" fill="#ff83a6" rx="11.53" ry="9.54" transform="rotate(-3.48 243.95 695.383)"/><path fill="none" stroke="#11111b" stroke-linecap="round" stroke-linejoin="round" stroke-width="1.21" d="m70.48,579.86s15.1,7.95,25.44,38.98c6.12,18.38,37.36,112.15,46.1,156.7"/><path fill="none" stroke="#11111b" stroke-linecap="round" stroke-linejoin="round" stroke-width="1.21" d="M70.38 644.97c4.55-4.13 11.75-4.22 17.33-1.63 5.58 2.59 9.82 7.37 13.49 12.3 3.67 4.93 7 10.2 11.49 14.4M157.73 768.79c12.51-26.55 32.44-49.54 56.93-65.7 7.51-4.95 16.73-9.41 25.19-6.36"/><path fill="#b4befe" d="m255.49,882.52c0,12.19-3.5,23.76-9.79,34.19-7.06,11.72-18.97,18.71-31.68,18.71H75.17c-12.71,0-24.62-6.99-31.68-18.71-6.29-10.43-9.79-21.99-9.79-34.19,0-36.24,30.95-67.06,74.11-78.44l-.03-.1-.34-1.18-8.85-30.1c-2.03-6.93,3.16-13.87,10.37-13.87h71.27c7.21,0,12.4,6.94,10.37,13.87l-8.85,30.1-.34,1.18-.03.1c43.16,11.37,74.11,42.2,74.11,78.44Z"/><path fill="#fff" d="m181.75,802.8l-.34,1.18h-73.62l-.34-1.18c.06-.02.11-.03.17-.03h73.97c.06,0,.11,0,.17.03Z"/></g><g transform="translate(314.067 339.194) scale(.60573)"><path fill="#33377c" d="m122.02,216.48c-.81,0,33.02-20.15,50.73-70.91,17.72-50.77,37.85-50.77,50.73-49.16,12.88,1.61,45.09,8.86,41.87,39.49-3.22,30.62-34.53,84.24-24.92,98.13l-118.42-17.54Z"/><polygon fill="#ff83a6" points="122.94 201.52 182.41 200.37 248.44 222.93 315.27 253.55 291.12 412.3 72.09 466.29 122.94 201.52"/><rect width="76.63" height="140.56" x="308.97" y="237.64" fill="#ff83a6" rx="38.31" ry="38.31" transform="rotate(-38.32 347.25 307.912)"/><path fill="#ff83a6" d="m354.73,288.2s-33.02,5.64-39.46,16.92c-6.44,11.28,4.03,35.46,9.66,49.96,5.64,14.5,19.81,31.18,48.31,24.98,18.52-4.03,77.06-27.46,24.96-81.39-23.35-24.17-43.48-10.48-43.48-10.48Z"/><path fill="#f38ba8" d="m224.28,243.88c-40.26-4.83-67.64-41.1-67.64-41.1,28.18-4.83,33.82-43.51,33.82-43.51,0,0,2.42-14.5,24.16-9.67,26.66,5.93,26.25,24.44,25.86,28.3-.05.46-.1.71-.1.71,0,0-3.22,16.12-1.61,30.62.23,2.01.57,3.73,1.01,5.2,2.68,9.1,8.66,8.5,8.66,8.5,0,0,16.1,25.79-24.16,20.95Z"/><path d="M240.39 178.61s-3.22 16.12-1.61 30.62c.23 2.01.57 3.73 1.01 5.2-1.25.29-2.66.44-4.23.44-24.16 0-31.4-43.51-31.4-43.51l36.33 6.54c-.05.46-.1.71-.1.71zM338.63 344.61s0 34.65 27.38 31.43c27.38-3.22 56.37-24.98 43.48-53.18-12.88-28.2-70.86 21.76-70.86 21.76zM318.36 340.58c-.28 0-.53-.2-.59-.48-2.85-14.02-3.9-28.38-3.11-42.67.02-.33.32-.6.64-.57.33.02.59.3.57.64-.78 14.19.26 28.44 3.09 42.36.07.33-.14.65-.47.71-.04 0-.08.01-.12.01zM72.09 433.25s4.83 12.89 64.42-48.35c63.44-65.2-7.77-35.58-19.19-25.04-11.41 10.54-54.9 48.41-45.23 73.39z"/><path fill="#f38ba8" d="m171.9,134.94c3.64-3.89,8.92-5.44,14.18-4.71,7.31-21.81,25-32.25,44.34-27.71,20.94,4.91,35.88,25.49,29.89,51.1-5.99,25.61-13.43,45.77-34.37,40.86-11.73-2.75-25.19-12.77-33.73-25.56-6.77-1.43-14-5.05-18.1-8.9-7.55-7.09-8.54-18.32-2.2-25.07Z"/><path d="m173.72,149.72l-1.2-.95c3.35-4.24,8.02-7.52,13.14-9.24l.49,1.45c-4.84,1.63-9.26,4.73-12.43,8.73Z"/><path fill="#fff" d="m177.73,144.66c.43,2.39.87,4.77,1.3,7.16"/><rect width="1.53" height="7.27" x="177.61" y="144.6" transform="rotate(-10.3 178.31 148.172)"/><ellipse cx="223.62" cy="142.95" rx="3.4" ry="2.43" transform="rotate(-76.85 223.626 142.95)"/><ellipse cx="248.43" cy="147.93" rx="3.4" ry="2.43" transform="rotate(-76.85 248.429 147.93)"/><path d="M243.82 164.79c-3.96-2.68-6.75-6.91-7.65-11.61-.9-4.7.12-9.66 2.81-13.62l1.27.86c-2.46 3.62-3.4 8.17-2.57 12.47.83 4.3 3.38 8.18 7 10.63l-.86 1.27zM231.38 173.75c-6.66-1.81-11.92-7.6-13.09-14.41l1.51-.26c1.05 6.14 5.98 11.56 11.99 13.19l-.4 1.48z"/><path d="m231.9,195.97c-1.96,0-4-.25-6.14-.75-12.1-2.84-25.42-12.88-34.02-25.62-6.69-1.47-13.96-5.08-18.16-9.03-7.85-7.37-8.85-19.1-2.23-26.16,3.55-3.79,8.71-5.61,14.21-5.02,7.45-21.47,25.06-32.3,45.04-27.62l-.35,1.49c-19.33-4.53-36.38,6.15-43.44,27.21l-.2.6-.63-.09c-5.24-.72-10.17.91-13.51,4.48-6.04,6.44-5.07,17.2,2.17,23.99,4.08,3.84,11.21,7.34,17.74,8.71l.31.06.17.26c8.25,12.37,21.62,22.51,33.27,25.24,3.96.93,7.58.95,10.76.07.03-.01,10.21-4.12,14.6-14.7l.17-.41c2.44-5.87,8.93-21.48,9.12-39.99l1.53.02c-.19,18.8-6.76,34.61-9.23,40.56l-.17.41c-4.65,11.2-15.08,15.39-15.53,15.57-1.73.48-3.55.72-5.45.72Z"/><path fill="#f38ba8" d="m304,232.6s-14.49,6.45-21.74-8.06l-7.25-14.5s-10.47,9.67-14.49.81c-4.03-8.86-20.13-32.23-7.25-33.84,0,0-2.42-12.09,8.86-10.48,0,0,0-12.89,13.69-5.64,0,0,6.44-10.48,12.88-5.64s38.65,53.18,38.65,53.18c0,0-2.42,24.17-23.35,24.17Z"/><path fill="#f38ba8" d="m385.86,367.77h0c-21.58,9.68-45.63.63-53.22-20.02l-39.91-114.34c-8.86-21.76,18.52-44.32,33.76-26.15l77.99,97.99c15.98,20.08,6.72,51.15-18.62,62.52Z"/><rect width="77.31" height="227.36" x="63.47" y="197.1" fill="#ff83a6" rx="38.65" ry="38.65" transform="rotate(19.33 102.127 310.877)"/><path fill="#ff83a6" d="m217.84,252.74l12.88-29.82,19.33,24.98s-13.69,9.67-32.21,4.83Z"/><path fill="#313244" d="m410.29,882.9c-19.33,14.5-74.89,6.45-99.85.81-19.33-4.37-47.51-19.34-53.15-32.23-1.21-2.76-2.42,10.48-2.42,10.48l-36.24-12.09,3.22-35.46c-3.22-15.31,3.22-25.79,3.22-25.79,0,0,.03,0,.1.02.97.28,9.4,2.7,21.95,6.28,11.08,4.02,23.14,9.98,27.88,17.87,9.66,16.12,20.13,23.37,44.29,33.84,24.16,10.48,76.5-8.86,63.61-14.5,14.49,3.22,46.7,36.26,27.38,50.77Z"/><path fill="#ff83a6" d="m238.34,199.14s2.86,17.34-7.61,23.79l17.72,29.82s11.27-15.31,4.83-29.01c-6.44-13.7-14.93-24.6-14.93-24.6Z"/><path fill="#ff83a6" d="m152.62,201.17l18.96-13.74c2.4-1.74,5.75-1.27,7.57,1.08,7.59,9.77,33.16,33.78,51.58,34.42,0,0,0,26.59-20.94,43.51l-57.17-65.27Z"/><path d="m218.24,261c-.17,0-.34-.07-.46-.21-.22-.25-.19-.63.06-.85,11.74-10.18,12.67-36.37,12.68-36.63,0-.27.19-.5.45-.57.26-.06.53.05.67.28l17.36,29.22c2.06-1.76,9.49-9.5,4.88-26.14-.09-.32.1-.65.42-.74.33-.09.65.1.74.42,2.88,10.41,1.16,17.41-.8,21.45-2.14,4.42-4.96,6.34-5.08,6.42-.14.09-.31.12-.47.09-.16-.04-.3-.14-.39-.28l-16.71-28.12c-.19,2.58-.66,7.38-1.81,12.73-2.3,10.69-6.06,18.36-11.17,22.79-.11.1-.25.15-.4.15Z"/><path fill="#f9faff" d="m290.51,428.34l-103.99-12.68c-1.7-.21-3.1-1.47-3.45-3.15-11.22-53.66-3.51-108.94,20.26-165.58.7-1.66,2.41-2.65,4.2-2.43l103.49,12.62c2.67.33,4.27,3.13,3.2,5.6-19.64,45.27-26.16,98.92-19.22,161.18.29,2.58-1.91,4.75-4.48,4.43Z"/><path fill="#b4befe" d="M291.12 274.91c-.15 0-.31-.01-.47-.03l-68.45-8.86c-1.98-.26-3.39-2.08-3.13-4.06.26-1.99 2.08-3.38 4.06-3.13l68.45 8.86c1.98.26 3.39 2.08 3.13 4.06-.24 1.83-1.8 3.16-3.59 3.16zM285.49 289.41c-.15 0-.31-.01-.47-.03l-68.45-8.86c-1.98-.26-3.39-2.08-3.13-4.06.26-1.99 2.08-3.39 4.06-3.13l68.45 8.86c1.98.26 3.39 2.08 3.13 4.06-.24 1.83-1.8 3.16-3.59 3.16z"/><path d="m221.22,157.84c-.75,0-1.49-.11-2.21-.33-5.2-1.59-7.69-8.58-5.55-15.59,1.02-3.36,2.95-6.24,5.42-8.1,2.53-1.9,5.32-2.52,7.88-1.74,2.55.78,4.53,2.85,5.57,5.84,1.02,2.92,1.01,6.38-.01,9.74h0c-1.02,3.36-2.95,6.24-5.42,8.1-1.81,1.36-3.77,2.07-5.67,2.07Zm3.34-24.87c-1.65,0-3.35.62-4.95,1.82-2.27,1.71-4.04,4.36-4.99,7.48-1.94,6.37.19,12.69,4.75,14.08,2.17.66,4.59.11,6.8-1.55,2.27-1.71,4.04-4.36,4.99-7.48h0c.95-3.12.96-6.31.03-9-.91-2.61-2.61-4.42-4.78-5.08-.6-.18-1.22-.27-1.85-.27Z"/><polygon fill="#b4befe" points="236.36 517.06 221.87 708.04 338.63 708.04 375.67 466.29 236.36 517.06"/><path d="m247.15,164.29c-.8,0-1.59-.12-2.36-.35-5.18-1.58-7.8-8.13-5.83-14.61.95-3.11,2.8-5.75,5.22-7.43,2.46-1.71,5.22-2.22,7.75-1.45,2.54.77,4.54,2.74,5.63,5.53,1.07,2.74,1.14,5.97.2,9.08h0c-.95,3.11-2.8,5.75-5.22,7.43-1.71,1.19-3.57,1.8-5.39,1.8Zm2.44-23.02c-1.59,0-3.22.54-4.74,1.59-2.21,1.53-3.9,3.95-4.78,6.81-1.78,5.86.48,11.76,5.06,13.16,2.19.67,4.59.21,6.75-1.29,2.21-1.53,3.9-3.95,4.78-6.81h0c.87-2.86.81-5.82-.17-8.32-.96-2.45-2.7-4.17-4.89-4.84-.66-.2-1.33-.3-2.02-.3Z"/><rect width="1.21" height="31.08" x="200.73" y="116.73" transform="rotate(-73.43 201.34 132.274)"/><path fill="#313244" d="m619.66,629.87c-20.94,26.59-62,45.93-62,45.93-34.63-8.86-52.34,1.61-52.34,1.61l20.94,23.37-37.85,22.56-18.52-24.17c-16.91-14.5-16.1-26.59-16.1-26.59,0,0,19.33,1.61,33.82-10.48,14.49-12.09,62-13.7,70.06-20.15,8.05-6.45,42.68-40.29,26.57-43.51,35.43-12.89,56.37,4.83,35.43,31.43Z"/><rect width="1.21" height="9.73" x="236.16" y="137.88" transform="rotate(-65.54 236.765 142.752)"/><path fill="#b4befe" d="m75.31,447.75l-8.58,44.74c-7.02,35.42,21.65,67.78,57.63,65.05l59.26-4.5c11.77-.89,23.44-2.92,34.82-6.05l108.9-29.94,60.39,78.97,84.55-59.63-65.37-119.29c-25.4-46.36-80.79-67.26-130.45-49.23l-201.17,79.87Z"/><path fill="#f38ba8" d="m196.1,341.39s16.1-16.92,27.38-19.34c20.07-4.3,26.66-19.1,32.49-26.83,2.57-3.41,7.05-4.97,11.09-3.59,4.13,1.41,7.55,5.44,4.73,15.92-5.64,20.95-8.05,31.43,10.47,33.04,18.52,1.61,33.02.81,23.35,23.37,0,0,8.86,12.09-8.05,20.15,0,0,7.25,7.25-3.22,14.5-10.47,7.25-87.77,13.7-87.77,13.7,0,0-24.16-3.22-26.57-30.62-2.42-27.4,16.1-40.29,16.1-40.29Z"/><path fill="#f38ba8" d="m209.79,412.3c-36.39,16.4-78.97,19.88-125.13,15.87-33.04-2.87-53.99-33.7-42.33-62.03h0c7.66-18.62,27.54-30.66,49.33-29.86l118.13,4.31v71.72Z"/><path fill="#ff83a6" d="m143.75,338.17s-84.54,62.04-71.66,95.08c0,0-24.16-7.25-25.77-16.92-1.15-6.88-8.82-24.78-13.14-34.53-1.86-4.19-1.75-8.99.3-13.09l8.95-17.92c1.49-2.98,4.02-5.3,7.12-6.51,13.45-5.28,51.3-19.27,66.83-15.78,19.04,4.28,27.37,9.68,27.37,9.68Z"/><path fill="#f38ba8" d="M387.75 596.03s21.17 23.85 47.51 54.8l18.52 21.76s19.33 1.61 33.82-10.48c14.49-12.09 62-13.7 70.06-20.15 8.05-6.45 42.68-40.29 26.57-43.51-16.1-3.22-49.93 1.61-66.03-2.42-16.1-4.03-50.33-56.51-50.33-56.51l-80.12 56.51zM338.63 708.04s-8.86 61.24-.81 76.55c8.05 15.31 32.21 41.9 45.09 47.54 12.88 5.64-39.46 24.98-63.61 14.5-24.16-10.48-34.63-17.73-44.29-33.84-9.66-16.12-49.93-24.17-49.93-24.17 0 0 4.03-15.31 4.03-33.84s-2.45-46.74-2.45-46.74h111.97z"/><path fill="#33377c" d="m242.8,115.75s-37.85,24.98-60.39,12.89c0,0,13.69-29.01,33.82-29.82,20.13-.81,36.24,9.67,41.07,18.53,4.83,8.86,4.22,16.33,4.22,16.33,0,0-11.47-5.86-18.71-17.94Z"/><path d="M191.67 246.5c-.17 0-.34-.07-.46-.21l-38.65-44.32c-.22-.25-.19-.63.06-.85s.63-.19.85.06l38.65 44.32c.22.25.19.63-.06.85-.11.1-.26.15-.4.15zM135.3 333.53c-.07 0-.14-.01-.21-.04-.31-.11-.48-.46-.36-.77l17.67-49.04c-.1-1.94-1.86-28.59-24.85-60.8-.19-.27-.13-.65.14-.84.27-.2.65-.13.84.14 12.53 17.55 18.68 33.34 21.63 43.5 3.21 11.03 3.44 17.8 3.45 18.08 0 .08-.01.15-.04.22l-17.72 49.16c-.09.25-.32.4-.57.4zM69.22 362.97c-.17 0-.34-.07-.46-.21-.22-.25-.19-.64.07-.85 21.25-18.07 48.54-27.32 72.98-24.75.33.04.57.33.54.66-.04.33-.34.58-.66.54-24.12-2.54-51.07 6.61-72.07 24.47-.11.1-.25.14-.39.14z"/><path d="M57.59 342.2c-.24 0-.47-.14-.56-.38-.12-.31.03-.66.34-.79 14.66-5.84 27.96-10.81 42.21-12.54 16.4-1.98 31.51 1.16 42.55 8.84.27.19.34.57.15.84-.19.27-.57.34-.84.15-10.79-7.51-25.61-10.58-41.72-8.63-14.1 1.7-27.32 6.65-41.9 12.46-.07.03-.15.04-.22.04zM293.93 366.57c-.28 0-.53-.19-.59-.48-.07-.33.14-.65.46-.72l11.27-2.42c.32-.07.65.14.72.46.07.33-.14.65-.46.72l-11.27 2.42s-.08.01-.13.01zM291.06 385.78c-.28 0-.53-.19-.59-.48-.07-.33.14-.65.46-.72l6.9-1.48c.32-.07.65.14.72.46.07.33-.14.65-.46.72l-6.9 1.48s-.08.01-.13.01zM274.61 210.24c-.23 0-.45-.14-.55-.36l-5.64-12.89c-.13-.31 0-.66.31-.8.3-.13.66 0 .8.31l5.64 12.89c.13.31 0 .66-.31.8-.08.03-.16.05-.24.05zM263.34 178s-.03 0-.05 0l-9.66-.81c-.33-.03-.58-.32-.55-.65.03-.33.33-.58.65-.55l9.66.81c.33.03.58.32.55.65-.03.32-.29.55-.6.55zM270.28 168.17s-.03 0-.05 0l-7.75-.65c-.33-.03-.58-.32-.55-.65.03-.33.33-.57.65-.55l7.75.65c.33.03.58.32.55.65-.03.32-.29.55-.6.55zM279.94 161.39s-.03 0-.05 0l-3.72-.31c-.33-.03-.58-.32-.55-.65s.32-.57.65-.55l3.72.31c.33.03.58.32.55.65-.03.32-.29.55-.6.55zM292.06 234.25c-.3 0-.56-.22-.6-.53-.04-.33.19-.63.52-.68 4.22-.53 8.33-2.05 11.88-4.4.28-.19.65-.11.84.17.18.28.11.65-.17.84-3.7 2.45-7.99 4.04-12.4 4.6-.03 0-.05 0-.08 0zM388.15 596.23c-.18 0-.36-.08-.48-.24l-96.63-125.71c-.2-.26-.15-.64.11-.85.27-.2.64-.15.85.11l96.63 125.71c.2.26.15.64-.11.85-.11.08-.24.13-.37.13z"/><path d="m203.19,551.11c-.3,0-.56-.23-.6-.53-.04-.33.2-.63.53-.67,27.25-3.17,123.09-33.12,124.05-33.42.32-.1.66.08.76.4.1.32-.08.66-.4.76-.97.3-96.91,30.28-124.27,33.47-.02,0-.05,0-.07,0Z"/></g><g transform="translate(595.956 350.325) scale(.60697)"><rect width="64.62" height="205.7" x="258.61" y="182.84" fill="#ff83a6" rx="32.31" ry="32.31" transform="rotate(20.56 290.95 285.71)"/><path fill="#ff83a6" d="m420.81,158.36l44.48,4.26c54.35,5.21,92.12,56.53,80.95,110.02l-30.46,145.94H246.43l44.44-208.03c2.37-11.11,10.4-20.16,21.14-23.84l69.1-23.68,39.7-4.67Z"/><path fill="#313244" d="m349.72,173.48s13.49,44.08,21.27,52.65c0,0,25.69-44.41,46.71-57.65,0,0-49.55,11.56-67.98,5Z"/><path fill="#fac9d7" d="m356.2,147.45s1.56,23.37-11.68,30.38c0,0-5.64,18.85,35.81,14.02,33.48-3.9,51.38-32.72,51.38-32.72,0,0-31.14-21.04-38.93-43.63,0,0-10.9-6.23-23.36-.78-12.46,5.45-16.35,19.48-13.23,32.72Z"/><path fill="#f90045" d="M370.21 226.14s48.97-67.43 38.89-86.3c0 0 10.94-4.07 22.62 19.3 0 0 5.45 16.36 5.45 22.59s-28.03 3.9-37.37 14.02c-9.34 10.13-23.36 27.27-29.58 30.38zM354.75 162.62s-5.56 26.12 15.46 62.73c0 0-14.01-20.26-20.24-21.04-3.85-.48-10.68-.96-15.33-1.26-2.58-.16-4.35-2.64-3.69-5.14 2.55-9.54 8.77-30.32 15.9-35.67 4.67-3.51 7.76-4.09 8.56-3.12 0 .78-.67 3.49-.67 3.49z"/><path fill="#fac9d7" d="m401.83,95.11c-3.7-3.17-8.64-4.05-13.34-2.86-8.81-19.07-25.91-26.79-43.03-20.75-18.53,6.54-30.05,26.73-22.06,49.39,7.99,22.66,16.76,40.23,35.28,33.68,10.38-3.66,21.61-14.11,28.09-26.58,6-1.97,12.21-5.98,15.56-9.89,6.15-7.19,5.93-17.49-.5-22.99Z"/><path d="m401.65,108.71c-3.28-3.32-7.6-5.7-12.16-6.69l.3-1.37c4.82,1.05,9.39,3.56,12.86,7.08l-.99.98Z"/><path fill="#fff" d="m397.51,104.52c-.16,2.21-.31,4.42-.47,6.63"/><rect width="6.64" height="1.4" x="393.95" y="107.13" transform="rotate(-85.94 397.284 107.827)"/><ellipse cx="355.66" cy="107.54" rx="2.22" ry="3.1" transform="rotate(-19.4 355.623 107.542)"/><ellipse cx="333.63" cy="114.54" rx="2.22" ry="3.1" transform="rotate(-19.4 333.596 114.525)"/><path d="M339.49 129.39l-.9-1.07c3.05-2.59 4.98-6.36 5.3-10.35.32-3.99-.98-8.02-3.58-11.07l1.06-.91c2.83 3.33 4.26 7.73 3.91 12.09-.35 4.36-2.46 8.48-5.79 11.31zM351.67 136.29l-.51-1.3c5.29-2.08 9.23-7.5 9.57-13.18l1.4.09c-.38 6.3-4.59 12.09-10.46 14.4z"/><path d="M358.92 155.23l-.47-1.32c10.3-3.64 21.43-14.19 27.7-26.24l.13-.25.27-.09c5.79-1.9 11.91-5.79 15.24-9.68 5.89-6.89 5.7-16.76-.42-22-3.39-2.91-8.03-3.9-12.72-2.72l-.56.14-.24-.53c-8.51-18.42-25.05-26.42-42.16-20.38l-.47-1.32c17.67-6.24 34.75 1.84 43.65 20.6 4.95-1.08 9.8.06 13.41 3.14 6.71 5.75 6.97 16.5.58 23.98-3.43 4.01-9.67 8.01-15.6 10.01-6.54 12.43-17.64 22.88-28.34 26.66zM457.4 265.9s6.23 13.87-18.68 63.65c-24.91 49.78-14.01-13.06-9.34-25.3 4.67-12.24 16.35-43.25 28.03-38.35z"/><polygon fill="#fff" points="375.66 236.42 368.65 236.42 369.59 225.2 370.99 225.2 375.66 236.42"/><path fill="#fac9d7" d="m336.73,287.69s-1.56,16.36,2.34,24.15c2.34,4.67,47.49,5.45,37.37-9.35-10.12-14.8-39.7-14.8-39.7-14.8Z"/><path fill="#fac9d7" d="m451.18,269.77l-62.41-28.14c-5.45-2.46-11.59-2.86-17.31-1.14-22.41,6.73-80.3,24.28-91.55,29.29-14.01,6.23-7.01,24.93,10.12,21.04,17.13-3.9,45.93-12.47,45.93-12.47,0,0,37.37,42.07,51.38,43.63s30.36-3.12,30.36-3.12c0,0,24.13-2.34,35.03-20.26,10.9-17.92-1.56-28.83-1.56-28.83Z"/><path d="M410.55 318.08c-12.95 0-26.08-6.11-33.82-16.46-.19-.26-.14-.62.12-.82.26-.19.62-.14.82.12 9.63 12.86 27.82 18.99 43.26 14.56.31-.09.63.09.72.4.09.31-.09.63-.4.72-3.47 1-7.08 1.47-10.7 1.47zM355.03 315.42c-.39 0-.77 0-1.16 0-6.85-.1-14.25-1.16-15.33-3.32-3.92-7.85-2.46-23.79-2.39-24.47.03-.3.28-.53.58-.53.07 0 7.56.02 16.18 1.86 8.01 1.71 18.67 5.39 24.01 13.19 1.7 2.49 2.03 4.73.99 6.68-2.61 4.87-13.31 6.58-22.87 6.58zm-17.76-27.14c-.22 2.88-1.06 16.53 2.32 23.3.61 1.22 6.12 2.55 14.3 2.67 9.76.15 20.67-1.65 22.99-5.96.82-1.53.51-3.37-.92-5.47-9.09-13.29-34.65-14.44-38.69-14.54z"/><path fill="#fac9d7" d="m347.63,250.29l-20.88,25.82c-3.16,3.91-2.82,9.59.8,13.08l16.97,16.42s5.45,3.12,11.68-3.12c0,0,14.01,7.01,24.91-1.56,0,0,19.46,7.01,28.03-7.79,8.56-14.8-13.23-12.47-13.23-12.47l-6.23-9.35,5.45-12.47"/><path d="m348.03,306.95c-2.28,0-3.77-.82-3.8-.83-.04-.02-.08-.05-.12-.09l-16.97-16.42c-3.86-3.73-4.22-9.69-.84-13.87l14.24-17.6c.2-.25.57-.29.82-.09.25.2.29.57.09.82l-14.24,17.6c-2.99,3.7-2.67,8.98.75,12.29l16.91,16.36c.6.31,5.37,2.5,10.92-3.05.18-.18.45-.22.67-.11.14.07,13.82,6.74,24.29-1.5.16-.12.37-.16.56-.09.19.07,19.11,6.67,27.32-7.53,2.05-3.54,2.45-6.31,1.21-8.23-2.91-4.48-13.77-3.37-13.87-3.36-.22.02-.43-.08-.55-.26l-6.23-9.35c-.11-.17-.13-.38-.05-.56l5.45-12.47c.13-.3.47-.43.77-.3.29.13.43.47.3.77l-5.32,12.17,5.86,8.79c2.01-.17,11.61-.72,14.62,3.92,1.51,2.32,1.11,5.5-1.18,9.45-8.11,14.02-25.86,8.97-28.42,8.15-10.01,7.62-22.57,2.64-24.9,1.6-3.12,2.99-6.08,3.76-8.29,3.76Z"/><path d="M381.11 301.52c-.2 0-.4-.1-.5-.29l-12.97-22.07c-1.74-2.96-2.1-6.52-.98-9.76l4.73-13.72c.11-.3.44-.47.74-.36.3.1.47.44.36.74l-4.73 13.72c-1.01 2.92-.69 6.13.88 8.79l12.97 22.07c.16.28.07.64-.21.8-.09.05-.19.08-.29.08zM356.2 303.07c-.19 0-.37-.09-.48-.26l-13.11-19.39c-3.01-4.45-2.91-10.36.23-14.7l7.77-10.74c.19-.26.55-.32.82-.13.26.19.32.55.13.82l-7.77 10.74c-2.86 3.95-2.95 9.32-.21 13.37l13.11 19.39c.18.27.11.63-.16.81-.1.07-.21.1-.33.1zM249.54 406.69s-.08 0-.12-.01c-.31-.07-.52-.38-.45-.69l42.82-200.23c.07-.32.39-.52.69-.45.31.07.52.38.45.69l-42.82 200.23c-.06.27-.3.46-.57.46z"/><path fill="#929acb" d="m384.94,344.83l-169.49,22.9-73.84-87.96c-4.7-6.04-4.41-25.32,12.02-27.54l134.02-18.11c5.22-.71,10.43,1.42,13.66,5.58l83.62,105.12Z"/><path d="m215.18,368.42l-.23-.27-73.84-87.96c-2.74-3.53-3.97-11.5-1.21-18.27,1.67-4.09,5.39-9.21,13.65-10.32l134.02-18.11c5.43-.74,10.9,1.5,14.26,5.83l84.32,106.01-170.97,23.1Zm74.44-133.77c-.62,0-1.25.04-1.88.13l-134.02,18.11c-7.64,1.03-11.08,5.75-12.62,9.53-2.59,6.34-1.49,13.75,1.02,16.97l73.59,87.66,168-22.7-82.9-104.22c-2.7-3.47-6.86-5.47-11.19-5.47Z"/><path fill="#4e5076" d="m370.05,346.73l-159.62,21.56-68.82-88.52c-4.7-6.04-1.08-14.9,6.5-15.92l134.1-18.12c5.22-.71,10.43,1.42,13.66,5.58l74.18,95.41Z"/><path d="m210.15,368.99l-69.05-88.82c-2.35-3.02-2.89-6.94-1.44-10.49s4.57-5.97,8.36-6.48l134.1-18.12c5.43-.73,10.9,1.5,14.26,5.83l74.87,96.3-1.12.15-159.99,21.61Zm74.02-122.74c-.62,0-1.25.04-1.88.13l-134.1,18.12c-3.33.45-6.07,2.57-7.34,5.68-1.27,3.11-.8,6.55,1.26,9.2l68.59,88.23,158.13-21.36-73.49-94.52c-2.69-3.47-6.86-5.47-11.19-5.47Z"/><polygon fill="#909be0" points="310.27 354.65 153.77 375.8 182.24 328.72 338.74 307.58 310.27 354.65"/><path d="m152.53,376.61l29.32-48.48.3-.04,157.82-21.32-29.32,48.48-.3.04-157.82,21.32Zm30.1-47.29l-27.62,45.66,154.87-20.92,27.62-45.66-154.87,20.92Z"/><polygon points="310.27 354.65 338.74 307.58 370.05 346.73 310.27 354.65"/><ellipse cx="232.08" cy="293.17" fill="#fff" rx="13.36" ry="19.19" transform="rotate(-63.26 232.109 293.176)"/><path d="M237.27 308.41c-8.63 0-18.11-5.34-22.07-12.78-2.14-4.02-2.39-8.07-.69-11.38 1.71-3.34 5.18-5.52 9.75-6.14 9.25-1.25 20.33 4.4 24.7 12.61h0c2.14 4.02 2.39 8.07.69 11.38-1.71 3.34-5.18 5.52-9.75 6.14-.86.12-1.74.17-2.63.17zm-10.35-29.46c-.85 0-1.69.05-2.52.17-4.24.57-7.43 2.56-8.98 5.6-1.54 3.01-1.3 6.72.68 10.44 4.18 7.85 14.79 13.27 23.66 12.07 4.24-.57 7.43-2.56 8.98-5.6 1.54-3.01 1.3-6.72-.68-10.44h0c-3.79-7.12-12.87-12.24-21.14-12.24zM348.71 309.17h0c-1.1.67-2.66.36-3.48-.7l-17.43-22.57c-.82-1.06-.59-2.46.51-3.14h0c1.1-.67 2.66-.36 3.48.7l17.43 22.57c.82 1.06.59 2.46-.51 3.14z"/><path fill="#fac9d7" d="m214.68,266.12c-5.19-1.71-10.29-.24-10.29-.24,2.42-3.33,1.53-6.53-.46-9.2-3.7-4.95-10.34-6.66-16.11-4.45-16.13,6.17-54.32,22.15-57.38,36.25-2.71,12.48,21.01,46.5,35.66,66,5.5-9.3,11.05-20.81,19.12-21.65,5.62-.36,31.72-2.5,32.42-10.85.78-9.35-36.49-4.52-36.49-4.52l26.28-10.12c2.38-.92,5.99-2.32,7.88-4.05,9.34-8.57,1.56-18.7-7.79-14.8l8.97-5.3c6.94-4.1,5.87-14.53-1.79-17.05Z"/><path d="M164.68 285.15c-.22 0-.43-.12-.53-.34-.14-.29-.01-.64.28-.78l39.7-18.7c.29-.14.64-.01.78.28.14.29.01.64-.28.78l-39.7 18.7c-.08.04-.16.06-.25.06zM174.02 304.63c-.22 0-.43-.12-.53-.34-.14-.29-.01-.64.28-.78l39.7-18.7c.29-.14.64-.01.78.28.14.29.01.64-.28.78l-39.7 18.7c-.08.04-.16.06-.25.06zM188.97 333.1c-.31 0-.57-.24-.58-.55-.02-.32.23-.6.55-.61 21.35-1.11 27.41-8.18 27.47-8.25.21-.25.57-.29.82-.08.25.2.29.57.08.82-.25.31-6.35 7.54-28.31 8.68-.01 0-.02 0-.03 0z"/><rect width="88.41" height="241.81" x="483" y="184.1" fill="#ff83a6" rx="44.2" ry="44.2" transform="rotate(-21.14 527.173 305)"/><path fill="#fac9d7" d="m593.22,401.76h0c-13.2,20.55-40.54,26.51-61.08,13.3l-120.9-95.81c-11.55-9.15-11.06-26.84.97-35.34l16.09-11.36c7.8-5.51,18.07-6.07,26.41-1.43l125.21,69.52c20.54,13.21,26.49,40.57,13.29,61.12Z"/><path fill="#ff83a6" d="m559.39,426.37c-14.47,4.14-111.96-62.58-134.11-77.92,2.28.16,6.45-4.94,13.44-18.9,24.91-49.78,18.68-63.65,18.68-63.65h0v-.02s94.99,35.06,131.04,81.88c36.05,46.82-12.7,73.94-29.05,78.61Z"/><path d="M544.19 309.98c-.11 0-.22-.03-.32-.1-38.6-25.26-83.5-42.28-86.52-43.4-.17-.01-.33-.1-.43-.24-.11-.15-.14-.35-.08-.52.05-.15.16-.29.3-.36s.31-.09.46-.03c.47.17 47.03 17.49 86.91 43.58.27.18.35.54.17.81-.11.17-.3.26-.49.26zM513.35 406.35c-.1 0-.2-.03-.3-.08-33.82-20.01-75.99-48.94-88.1-57.33-.27-.18-.33-.55-.15-.81.18-.26.55-.33.81-.15 12.11 8.39 54.25 37.3 88.03 57.29.28.16.37.52.21.8-.11.18-.3.29-.5.29z"/><path d="m465.53,268.58c-.23,0-.46-.14-.54-.37l-7.17-18.58c-6.5-16.84-2.32-35.83,10.64-48.39.23-.22.6-.22.83.01.22.23.22.6-.01.83-12.63,12.23-16.7,30.72-10.37,47.12l7.17,18.58c.12.3-.03.64-.33.76-.07.03-.14.04-.21.04Z"/><path fill="#b4befe" d="m515.79,418.58H211.22c-53.32,0-92.11,50.63-78.27,102.16l69.87,260.12s81.74,51.42,181.39,21.04c0,0-10.9-90.38-8.56-111.41,2.34-21.04,21.8-133.23,21.8-133.23l64.6,4.73h0c39.1,5.4,72.28-28.59,65.98-67.58l-12.25-75.83Z"/><path fill="#313244" d="m297.81,858.77H80.94c-4.39,0-8.37-1.92-11.25-5.02-2.87-3.1-4.66-7.39-4.66-12.12.03-.65.07-1.29.13-1.92,4.16-45.68,80.01-48.55,97.46-66.64,18.79-19.48,29.64-33.5,29.64-33.5,23.85-3.12,25.62,25.71,44.1,35.06,18.47,9.35,57.11,8.57,57.11,8.57l2.83,49.39,1.5,26.18Z"/><path d="m298.43,859.35H80.94c-4.41,0-8.56-1.85-11.68-5.2-3.1-3.35-4.81-7.8-4.81-12.52.03-.68.07-1.34.14-1.98,2.76-30.37,36.98-42.1,64.48-51.53,14.62-5.01,27.25-9.34,33.14-15.45,18.55-19.23,29.49-33.31,29.6-33.45l.15-.19.24-.03c14.52-1.89,20.98,7.64,27.81,17.73,4.55,6.72,9.25,13.66,16.62,17.39,18.13,9.18,56.45,8.51,56.84,8.51h.56s4.4,76.74,4.4,76.74Zm-105.85-119.24c-1.38,1.75-12.11,15.3-29.53,33.36-6.09,6.31-18.84,10.69-33.6,15.75-27.18,9.32-61,20.92-63.7,50.54-.06.62-.1,1.26-.13,1.9,0,4.4,1.6,8.57,4.5,11.7,2.89,3.11,6.74,4.83,10.82,4.83h216.25l-4.27-74.4c-2.24.02-10.89.04-21.12-.79-10.97-.89-26.07-2.98-35.7-7.85-7.64-3.87-12.43-10.94-17.06-17.78-6.59-9.73-12.81-18.92-26.46-17.25Z"/><path d="M297.81 858.77H80.94c-4.39 0-8.37-1.92-11.25-5.02-2.87-3.1-4.66-7.39-4.66-12.12.03-.65.07-1.29.13-1.92l231.14-7.11 1.5 26.18zM246.42 798.21c-.31 0-.57-.25-.58-.56l-11.57-306.62c-.65-17.09 5.62-33.19 17.64-45.34 12.02-12.15 28.08-18.57 45.13-18.11l187.62 5.22c.32 0 .58.28.57.6 0 .32-.3.57-.6.57l-187.62-5.22c-16.77-.46-32.48 5.84-44.27 17.76-11.79 11.92-17.94 27.72-17.31 44.48l11.57 306.62c.01.32-.24.59-.56.61 0 0-.02 0-.02 0z"/><path d="m390.45,600.69s-.06,0-.09,0c-.32-.05-.54-.35-.48-.67l12.46-77.91c.05-.32.35-.54.67-.48.32.05.54.35.48.67l-12.46,77.91c-.05.29-.29.49-.58.49Z"/><path d="m399.93,547.19c-.16,0-.33-.07-.44-.2-.21-.24-.18-.61.06-.82,11.41-9.81,18.7-24.03,20-39.03.03-.32.32-.56.63-.53.32.03.56.31.53.63-1.32,15.3-8.76,29.81-20.4,39.81-.11.09-.25.14-.38.14Z"/><path fill="#33377c" d="m379.46,108.88c-.24.9-1.53.92-1.78.03-1.15-4.12-3.41-7.85-2.5-12.03.73-3.33.81-9.58-3.01-11.43-2.89-1.4-7.06,1.18-11.42,3.02-12.95,5.44-37.21,15.16-52.15,6.17-4.58-2.75-11.21-10.84-13.14-15.82-1.93-4.98-2.63-10.34-3.31-15.64,13.15,3.73,27.18,4.28,40.58,1.6,8.66-1.74,17.22-4.81,26.04-4.3s18.25,6.03,19.44,14.79c5.11-3.71,12.81-3.26,17.46,1.01,4.56,4.19,1.62,16.26,1.62,16.26-4.3-.96-9.31-.7-12.64,3.49-2.82,3.55-3.96,8.34-5.17,12.86Z"/><path fill="#313244" d="m400.9,850.97c-.65,11.97-1.88,22.59-1.88,22.59,0,0-196.97,1.56-227.33,0-12.21-.63-28-3.92-32.7-14.8-1.21-2.81-1.96-5.39-2.27-7.79-1.46-11.45,7.15-18.79,24.07-26.49,16.85-7.67,66.95-48.3,66.95-48.3,0,0,7.01-30.38,27.25-31.94s17.91,31.16,60.72,35.84c42.82,4.67,63.35-17.17,63.35-17.17,0,0,1.27,10.94,14.5,38.21,4.56,9.4,6.63,18.97,7.37,27.49.56,6.36.38,14.65-.04,22.37Z"/><path d="m400.9,850.97c-.65,11.97-1.88,22.59-1.88,22.59,0,0-196.97,1.56-227.33,0-12.21-.63-28-3.92-32.7-14.8-1.21-2.81-1.96-5.39-2.27-7.79h264.18Z"/><path d="m244.06,874.84c-33.7,0-62.33-.17-72.4-.69-10.19-.53-28.04-3.19-33.2-15.16-1.24-2.86-1.99-5.46-2.32-7.95-1.6-12.55,8.6-19.91,24.41-27.1,16.13-7.34,63.6-45.62,66.67-48.1.67-2.66,8.16-30.69,27.72-32.2,8.92-.69,13.51,4.94,19.32,12.07,7.66,9.41,17.18,21.11,41.52,23.77,21.99,2.4,37.92-2.36,47.42-6.78,10.26-4.77,15.39-10.15,15.44-10.21l.86-.91.15,1.25c.01.11,1.43,11.2,14.45,38.02,4.05,8.34,6.55,17.66,7.43,27.7.49,5.51.47,13.07-.04,22.45-.64,11.86-1.87,22.52-1.89,22.63l-.06.51h-.52c-1.31.01-88.11.69-154.96.69Zm12.29-130.07c-.43,0-.86.02-1.31.05-19.58,1.51-26.66,31.19-26.72,31.49l-.04.2-.16.13c-.5.41-50.36,40.77-67.08,48.38-18.38,8.36-25.04,15.62-23.73,25.88.31,2.37,1.04,4.87,2.23,7.63,4.91,11.38,22.28,13.94,32.19,14.45,29.24,1.5,215.51.09,226.77,0,.25-2.26,1.27-11.7,1.82-22.04h0c.51-9.33.52-16.83.04-22.29-.87-9.9-3.33-19.08-7.32-27.29-10.93-22.52-13.71-33.84-14.37-37.26-1.84,1.71-6.76,5.84-14.98,9.67-9.63,4.48-25.79,9.31-48.04,6.88-24.81-2.71-34.51-14.62-42.3-24.19-5.29-6.49-9.52-11.7-17.01-11.7Z"/></g></svg>