<svg xmlns="http://www.w3.org/2000/svg" viewBox="0 0 48 48" id="Youtube"><g fill="#11111b" class="color000000 svgShape"><g fill="#11111b" class="color000000 svgShape"><path fill="#b4befe" d="m28 24-8 4v-8l8 4z" class="colorf1f2f2 svgShape"></path><path fill="#f38ba8" d="M47 14v20a6 6 0 0 1-6 6H7a6 6 0 0 1-6-6V14a6 6 0 0 1 6-6h34a6 6 0 0 1 6 6ZM20 28l8-4-8-4Z" class="colorfa5c66 svgShape"></path><path fill="#313244" d="M41 41H7a7.008 7.008 0 0 1-7-7V14a7.008 7.008 0 0 1 7-7h34a7.008 7.008 0 0 1 7 7v20a7.008 7.008 0 0 1-7 7ZM7 9a5.006 5.006 0 0 0-5 5v20a5.006 5.006 0 0 0 5 5h34a5.006 5.006 0 0 0 5-5V14a5.006 5.006 0 0 0-5-5Z" class="color474c54 svgShape"></path><path fill="#313244" d="M20 29a1 1 0 0 1-1-1v-8a1 1 0 0 1 1.447-.895l8 4a1 1 0 0 1 0 1.789l-8 4A1 1 0 0 1 20 29Zm1-7.382v4.764L25.764 24Z" class="color474c54 svgShape"></path></g></g></svg>